<?xml version="1.0" encoding="UTF-8"?>
<!DOCTYPE svg PUBLIC "-//W3C//DTD SVG 1.1//EN" "http://www.w3.org/Graphics/SVG/1.1/DTD/svg11.dtd">
<svg width="480mm" height="249mm" viewBox="0 0 48000 24900" version="1.1" xmlns="http://www.w3.org/2000/svg" xmlns:xlink="http://www.w3.org/1999/xlink" stroke-width="28.222" stroke-linejoin="round" xml:space="preserve">
 <path fill="rgb(255,255,255)" stroke="none" d="M 23996,24902 L 0,24902 0,0 47991,0 47991,24902 23996,24902 Z"/>
 <path fill="none" stroke="rgb(179,179,179)" stroke-linejoin="round" d="M 23434,19700 L 3607,19700 3607,3092 43261,3092 43261,19700 23434,19700 Z"/>
 <path fill="none" stroke="rgb(179,179,179)" stroke-linejoin="round" d="M 43261,19699 L 3607,19699"/>
 <path fill="none" stroke="rgb(179,179,179)" stroke-linejoin="round" d="M 43261,18038 L 3607,18038"/>
 <path fill="none" stroke="rgb(179,179,179)" stroke-linejoin="round" d="M 43261,16377 L 3607,16377"/>
 <path fill="none" stroke="rgb(179,179,179)" stroke-linejoin="round" d="M 43261,14716 L 3607,14716"/>
 <path fill="none" stroke="rgb(179,179,179)" stroke-linejoin="round" d="M 43261,13055 L 3607,13055"/>
 <path fill="none" stroke="rgb(179,179,179)" stroke-linejoin="round" d="M 43261,11395 L 3607,11395"/>
 <path fill="none" stroke="rgb(179,179,179)" stroke-linejoin="round" d="M 43261,9734 L 3607,9734"/>
 <path fill="none" stroke="rgb(179,179,179)" stroke-linejoin="round" d="M 43261,8073 L 3607,8073"/>
 <path fill="none" stroke="rgb(179,179,179)" stroke-linejoin="round" d="M 43261,6412 L 3607,6412"/>
 <path fill="none" stroke="rgb(179,179,179)" stroke-linejoin="round" d="M 43261,4751 L 3607,4751"/>
 <path fill="none" stroke="rgb(179,179,179)" stroke-linejoin="round" d="M 43261,3091 L 3607,3091"/>
 <path fill="none" stroke="rgb(179,179,179)" stroke-linejoin="round" d="M 3607,19849 L 3607,19699"/>
 <path fill="none" stroke="rgb(179,179,179)" stroke-linejoin="round" d="M 3607,19849 L 3607,19699"/>
 <path fill="none" stroke="rgb(179,179,179)" stroke-linejoin="round" d="M 4974,19849 L 4974,19699"/>
 <path fill="none" stroke="rgb(179,179,179)" stroke-linejoin="round" d="M 4974,19849 L 4974,19699"/>
 <path fill="none" stroke="rgb(179,179,179)" stroke-linejoin="round" d="M 6341,19849 L 6341,19699"/>
 <path fill="none" stroke="rgb(179,179,179)" stroke-linejoin="round" d="M 6341,19849 L 6341,19699"/>
 <path fill="none" stroke="rgb(179,179,179)" stroke-linejoin="round" d="M 7709,19849 L 7709,19699"/>
 <path fill="none" stroke="rgb(179,179,179)" stroke-linejoin="round" d="M 7709,19849 L 7709,19699"/>
 <path fill="none" stroke="rgb(179,179,179)" stroke-linejoin="round" d="M 9076,19849 L 9076,19699"/>
 <path fill="none" stroke="rgb(179,179,179)" stroke-linejoin="round" d="M 9076,19849 L 9076,19699"/>
 <path fill="none" stroke="rgb(179,179,179)" stroke-linejoin="round" d="M 10444,19849 L 10444,19699"/>
 <path fill="none" stroke="rgb(179,179,179)" stroke-linejoin="round" d="M 10444,19849 L 10444,19699"/>
 <path fill="none" stroke="rgb(179,179,179)" stroke-linejoin="round" d="M 11811,19849 L 11811,19699"/>
 <path fill="none" stroke="rgb(179,179,179)" stroke-linejoin="round" d="M 11811,19849 L 11811,19699"/>
 <path fill="none" stroke="rgb(179,179,179)" stroke-linejoin="round" d="M 13178,19849 L 13178,19699"/>
 <path fill="none" stroke="rgb(179,179,179)" stroke-linejoin="round" d="M 13178,19849 L 13178,19699"/>
 <path fill="none" stroke="rgb(179,179,179)" stroke-linejoin="round" d="M 14546,19849 L 14546,19699"/>
 <path fill="none" stroke="rgb(179,179,179)" stroke-linejoin="round" d="M 14546,19849 L 14546,19699"/>
 <path fill="none" stroke="rgb(179,179,179)" stroke-linejoin="round" d="M 15913,19849 L 15913,19699"/>
 <path fill="none" stroke="rgb(179,179,179)" stroke-linejoin="round" d="M 15913,19849 L 15913,19699"/>
 <path fill="none" stroke="rgb(179,179,179)" stroke-linejoin="round" d="M 17281,19849 L 17281,19699"/>
 <path fill="none" stroke="rgb(179,179,179)" stroke-linejoin="round" d="M 17281,19849 L 17281,19699"/>
 <path fill="none" stroke="rgb(179,179,179)" stroke-linejoin="round" d="M 18648,19849 L 18648,19699"/>
 <path fill="none" stroke="rgb(179,179,179)" stroke-linejoin="round" d="M 18648,19849 L 18648,19699"/>
 <path fill="none" stroke="rgb(179,179,179)" stroke-linejoin="round" d="M 20015,19849 L 20015,19699"/>
 <path fill="none" stroke="rgb(179,179,179)" stroke-linejoin="round" d="M 20015,19849 L 20015,19699"/>
 <path fill="none" stroke="rgb(179,179,179)" stroke-linejoin="round" d="M 21383,19849 L 21383,19699"/>
 <path fill="none" stroke="rgb(179,179,179)" stroke-linejoin="round" d="M 21383,19849 L 21383,19699"/>
 <path fill="none" stroke="rgb(179,179,179)" stroke-linejoin="round" d="M 22750,19849 L 22750,19699"/>
 <path fill="none" stroke="rgb(179,179,179)" stroke-linejoin="round" d="M 22750,19849 L 22750,19699"/>
 <path fill="none" stroke="rgb(179,179,179)" stroke-linejoin="round" d="M 24117,19849 L 24117,19699"/>
 <path fill="none" stroke="rgb(179,179,179)" stroke-linejoin="round" d="M 24117,19849 L 24117,19699"/>
 <path fill="none" stroke="rgb(179,179,179)" stroke-linejoin="round" d="M 25484,19849 L 25484,19699"/>
 <path fill="none" stroke="rgb(179,179,179)" stroke-linejoin="round" d="M 25484,19849 L 25484,19699"/>
 <path fill="none" stroke="rgb(179,179,179)" stroke-linejoin="round" d="M 26852,19849 L 26852,19699"/>
 <path fill="none" stroke="rgb(179,179,179)" stroke-linejoin="round" d="M 26852,19849 L 26852,19699"/>
 <path fill="none" stroke="rgb(179,179,179)" stroke-linejoin="round" d="M 28219,19849 L 28219,19699"/>
 <path fill="none" stroke="rgb(179,179,179)" stroke-linejoin="round" d="M 28219,19849 L 28219,19699"/>
 <path fill="none" stroke="rgb(179,179,179)" stroke-linejoin="round" d="M 29586,19849 L 29586,19699"/>
 <path fill="none" stroke="rgb(179,179,179)" stroke-linejoin="round" d="M 29586,19849 L 29586,19699"/>
 <path fill="none" stroke="rgb(179,179,179)" stroke-linejoin="round" d="M 30954,19849 L 30954,19699"/>
 <path fill="none" stroke="rgb(179,179,179)" stroke-linejoin="round" d="M 30954,19849 L 30954,19699"/>
 <path fill="none" stroke="rgb(179,179,179)" stroke-linejoin="round" d="M 32321,19849 L 32321,19699"/>
 <path fill="none" stroke="rgb(179,179,179)" stroke-linejoin="round" d="M 32321,19849 L 32321,19699"/>
 <path fill="none" stroke="rgb(179,179,179)" stroke-linejoin="round" d="M 33689,19849 L 33689,19699"/>
 <path fill="none" stroke="rgb(179,179,179)" stroke-linejoin="round" d="M 33689,19849 L 33689,19699"/>
 <path fill="none" stroke="rgb(179,179,179)" stroke-linejoin="round" d="M 35056,19849 L 35056,19699"/>
 <path fill="none" stroke="rgb(179,179,179)" stroke-linejoin="round" d="M 35056,19849 L 35056,19699"/>
 <path fill="none" stroke="rgb(179,179,179)" stroke-linejoin="round" d="M 36423,19849 L 36423,19699"/>
 <path fill="none" stroke="rgb(179,179,179)" stroke-linejoin="round" d="M 36423,19849 L 36423,19699"/>
 <path fill="none" stroke="rgb(179,179,179)" stroke-linejoin="round" d="M 37791,19849 L 37791,19699"/>
 <path fill="none" stroke="rgb(179,179,179)" stroke-linejoin="round" d="M 37791,19849 L 37791,19699"/>
 <path fill="none" stroke="rgb(179,179,179)" stroke-linejoin="round" d="M 39158,19849 L 39158,19699"/>
 <path fill="none" stroke="rgb(179,179,179)" stroke-linejoin="round" d="M 39158,19849 L 39158,19699"/>
 <path fill="none" stroke="rgb(179,179,179)" stroke-linejoin="round" d="M 40526,19849 L 40526,19699"/>
 <path fill="none" stroke="rgb(179,179,179)" stroke-linejoin="round" d="M 40526,19849 L 40526,19699"/>
 <path fill="none" stroke="rgb(179,179,179)" stroke-linejoin="round" d="M 41893,19849 L 41893,19699"/>
 <path fill="none" stroke="rgb(179,179,179)" stroke-linejoin="round" d="M 41893,19849 L 41893,19699"/>
 <path fill="none" stroke="rgb(179,179,179)" stroke-linejoin="round" d="M 43261,19849 L 43261,19699"/>
 <path fill="none" stroke="rgb(179,179,179)" stroke-linejoin="round" d="M 43261,19849 L 43261,19699"/>
 <path fill="none" stroke="rgb(179,179,179)" stroke-linejoin="round" d="M 3607,19699 L 43261,19699"/>
 <path fill="none" stroke="rgb(179,179,179)" stroke-linejoin="round" d="M 3457,19699 L 3607,19699"/>
 <path fill="none" stroke="rgb(179,179,179)" stroke-linejoin="round" d="M 3457,19699 L 3607,19699"/>
 <path fill="none" stroke="rgb(179,179,179)" stroke-linejoin="round" d="M 3457,18038 L 3607,18038"/>
 <path fill="none" stroke="rgb(179,179,179)" stroke-linejoin="round" d="M 3457,18038 L 3607,18038"/>
 <path fill="none" stroke="rgb(179,179,179)" stroke-linejoin="round" d="M 3457,16377 L 3607,16377"/>
 <path fill="none" stroke="rgb(179,179,179)" stroke-linejoin="round" d="M 3457,16377 L 3607,16377"/>
 <path fill="none" stroke="rgb(179,179,179)" stroke-linejoin="round" d="M 3457,14716 L 3607,14716"/>
 <path fill="none" stroke="rgb(179,179,179)" stroke-linejoin="round" d="M 3457,14716 L 3607,14716"/>
 <path fill="none" stroke="rgb(179,179,179)" stroke-linejoin="round" d="M 3457,13055 L 3607,13055"/>
 <path fill="none" stroke="rgb(179,179,179)" stroke-linejoin="round" d="M 3457,13055 L 3607,13055"/>
 <path fill="none" stroke="rgb(179,179,179)" stroke-linejoin="round" d="M 3457,11395 L 3607,11395"/>
 <path fill="none" stroke="rgb(179,179,179)" stroke-linejoin="round" d="M 3457,11395 L 3607,11395"/>
 <path fill="none" stroke="rgb(179,179,179)" stroke-linejoin="round" d="M 3457,9734 L 3607,9734"/>
 <path fill="none" stroke="rgb(179,179,179)" stroke-linejoin="round" d="M 3457,9734 L 3607,9734"/>
 <path fill="none" stroke="rgb(179,179,179)" stroke-linejoin="round" d="M 3457,8073 L 3607,8073"/>
 <path fill="none" stroke="rgb(179,179,179)" stroke-linejoin="round" d="M 3457,8073 L 3607,8073"/>
 <path fill="none" stroke="rgb(179,179,179)" stroke-linejoin="round" d="M 3457,6412 L 3607,6412"/>
 <path fill="none" stroke="rgb(179,179,179)" stroke-linejoin="round" d="M 3457,6412 L 3607,6412"/>
 <path fill="none" stroke="rgb(179,179,179)" stroke-linejoin="round" d="M 3457,4751 L 3607,4751"/>
 <path fill="none" stroke="rgb(179,179,179)" stroke-linejoin="round" d="M 3457,4751 L 3607,4751"/>
 <path fill="none" stroke="rgb(179,179,179)" stroke-linejoin="round" d="M 3457,3091 L 3607,3091"/>
 <path fill="none" stroke="rgb(179,179,179)" stroke-linejoin="round" d="M 3457,3091 L 3607,3091"/>
 <path fill="none" stroke="rgb(179,179,179)" stroke-linejoin="round" d="M 3607,19699 L 3607,3091"/>
 <path fill="rgb(0,69,134)" stroke="none" d="M 42235,19699 L 42919,19699 42919,16309 42235,16309 42235,19699 Z"/>
 <path fill="rgb(0,69,134)" stroke="none" d="M 40868,19699 L 41551,19699 41551,19699 40868,19699 Z"/>
 <path fill="rgb(0,69,134)" stroke="none" d="M 39500,19699 L 40184,19699 40184,19699 39500,19699 Z"/>
 <path fill="rgb(0,69,134)" stroke="none" d="M 38133,19699 L 38816,19699 38816,19699 38133,19699 Z"/>
 <path fill="rgb(0,69,134)" stroke="none" d="M 36765,19699 L 37449,19699 37449,19699 36765,19699 Z"/>
 <path fill="rgb(0,69,134)" stroke="none" d="M 35398,19699 L 36082,19699 36082,11395 35398,11395 35398,19699 Z"/>
 <path fill="rgb(0,69,134)" stroke="none" d="M 34030,19699 L 34714,19699 34714,19699 34030,19699 Z"/>
 <path fill="rgb(0,69,134)" stroke="none" d="M 32663,19699 L 33347,19699 33347,19699 32663,19699 Z"/>
 <path fill="rgb(0,69,134)" stroke="none" d="M 31296,19699 L 31979,19699 31979,16377 31296,16377 31296,19699 Z"/>
 <path fill="rgb(0,69,134)" stroke="none" d="M 29928,19699 L 30612,19699 30612,19699 29928,19699 Z"/>
 <path fill="rgb(0,69,134)" stroke="none" d="M 28561,19699 L 29245,19699 29245,19699 28561,19699 Z"/>
 <path fill="rgb(0,69,134)" stroke="none" d="M 27193,19699 L 27877,19699 27877,19699 27193,19699 Z"/>
 <path fill="rgb(0,69,134)" stroke="none" d="M 25826,19699 L 26510,19699 26510,18824 25826,18824 25826,19699 Z"/>
 <path fill="rgb(0,69,134)" stroke="none" d="M 24459,19699 L 25142,19699 25142,19699 24459,19699 Z"/>
 <path fill="rgb(0,69,134)" stroke="none" d="M 23092,19699 L 23776,19699 23776,19699 23092,19699 Z"/>
 <path fill="rgb(0,69,134)" stroke="none" d="M 21725,19699 L 22408,19699 22408,19699 21725,19699 Z"/>
 <path fill="rgb(0,69,134)" stroke="none" d="M 20357,19699 L 21041,19699 21041,19699 20357,19699 Z"/>
 <path fill="rgb(0,69,134)" stroke="none" d="M 18990,19699 L 19674,19699 19674,19376 18990,19376 18990,19699 Z"/>
 <path fill="rgb(0,69,134)" stroke="none" d="M 17622,19699 L 18306,19699 18306,19699 17622,19699 Z"/>
 <path fill="rgb(0,69,134)" stroke="none" d="M 16255,19699 L 16939,19699 16939,19210 16255,19210 16255,19699 Z"/>
 <path fill="rgb(0,69,134)" stroke="none" d="M 14888,19699 L 15571,19699 15571,19699 14888,19699 Z"/>
 <path fill="rgb(0,69,134)" stroke="none" d="M 13520,19699 L 14204,19699 14204,19516 13520,19516 13520,19699 Z"/>
 <path fill="rgb(0,69,134)" stroke="none" d="M 12153,19699 L 12837,19699 12837,19699 12153,19699 Z"/>
 <path fill="rgb(0,69,134)" stroke="none" d="M 10785,19699 L 11469,19699 11469,19699 10785,19699 Z"/>
 <path fill="rgb(0,69,134)" stroke="none" d="M 9418,19699 L 10102,19699 10102,19699 9418,19699 Z"/>
 <path fill="rgb(0,69,134)" stroke="none" d="M 8051,19699 L 8734,19699 8734,19699 8051,19699 Z"/>
 <path fill="rgb(0,69,134)" stroke="none" d="M 6683,19699 L 7367,19699 7367,19699 6683,19699 Z"/>
 <path fill="rgb(0,69,134)" stroke="none" d="M 5316,19699 L 5999,19699 5999,19699 5316,19699 Z"/>
 <path fill="rgb(0,69,134)" stroke="none" d="M 3948,19699 L 4632,19699 4632,18944 3948,18944 3948,19699 Z"/>
 <path fill="rgb(255,66,14)" stroke="none" d="M 42235,16309 L 42919,16309 42919,13190 42235,13190 42235,16309 Z"/>
 <path fill="rgb(255,66,14)" stroke="none" d="M 40868,19699 L 41551,19699 41551,19699 40868,19699 Z"/>
 <path fill="rgb(255,66,14)" stroke="none" d="M 39500,19699 L 40184,19699 40184,11395 39500,11395 39500,19699 Z"/>
 <path fill="rgb(255,66,14)" stroke="none" d="M 38133,19699 L 38816,19699 38816,11395 38133,11395 38133,19699 Z"/>
 <path fill="rgb(255,66,14)" stroke="none" d="M 36765,19699 L 37449,19699 37449,9734 36765,9734 36765,19699 Z"/>
 <path fill="rgb(255,66,14)" stroke="none" d="M 34030,19699 L 34714,19699 34714,18579 34030,18579 34030,19699 Z"/>
 <path fill="rgb(255,66,14)" stroke="none" d="M 32663,19699 L 33347,19699 33347,19224 32663,19224 32663,19699 Z"/>
 <path fill="rgb(255,66,14)" stroke="none" d="M 31296,16377 L 31979,16377 31979,11395 31296,11395 31296,16377 Z"/>
 <path fill="rgb(255,66,14)" stroke="none" d="M 29928,19699 L 30612,19699 30612,16768 29928,16768 29928,19699 Z"/>
 <path fill="rgb(255,66,14)" stroke="none" d="M 28561,19699 L 29245,19699 29245,18676 28561,18676 28561,19699 Z"/>
 <path fill="rgb(255,66,14)" stroke="none" d="M 27193,19699 L 27877,19699 27877,16377 27193,16377 27193,19699 Z"/>
 <path fill="rgb(255,66,14)" stroke="none" d="M 25826,18824 L 26510,18824 26510,18300 25826,18300 25826,18824 Z"/>
 <path fill="rgb(255,66,14)" stroke="none" d="M 24459,19699 L 25142,19699 25142,16930 24459,16930 24459,19699 Z"/>
 <path fill="rgb(255,66,14)" stroke="none" d="M 23092,19699 L 23776,19699 23776,19699 23092,19699 Z"/>
 <path fill="rgb(255,66,14)" stroke="none" d="M 21725,19699 L 22408,19699 22408,19699 21725,19699 Z"/>
 <path fill="rgb(255,66,14)" stroke="none" d="M 20357,19699 L 21041,19699 21041,16930 20357,16930 20357,19699 Z"/>
 <path fill="rgb(255,66,14)" stroke="none" d="M 18990,19376 L 19674,19376 19674,11959 18990,11959 18990,19376 Z"/>
 <path fill="rgb(255,66,14)" stroke="none" d="M 17622,19699 L 18306,19699 18306,19699 17622,19699 Z"/>
 <path fill="rgb(255,66,14)" stroke="none" d="M 16255,19210 L 16939,19210 16939,16279 16255,16279 16255,19210 Z"/>
 <path fill="rgb(255,66,14)" stroke="none" d="M 14888,19699 L 15571,19699 15571,19699 14888,19699 Z"/>
 <path fill="rgb(255,66,14)" stroke="none" d="M 13520,19516 L 14204,19516 14204,18786 13520,18786 13520,19516 Z"/>
 <path fill="rgb(255,66,14)" stroke="none" d="M 12153,19699 L 12837,19699 12837,16008 12153,16008 12153,19699 Z"/>
 <path fill="rgb(255,66,14)" stroke="none" d="M 10785,19699 L 11469,19699 11469,8627 10785,8627 10785,19699 Z"/>
 <path fill="rgb(255,66,14)" stroke="none" d="M 9418,19699 L 10102,19699 10102,18736 9418,18736 9418,19699 Z"/>
 <path fill="rgb(255,66,14)" stroke="none" d="M 8051,19699 L 8734,19699 8734,11395 8051,11395 8051,19699 Z"/>
 <path fill="rgb(255,66,14)" stroke="none" d="M 6683,19699 L 7367,19699 7367,19699 6683,19699 Z"/>
 <path fill="rgb(255,66,14)" stroke="none" d="M 5316,19699 L 5999,19699 5999,17143 5316,17143 5316,19699 Z"/>
 <path fill="rgb(255,66,14)" stroke="none" d="M 3948,18944 L 4632,18944 4632,15169 3948,15169 3948,18944 Z"/>
 <path fill="rgb(255,211,32)" stroke="none" d="M 42235,13190 L 42919,13190 42919,12716 42235,12716 42235,13190 Z"/>
 <path fill="rgb(255,211,32)" stroke="none" d="M 40868,19699 L 41551,19699 41551,3091 40868,3091 40868,19699 Z"/>
 <path fill="rgb(255,211,32)" stroke="none" d="M 34030,18579 L 34714,18579 34714,18206 34030,18206 34030,18579 Z"/>
 <path fill="rgb(255,211,32)" stroke="none" d="M 32663,19224 L 33347,19224 33347,18275 32663,18275 32663,19224 Z"/>
 <path fill="rgb(255,211,32)" stroke="none" d="M 31296,11395 L 31979,11395 31979,8073 31296,8073 31296,11395 Z"/>
 <path fill="rgb(255,211,32)" stroke="none" d="M 29928,16768 L 30612,16768 30612,15791 29928,15791 29928,16768 Z"/>
 <path fill="rgb(255,211,32)" stroke="none" d="M 25826,18300 L 26510,18300 26510,14978 25826,14978 25826,18300 Z"/>
 <path fill="rgb(255,211,32)" stroke="none" d="M 24459,16930 L 25142,16930 25142,14162 24459,14162 24459,16930 Z"/>
 <path fill="rgb(255,211,32)" stroke="none" d="M 23092,19699 L 23776,19699 23776,19699 23092,19699 Z"/>
 <path fill="rgb(255,211,32)" stroke="none" d="M 21725,19699 L 22408,19699 22408,19699 21725,19699 Z"/>
 <path fill="rgb(255,211,32)" stroke="none" d="M 20357,16930 L 21041,16930 21041,15269 20357,15269 20357,16930 Z"/>
 <path fill="rgb(255,211,32)" stroke="none" d="M 18990,11959 L 19674,11959 19674,10992 18990,10992 18990,11959 Z"/>
 <path fill="rgb(255,211,32)" stroke="none" d="M 17622,19699 L 18306,19699 18306,19699 17622,19699 Z"/>
 <path fill="rgb(255,211,32)" stroke="none" d="M 14888,19699 L 15571,19699 15571,19699 14888,19699 Z"/>
 <path fill="rgb(255,211,32)" stroke="none" d="M 13520,18786 L 14204,18786 14204,18603 13520,18603 13520,18786 Z"/>
 <path fill="rgb(255,211,32)" stroke="none" d="M 9418,18736 L 10102,18736 10102,16449 9418,16449 9418,18736 Z"/>
 <path fill="rgb(255,211,32)" stroke="none" d="M 6683,19699 L 7367,19699 7367,19699 6683,19699 Z"/>
 <path fill="rgb(255,211,32)" stroke="none" d="M 5316,17143 L 5999,17143 5999,15866 5316,15866 5316,17143 Z"/>
 <path fill="rgb(255,211,32)" stroke="none" d="M 3948,15169 L 4632,15169 4632,12150 3948,12150 3948,15169 Z"/>
 <path fill="rgb(87,157,28)" stroke="none" d="M 42235,12716 L 42919,12716 42919,11564 42235,11564 42235,12716 Z"/>
 <path fill="rgb(87,157,28)" stroke="none" d="M 36765,9734 L 37449,9734 37449,6412 36765,6412 36765,9734 Z"/>
 <path fill="rgb(87,157,28)" stroke="none" d="M 34030,18206 L 34714,18206 34714,17272 34030,17272 34030,18206 Z"/>
 <path fill="rgb(87,157,28)" stroke="none" d="M 32663,18275 L 33347,18275 33347,17326 32663,17326 32663,18275 Z"/>
 <path fill="rgb(87,157,28)" stroke="none" d="M 29928,15791 L 30612,15791 30612,13185 29928,13185 29928,15791 Z"/>
 <path fill="rgb(87,157,28)" stroke="none" d="M 28561,18676 L 29245,18676 29245,17271 28561,17271 28561,18676 Z"/>
 <path fill="rgb(87,157,28)" stroke="none" d="M 27193,16377 L 27877,16377 27877,15546 27193,15546 27193,16377 Z"/>
 <path fill="rgb(87,157,28)" stroke="none" d="M 25826,14978 L 26510,14978 26510,14454 25826,14454 25826,14978 Z"/>
 <path fill="rgb(87,157,28)" stroke="none" d="M 23092,19699 L 23776,19699 23776,19699 23092,19699 Z"/>
 <path fill="rgb(87,157,28)" stroke="none" d="M 21725,19699 L 22408,19699 22408,19699 21725,19699 Z"/>
 <path fill="rgb(87,157,28)" stroke="none" d="M 20357,15269 L 21041,15269 21041,14162 20357,14162 20357,15269 Z"/>
 <path fill="rgb(87,157,28)" stroke="none" d="M 18990,10992 L 19674,10992 19674,10347 18990,10347 18990,10992 Z"/>
 <path fill="rgb(87,157,28)" stroke="none" d="M 17622,19699 L 18306,19699 18306,19699 17622,19699 Z"/>
 <path fill="rgb(87,157,28)" stroke="none" d="M 14888,19699 L 15571,19699 15571,18868 14888,18868 14888,19699 Z"/>
 <path fill="rgb(87,157,28)" stroke="none" d="M 13520,18603 L 14204,18603 14204,16778 13520,16778 13520,18603 Z"/>
 <path fill="rgb(87,157,28)" stroke="none" d="M 12153,16008 L 12837,16008 12837,13239 12153,13239 12153,16008 Z"/>
 <path fill="rgb(87,157,28)" stroke="none" d="M 10785,8627 L 11469,8627 11469,8363 10785,8363 10785,8627 Z"/>
 <path fill="rgb(87,157,28)" stroke="none" d="M 9418,16449 L 10102,16449 10102,15847 9418,15847 9418,16449 Z"/>
 <path fill="rgb(87,157,28)" stroke="none" d="M 6683,19699 L 7367,19699 7367,19699 6683,19699 Z"/>
 <path fill="rgb(87,157,28)" stroke="none" d="M 3948,12150 L 4632,12150 4632,6110 3948,6110 3948,12150 Z"/>
 <path fill="rgb(126,0,33)" stroke="none" d="M 42235,11564 L 42919,11564 42919,11090 42235,11090 42235,11564 Z"/>
 <path fill="rgb(126,0,33)" stroke="none" d="M 39500,11395 L 40184,11395 40184,3091 39500,3091 39500,11395 Z"/>
 <path fill="rgb(126,0,33)" stroke="none" d="M 34030,17272 L 34714,17272 34714,14287 34030,14287 34030,17272 Z"/>
 <path fill="rgb(126,0,33)" stroke="none" d="M 29928,13185 L 30612,13185 30612,12372 29928,12372 29928,13185 Z"/>
 <path fill="rgb(126,0,33)" stroke="none" d="M 28561,17271 L 29245,17271 29245,15099 28561,15099 28561,17271 Z"/>
 <path fill="rgb(126,0,33)" stroke="none" d="M 25826,14454 L 26510,14454 26510,13579 25826,13579 25826,14454 Z"/>
 <path fill="rgb(126,0,33)" stroke="none" d="M 24459,14162 L 25142,14162 25142,11395 24459,11395 24459,14162 Z"/>
 <path fill="rgb(126,0,33)" stroke="none" d="M 23092,19699 L 23776,19699 23776,19699 23092,19699 Z"/>
 <path fill="rgb(126,0,33)" stroke="none" d="M 21725,19699 L 22408,19699 22408,19699 21725,19699 Z"/>
 <path fill="rgb(126,0,33)" stroke="none" d="M 20357,14162 L 21041,14162 21041,13609 20357,13609 20357,14162 Z"/>
 <path fill="rgb(126,0,33)" stroke="none" d="M 18990,10347 L 19674,10347 19674,9057 18990,9057 18990,10347 Z"/>
 <path fill="rgb(126,0,33)" stroke="none" d="M 17622,19699 L 18306,19699 18306,19699 17622,19699 Z"/>
 <path fill="rgb(126,0,33)" stroke="none" d="M 13520,16778 L 14204,16778 14204,16413 13520,16413 13520,16778 Z"/>
 <path fill="rgb(126,0,33)" stroke="none" d="M 12153,13239 L 12837,13239 12837,9550 12153,9550 12153,13239 Z"/>
 <path fill="rgb(126,0,33)" stroke="none" d="M 9418,15847 L 10102,15847 10102,10673 9418,10673 9418,15847 Z"/>
 <path fill="rgb(126,0,33)" stroke="none" d="M 8051,11395 L 8734,11395 8734,3091 8051,3091 8051,11395 Z"/>
 <path fill="rgb(126,0,33)" stroke="none" d="M 6683,19699 L 7367,19699 7367,19699 6683,19699 Z"/>
 <path fill="rgb(126,0,33)" stroke="none" d="M 5316,15866 L 5999,15866 5999,10756 5316,10756 5316,15866 Z"/>
 <path fill="rgb(126,0,33)" stroke="none" d="M 3948,6110 L 4632,6110 4632,5355 3948,5355 3948,6110 Z"/>
 <path fill="rgb(131,202,255)" stroke="none" d="M 42235,11090 L 42919,11090 42919,9734 42235,9734 42235,11090 Z"/>
 <path fill="rgb(131,202,255)" stroke="none" d="M 38133,11395 L 38816,11395 38816,3091 38133,3091 38133,11395 Z"/>
 <path fill="rgb(131,202,255)" stroke="none" d="M 34030,14287 L 34714,14287 34714,12980 34030,12980 34030,14287 Z"/>
 <path fill="rgb(131,202,255)" stroke="none" d="M 32663,17326 L 33347,17326 33347,15428 32663,15428 32663,17326 Z"/>
 <path fill="rgb(131,202,255)" stroke="none" d="M 31296,8073 L 31979,8073 31979,4751 31296,4751 31296,8073 Z"/>
 <path fill="rgb(131,202,255)" stroke="none" d="M 29928,12372 L 30612,12372 30612,9604 29928,9604 29928,12372 Z"/>
 <path fill="rgb(131,202,255)" stroke="none" d="M 28561,15099 L 29245,15099 29245,14333 28561,14333 28561,15099 Z"/>
 <path fill="rgb(131,202,255)" stroke="none" d="M 27193,15546 L 27877,15546 27877,5582 27193,5582 27193,15546 Z"/>
 <path fill="rgb(131,202,255)" stroke="none" d="M 23092,19699 L 23776,19699 23776,19699 23092,19699 Z"/>
 <path fill="rgb(131,202,255)" stroke="none" d="M 21725,19699 L 22408,19699 22408,15546 21725,15546 21725,19699 Z"/>
 <path fill="rgb(131,202,255)" stroke="none" d="M 20357,13609 L 21041,13609 21041,11949 20357,11949 20357,13609 Z"/>
 <path fill="rgb(131,202,255)" stroke="none" d="M 18990,9057 L 19674,9057 19674,8734 18990,8734 18990,9057 Z"/>
 <path fill="rgb(131,202,255)" stroke="none" d="M 17622,19699 L 18306,19699 18306,19699 17622,19699 Z"/>
 <path fill="rgb(131,202,255)" stroke="none" d="M 16255,16279 L 16939,16279 16939,12372 16255,12372 16255,16279 Z"/>
 <path fill="rgb(131,202,255)" stroke="none" d="M 14888,18868 L 15571,18868 15571,17207 14888,17207 14888,18868 Z"/>
 <path fill="rgb(131,202,255)" stroke="none" d="M 13520,16413 L 14204,16413 14204,15866 13520,15866 13520,16413 Z"/>
 <path fill="rgb(131,202,255)" stroke="none" d="M 12153,9550 L 12837,9550 12837,6781 12153,6781 12153,9550 Z"/>
 <path fill="rgb(131,202,255)" stroke="none" d="M 10785,8363 L 11469,8363 11469,7836 10785,7836 10785,8363 Z"/>
 <path fill="rgb(131,202,255)" stroke="none" d="M 9418,10673 L 10102,10673 10102,10432 9418,10432 9418,10673 Z"/>
 <path fill="rgb(131,202,255)" stroke="none" d="M 6683,19699 L 7367,19699 7367,19699 6683,19699 Z"/>
 <path fill="rgb(49,64,4)" stroke="none" d="M 42235,9734 L 42919,9734 42919,9531 42235,9531 42235,9734 Z"/>
 <path fill="rgb(49,64,4)" stroke="none" d="M 35398,11395 L 36082,11395 36082,3091 35398,3091 35398,11395 Z"/>
 <path fill="rgb(49,64,4)" stroke="none" d="M 34030,12980 L 34714,12980 34714,10369 34030,10369 34030,12980 Z"/>
 <path fill="rgb(49,64,4)" stroke="none" d="M 32663,15428 L 33347,15428 33347,13055 32663,13055 32663,15428 Z"/>
 <path fill="rgb(49,64,4)" stroke="none" d="M 31296,4751 L 31979,4751 31979,3091 31296,3091 31296,4751 Z"/>
 <path fill="rgb(49,64,4)" stroke="none" d="M 28561,14333 L 29245,14333 29245,13949 28561,13949 28561,14333 Z"/>
 <path fill="rgb(49,64,4)" stroke="none" d="M 25826,13579 L 26510,13579 26510,12705 25826,12705 25826,13579 Z"/>
 <path fill="rgb(49,64,4)" stroke="none" d="M 24459,11395 L 25142,11395 25142,8627 24459,8627 24459,11395 Z"/>
 <path fill="rgb(49,64,4)" stroke="none" d="M 23092,19699 L 23776,19699 23776,19699 23092,19699 Z"/>
 <path fill="rgb(49,64,4)" stroke="none" d="M 21725,15546 L 22408,15546 22408,3091 21725,3091 21725,15546 Z"/>
 <path fill="rgb(49,64,4)" stroke="none" d="M 20357,11949 L 21041,11949 21041,10841 20357,10841 20357,11949 Z"/>
 <path fill="rgb(49,64,4)" stroke="none" d="M 18990,8734 L 19674,8734 19674,8573 18990,8573 18990,8734 Z"/>
 <path fill="rgb(49,64,4)" stroke="none" d="M 17622,19699 L 18306,19699 18306,3091 17622,3091 17622,19699 Z"/>
 <path fill="rgb(49,64,4)" stroke="none" d="M 13520,15866 L 14204,15866 14204,15683 13520,15683 13520,15866 Z"/>
 <path fill="rgb(49,64,4)" stroke="none" d="M 10785,7836 L 11469,7836 11469,7572 10785,7572 10785,7836 Z"/>
 <path fill="rgb(49,64,4)" stroke="none" d="M 9418,10432 L 10102,10432 10102,9710 9418,9710 9418,10432 Z"/>
 <path fill="rgb(49,64,4)" stroke="none" d="M 6683,19699 L 7367,19699 7367,19699 6683,19699 Z"/>
 <path fill="rgb(49,64,4)" stroke="none" d="M 5316,10756 L 5999,10756 5999,8201 5316,8201 5316,10756 Z"/>
 <path fill="rgb(174,207,0)" stroke="none" d="M 42235,9531 L 42919,9531 42919,9056 42235,9056 42235,9531 Z"/>
 <path fill="rgb(174,207,0)" stroke="none" d="M 34030,10369 L 34714,10369 34714,8689 34030,8689 34030,10369 Z"/>
 <path fill="rgb(174,207,0)" stroke="none" d="M 32663,13055 L 33347,13055 33347,9734 32663,9734 32663,13055 Z"/>
 <path fill="rgb(174,207,0)" stroke="none" d="M 29928,9604 L 30612,9604 30612,8301 29928,8301 29928,9604 Z"/>
 <path fill="rgb(174,207,0)" stroke="none" d="M 28561,13949 L 29245,13949 29245,12672 28561,12672 28561,13949 Z"/>
 <path fill="rgb(174,207,0)" stroke="none" d="M 25826,12705 L 26510,12705 26510,10259 25826,10259 25826,12705 Z"/>
 <path fill="rgb(174,207,0)" stroke="none" d="M 24459,8627 L 25142,8627 25142,5859 24459,5859 24459,8627 Z"/>
 <path fill="rgb(174,207,0)" stroke="none" d="M 23092,19699 L 23776,19699 23776,19699 23092,19699 Z"/>
 <path fill="rgb(174,207,0)" stroke="none" d="M 20357,10841 L 21041,10841 21041,6966 20357,6966 20357,10841 Z"/>
 <path fill="rgb(174,207,0)" stroke="none" d="M 18990,8573 L 19674,8573 19674,7606 18990,7606 18990,8573 Z"/>
 <path fill="rgb(174,207,0)" stroke="none" d="M 14888,17207 L 15571,17207 15571,13885 14888,13885 14888,17207 Z"/>
 <path fill="rgb(174,207,0)" stroke="none" d="M 13520,15683 L 14204,15683 14204,12399 13520,12399 13520,15683 Z"/>
 <path fill="rgb(174,207,0)" stroke="none" d="M 9418,9710 L 10102,9710 10102,7183 9418,7183 9418,9710 Z"/>
 <path fill="rgb(174,207,0)" stroke="none" d="M 6683,19699 L 7367,19699 7367,19699 6683,19699 Z"/>
 <path fill="rgb(174,207,0)" stroke="none" d="M 5316,8201 L 5999,8201 5999,6923 5316,6923 5316,8201 Z"/>
 <path fill="rgb(174,207,0)" stroke="none" d="M 3948,5355 L 4632,5355 4632,3845 3948,3845 3948,5355 Z"/>
 <path fill="rgb(75,31,111)" stroke="none" d="M 42235,9056 L 42919,9056 42919,8446 42235,8446 42235,9056 Z"/>
 <path fill="rgb(75,31,111)" stroke="none" d="M 36765,6412 L 37449,6412 37449,3091 36765,3091 36765,6412 Z"/>
 <path fill="rgb(75,31,111)" stroke="none" d="M 34030,8689 L 34714,8689 34714,7196 34030,7196 34030,8689 Z"/>
 <path fill="rgb(75,31,111)" stroke="none" d="M 32663,9734 L 33347,9734 33347,9260 32663,9260 32663,9734 Z"/>
 <path fill="rgb(75,31,111)" stroke="none" d="M 29928,8301 L 30612,8301 30612,8138 29928,8138 29928,8301 Z"/>
 <path fill="rgb(75,31,111)" stroke="none" d="M 28561,12672 L 29245,12672 29245,9479 28561,9479 28561,12672 Z"/>
 <path fill="rgb(75,31,111)" stroke="none" d="M 25826,10259 L 26510,10259 26510,7811 25826,7811 25826,10259 Z"/>
 <path fill="rgb(75,31,111)" stroke="none" d="M 24459,5859 L 25142,5859 25142,3091 24459,3091 24459,5859 Z"/>
 <path fill="rgb(75,31,111)" stroke="none" d="M 23092,19699 L 23776,19699 23776,19699 23092,19699 Z"/>
 <path fill="rgb(75,31,111)" stroke="none" d="M 20357,6966 L 21041,6966 21041,4751 20357,4751 20357,6966 Z"/>
 <path fill="rgb(75,31,111)" stroke="none" d="M 18990,7606 L 19674,7606 19674,5348 18990,5348 18990,7606 Z"/>
 <path fill="rgb(75,31,111)" stroke="none" d="M 16255,12372 L 16939,12372 16939,6999 16255,6999 16255,12372 Z"/>
 <path fill="rgb(75,31,111)" stroke="none" d="M 13520,12399 L 14204,12399 14204,12216 13520,12216 13520,12399 Z"/>
 <path fill="rgb(75,31,111)" stroke="none" d="M 12153,6781 L 12837,6781 12837,3091 12153,3091 12153,6781 Z"/>
 <path fill="rgb(75,31,111)" stroke="none" d="M 10785,7572 L 11469,7572 11469,5463 10785,5463 10785,7572 Z"/>
 <path fill="rgb(75,31,111)" stroke="none" d="M 9418,7183 L 10102,7183 10102,6942 9418,6942 9418,7183 Z"/>
 <path fill="rgb(75,31,111)" stroke="none" d="M 6683,19699 L 7367,19699 7367,19699 6683,19699 Z"/>
 <path fill="rgb(75,31,111)" stroke="none" d="M 5316,6923 L 5999,6923 5999,4368 5316,4368 5316,6923 Z"/>
 <path fill="rgb(75,31,111)" stroke="none" d="M 3948,3845 L 4632,3845 4632,3091 3948,3091 3948,3845 Z"/>
 <path fill="rgb(255,149,14)" stroke="none" d="M 42235,8446 L 42919,8446 42919,3091 42235,3091 42235,8446 Z"/>
 <path fill="rgb(255,149,14)" stroke="none" d="M 34030,7196 L 34714,7196 34714,3091 34030,3091 34030,7196 Z"/>
 <path fill="rgb(255,149,14)" stroke="none" d="M 32663,9260 L 33347,9260 33347,3091 32663,3091 32663,9260 Z"/>
 <path fill="rgb(255,149,14)" stroke="none" d="M 29928,8138 L 30612,8138 30612,3091 29928,3091 29928,8138 Z"/>
 <path fill="rgb(255,149,14)" stroke="none" d="M 28561,9479 L 29245,9479 29245,3091 28561,3091 28561,9479 Z"/>
 <path fill="rgb(255,149,14)" stroke="none" d="M 27193,5582 L 27877,5582 27877,3091 27193,3091 27193,5582 Z"/>
 <path fill="rgb(255,149,14)" stroke="none" d="M 25826,7811 L 26510,7811 26510,3091 25826,3091 25826,7811 Z"/>
 <path fill="rgb(255,149,14)" stroke="none" d="M 23092,19699 L 23776,19699 23776,19699 23092,19699 Z"/>
 <path fill="rgb(255,149,14)" stroke="none" d="M 20357,4751 L 21041,4751 21041,3091 20357,3091 20357,4751 Z"/>
 <path fill="rgb(255,149,14)" stroke="none" d="M 18990,5348 L 19674,5348 19674,3091 18990,3091 18990,5348 Z"/>
 <path fill="rgb(255,149,14)" stroke="none" d="M 16255,6999 L 16939,6999 16939,3091 16255,3091 16255,6999 Z"/>
 <path fill="rgb(255,149,14)" stroke="none" d="M 14888,13885 L 15571,13885 15571,3091 14888,3091 14888,13885 Z"/>
 <path fill="rgb(255,149,14)" stroke="none" d="M 13520,12216 L 14204,12216 14204,3091 13520,3091 13520,12216 Z"/>
 <path fill="rgb(255,149,14)" stroke="none" d="M 10785,5463 L 11469,5463 11469,3091 10785,3091 10785,5463 Z"/>
 <path fill="rgb(255,149,14)" stroke="none" d="M 9418,6942 L 10102,6942 10102,3091 9418,3091 9418,6942 Z"/>
 <path fill="rgb(255,149,14)" stroke="none" d="M 6683,19699 L 7367,19699 7367,19699 6683,19699 Z"/>
 <path fill="rgb(255,149,14)" stroke="none" d="M 5316,4368 L 5999,4368 5999,3091 5316,3091 5316,4368 Z"/>
 <text class="TextShape" transform="rotate(-44.9 2183 22364)"><tspan class="TextParagraph" font-family="Liberation Sans, sans-serif" font-size="353px" font-weight="400"><tspan class="TextPosition" x="2183" y="22364"><tspan fill="rgb(0,0,0)" stroke="none">Anopheles_gambiae</tspan></tspan></tspan></text>
 <text class="TextShape" transform="rotate(-44.9 3496 22420)"><tspan class="TextParagraph" font-family="Liberation Sans, sans-serif" font-size="353px" font-weight="400"><tspan class="TextPosition" x="3496" y="22420"><tspan fill="rgb(0,0,0)" stroke="none">Arabidopsis_thaliana</tspan></tspan></tspan></text>
 <text class="TextShape" transform="rotate(-44.9 4788 22494)"><tspan class="TextParagraph" font-family="Liberation Sans, sans-serif" font-size="353px" font-weight="400"><tspan class="TextPosition" x="4788" y="22494"><tspan fill="rgb(0,0,0)" stroke="none">Asparagus_officinalis</tspan></tspan></tspan></text>
 <text class="TextShape" transform="rotate(-44.9 6080 22570)"><tspan class="TextParagraph" font-family="Liberation Sans, sans-serif" font-size="353px" font-weight="400"><tspan class="TextPosition" x="6080" y="22570"><tspan fill="rgb(0,0,0)" stroke="none">Aspergillus_fumigatus</tspan></tspan></tspan></text>
 <text class="TextShape" transform="rotate(-44.9 8609 21409)"><tspan class="TextParagraph" font-family="Liberation Sans, sans-serif" font-size="353px" font-weight="400"><tspan class="TextPosition" x="8609" y="21409"><tspan fill="rgb(0,0,0)" stroke="none">Bos_taurus</tspan></tspan></tspan></text>
 <text class="TextShape" transform="rotate(-44.9 8628 22756)"><tspan class="TextParagraph" font-family="Liberation Sans, sans-serif" font-size="353px" font-weight="400"><tspan class="TextPosition" x="8628" y="22756"><tspan fill="rgb(0,0,0)" stroke="none">Caenorhabditis_elegans</tspan></tspan></tspan></text>
 <text class="TextShape" transform="rotate(-44.9 10594 22158)"><tspan class="TextParagraph" font-family="Liberation Sans, sans-serif" font-size="353px" font-weight="400"><tspan class="TextPosition" x="10594" y="22158"><tspan fill="rgb(0,0,0)" stroke="none">Candida_tropicalis</tspan></tspan></tspan></text>
 <text class="TextShape" transform="rotate(-44.9 12616 21504)"><tspan class="TextParagraph" font-family="Liberation Sans, sans-serif" font-size="353px" font-weight="400"><tspan class="TextPosition" x="12616" y="21504"><tspan fill="rgb(0,0,0)" stroke="none">Canis_lupus</tspan></tspan></tspan></text>
 <text class="TextShape" transform="rotate(-44.9 13293 22195)"><tspan class="TextParagraph" font-family="Liberation Sans, sans-serif" font-size="353px" font-weight="400"><tspan class="TextPosition" x="13293" y="22195"><tspan fill="rgb(0,0,0)" stroke="none">Chlorella_variabilis</tspan></tspan></tspan></text>
 <text class="TextShape" transform="rotate(-44.9 14771 22083)"><tspan class="TextParagraph" font-family="Liberation Sans, sans-serif" font-size="353px" font-weight="400"><tspan class="TextPosition" x="14771" y="22083"><tspan fill="rgb(0,0,0)" stroke="none">Ciona_intestinalis</tspan></tspan></tspan></text>
 <text class="TextShape" transform="rotate(-44.9 15109 23112)"><tspan class="TextParagraph" font-family="Liberation Sans, sans-serif" font-size="353px" font-weight="400"><tspan class="TextPosition" x="15109" y="23112"><tspan fill="rgb(0,0,0)" stroke="none">Cryptococcus_amylolentus</tspan></tspan></tspan></text>
 <text class="TextShape" transform="rotate(-44.9 18199 21390)"><tspan class="TextParagraph" font-family="Liberation Sans, sans-serif" font-size="353px" font-weight="400"><tspan class="TextPosition" x="18199" y="21390"><tspan fill="rgb(0,0,0)" stroke="none">Danio_rerio</tspan></tspan></tspan></text>
 <text class="TextShape" transform="rotate(-44.9 18050 22906)"><tspan class="TextParagraph" font-family="Liberation Sans, sans-serif" font-size="353px" font-weight="400"><tspan class="TextPosition" x="18050" y="22906"><tspan fill="rgb(0,0,0)" stroke="none">Drosophila_melanogaster</tspan></tspan></tspan></text>
 <text class="TextShape" transform="rotate(-44.9 20018 22307)"><tspan class="TextParagraph" font-family="Liberation Sans, sans-serif" font-size="353px" font-weight="400"><tspan class="TextPosition" x="20018" y="22307"><tspan fill="rgb(0,0,0)" stroke="none">Eucalyptus_grandis</tspan></tspan></tspan></text>
 <text class="TextShape" transform="rotate(-44.9 21217 22475)"><tspan class="TextParagraph" font-family="Liberation Sans, sans-serif" font-size="353px" font-weight="400"><tspan class="TextPosition" x="21217" y="22475"><tspan fill="rgb(0,0,0)" stroke="none">Exophiala_mesophila</tspan></tspan></tspan></text>
 <text class="TextShape" transform="rotate(-44.9 22545 22513)"><tspan class="TextParagraph" font-family="Liberation Sans, sans-serif" font-size="353px" font-weight="400"><tspan class="TextPosition" x="22545" y="22513"><tspan fill="rgb(0,0,0)" stroke="none">Fusarium_oxysporum</tspan></tspan></tspan></text>
 <text class="TextShape" transform="rotate(-44.9 24792 21634)"><tspan class="TextParagraph" font-family="Liberation Sans, sans-serif" font-size="353px" font-weight="400"><tspan class="TextPosition" x="24792" y="21634"><tspan fill="rgb(0,0,0)" stroke="none">Gallus_gallus</tspan></tspan></tspan></text>
 <text class="TextShape" transform="rotate(-44.9 26217 21577)"><tspan class="TextParagraph" font-family="Liberation Sans, sans-serif" font-size="353px" font-weight="400"><tspan class="TextPosition" x="26217" y="21577"><tspan fill="rgb(0,0,0)" stroke="none">Glycine_soja</tspan></tspan></tspan></text>
 <text class="TextShape" transform="rotate(-44.9 27378 21784)"><tspan class="TextParagraph" font-family="Liberation Sans, sans-serif" font-size="353px" font-weight="400"><tspan class="TextPosition" x="27378" y="21784"><tspan fill="rgb(0,0,0)" stroke="none">Homo_sapiens</tspan></tspan></tspan></text>
 <text class="TextShape" transform="rotate(-44.9 28708 21820)"><tspan class="TextParagraph" font-family="Liberation Sans, sans-serif" font-size="353px" font-weight="400"><tspan class="TextPosition" x="28708" y="21820"><tspan fill="rgb(0,0,0)" stroke="none">Mus_musculus</tspan></tspan></tspan></text>
 <text class="TextShape" transform="rotate(-44.9 29644 22252)"><tspan class="TextParagraph" font-family="Liberation Sans, sans-serif" font-size="353px" font-weight="400"><tspan class="TextPosition" x="29644" y="22252"><tspan fill="rgb(0,0,0)" stroke="none">Nicotiana_tabacum</tspan></tspan></tspan></text>
 <text class="TextShape" transform="rotate(-44.9 31648 21615)"><tspan class="TextParagraph" font-family="Liberation Sans, sans-serif" font-size="353px" font-weight="400"><tspan class="TextPosition" x="31648" y="21615"><tspan fill="rgb(0,0,0)" stroke="none">Oryza_sativa</tspan></tspan></tspan></text>
 <text class="TextShape" transform="rotate(-44.9 32697 21933)"><tspan class="TextParagraph" font-family="Liberation Sans, sans-serif" font-size="353px" font-weight="400"><tspan class="TextPosition" x="32697" y="21933"><tspan fill="rgb(0,0,0)" stroke="none">Pan_troglodytes</tspan></tspan></tspan></text>
 <text class="TextShape" transform="rotate(-44.9 33840 22158)"><tspan class="TextParagraph" font-family="Liberation Sans, sans-serif" font-size="353px" font-weight="400"><tspan class="TextPosition" x="33840" y="22158"><tspan fill="rgb(0,0,0)" stroke="none">Puccinia_graminis</tspan></tspan></tspan></text>
 <text class="TextShape" transform="rotate(-44.9 34197 23168)"><tspan class="TextParagraph" font-family="Liberation Sans, sans-serif" font-size="353px" font-weight="400"><tspan class="TextPosition" x="34197" y="23168"><tspan fill="rgb(0,0,0)" stroke="none">Saccharomyces_cerevisiae</tspan></tspan></tspan></text>
 <text class="TextShape" transform="rotate(-44.9 35958 22775)"><tspan class="TextParagraph" font-family="Liberation Sans, sans-serif" font-size="353px" font-weight="400"><tspan class="TextPosition" x="35958" y="22775"><tspan fill="rgb(0,0,0)" stroke="none">Sclerotinia_sclerotiorum</tspan></tspan></tspan></text>
 <text class="TextShape" transform="rotate(-44.9 37399 22700)"><tspan class="TextParagraph" font-family="Liberation Sans, sans-serif" font-size="353px" font-weight="400"><tspan class="TextPosition" x="37399" y="22700"><tspan fill="rgb(0,0,0)" stroke="none">Talaromyces_stipitatus</tspan></tspan></tspan></text>
 <text class="TextShape" transform="rotate(-44.9 38972 22494)"><tspan class="TextParagraph" font-family="Liberation Sans, sans-serif" font-size="353px" font-weight="400"><tspan class="TextPosition" x="38972" y="22494"><tspan fill="rgb(0,0,0)" stroke="none">Verruconis_gallopava</tspan></tspan></tspan></text>
 <text class="TextShape" transform="rotate(-44.9 40602 22232)"><tspan class="TextParagraph" font-family="Liberation Sans, sans-serif" font-size="353px" font-weight="400"><tspan class="TextPosition" x="40602" y="22232"><tspan fill="rgb(0,0,0)" stroke="none">Xenopus_tropicalis</tspan></tspan></tspan></text>
 <text class="TextShape"><tspan class="TextParagraph" font-family="Liberation Sans, sans-serif" font-size="353px" font-weight="400"><tspan class="TextPosition" x="2854" y="19820"><tspan fill="rgb(0,0,0)" stroke="none">0%</tspan></tspan></tspan></text>
 <text class="TextShape"><tspan class="TextParagraph" font-family="Liberation Sans, sans-serif" font-size="353px" font-weight="400"><tspan class="TextPosition" x="2669" y="18159"><tspan fill="rgb(0,0,0)" stroke="none">10%</tspan></tspan></tspan></text>
 <text class="TextShape"><tspan class="TextParagraph" font-family="Liberation Sans, sans-serif" font-size="353px" font-weight="400"><tspan class="TextPosition" x="2669" y="16498"><tspan fill="rgb(0,0,0)" stroke="none">20%</tspan></tspan></tspan></text>
 <text class="TextShape"><tspan class="TextParagraph" font-family="Liberation Sans, sans-serif" font-size="353px" font-weight="400"><tspan class="TextPosition" x="2669" y="14837"><tspan fill="rgb(0,0,0)" stroke="none">30%</tspan></tspan></tspan></text>
 <text class="TextShape"><tspan class="TextParagraph" font-family="Liberation Sans, sans-serif" font-size="353px" font-weight="400"><tspan class="TextPosition" x="2669" y="13176"><tspan fill="rgb(0,0,0)" stroke="none">40%</tspan></tspan></tspan></text>
 <text class="TextShape"><tspan class="TextParagraph" font-family="Liberation Sans, sans-serif" font-size="353px" font-weight="400"><tspan class="TextPosition" x="2669" y="11515"><tspan fill="rgb(0,0,0)" stroke="none">50%</tspan></tspan></tspan></text>
 <text class="TextShape"><tspan class="TextParagraph" font-family="Liberation Sans, sans-serif" font-size="353px" font-weight="400"><tspan class="TextPosition" x="2669" y="9854"><tspan fill="rgb(0,0,0)" stroke="none">60%</tspan></tspan></tspan></text>
 <text class="TextShape"><tspan class="TextParagraph" font-family="Liberation Sans, sans-serif" font-size="353px" font-weight="400"><tspan class="TextPosition" x="2669" y="8193"><tspan fill="rgb(0,0,0)" stroke="none">70%</tspan></tspan></tspan></text>
 <text class="TextShape"><tspan class="TextParagraph" font-family="Liberation Sans, sans-serif" font-size="353px" font-weight="400"><tspan class="TextPosition" x="2669" y="6532"><tspan fill="rgb(0,0,0)" stroke="none">80%</tspan></tspan></tspan></text>
 <text class="TextShape"><tspan class="TextParagraph" font-family="Liberation Sans, sans-serif" font-size="353px" font-weight="400"><tspan class="TextPosition" x="2669" y="4871"><tspan fill="rgb(0,0,0)" stroke="none">90%</tspan></tspan></tspan></text>
 <text class="TextShape"><tspan class="TextParagraph" font-family="Liberation Sans, sans-serif" font-size="353px" font-weight="400"><tspan class="TextPosition" x="2484" y="3211"><tspan fill="rgb(0,0,0)" stroke="none">100%</tspan></tspan></tspan></text>
 <text class="TextShape"><tspan class="TextParagraph" font-family="Liberation Sans, sans-serif" font-size="459px" font-weight="400"><tspan class="TextPosition" x="17646" y="1169"><tspan fill="rgb(0,0,0)" stroke="none">Eukariota FrameShift Structural Repeat Distribution in Organism</tspan></tspan></tspan></text>
 <text class="TextShape"><tspan class="TextParagraph" font-family="Liberation Sans, sans-serif" font-size="388px" font-weight="400"><tspan class="TextPosition" x="21681" y="2397"><tspan fill="rgb(0,0,0)" stroke="none">(Total 1283 repeat regions)</tspan></tspan></tspan></text>
 <path fill="rgb(0,69,134)" stroke="none" d="M 44442,14796 L 44336,14796 44336,14585 44547,14585 44547,14796 44442,14796 Z"/>
 <path fill="rgb(255,66,14)" stroke="none" d="M 44442,14298 L 44336,14298 44336,14087 44547,14087 44547,14298 44442,14298 Z"/>
 <path fill="rgb(255,211,32)" stroke="none" d="M 44442,13800 L 44336,13800 44336,13589 44547,13589 44547,13800 44442,13800 Z"/>
 <path fill="rgb(87,157,28)" stroke="none" d="M 44442,13302 L 44336,13302 44336,13091 44547,13091 44547,13302 44442,13302 Z"/>
 <path fill="rgb(126,0,33)" stroke="none" d="M 44442,12804 L 44336,12804 44336,12593 44547,12593 44547,12804 44442,12804 Z"/>
 <path fill="rgb(131,202,255)" stroke="none" d="M 44442,12307 L 44336,12307 44336,12096 44547,12096 44547,12307 44442,12307 Z"/>
 <path fill="rgb(49,64,4)" stroke="none" d="M 44442,11809 L 44336,11809 44336,11598 44547,11598 44547,11809 44442,11809 Z"/>
 <path fill="rgb(174,207,0)" stroke="none" d="M 44442,11311 L 44336,11311 44336,11100 44547,11100 44547,11311 44442,11311 Z"/>
 <path fill="rgb(75,31,111)" stroke="none" d="M 44442,10813 L 44336,10813 44336,10602 44547,10602 44547,10813 44442,10813 Z"/>
 <path fill="rgb(255,149,14)" stroke="none" d="M 44442,10315 L 44336,10315 44336,10104 44547,10104 44547,10315 44442,10315 Z"/>
 <text class="TextShape"><tspan class="TextParagraph" font-family="Liberation Sans, sans-serif" font-size="353px" font-weight="400"><tspan class="TextPosition" x="44647" y="10329"><tspan fill="rgb(0,0,0)" stroke="none">Zinc Finger</tspan></tspan></tspan></text>
 <text class="TextShape"><tspan class="TextParagraph" font-family="Liberation Sans, sans-serif" font-size="353px" font-weight="400"><tspan class="TextPosition" x="44647" y="10827"><tspan fill="rgb(0,0,0)" stroke="none">AlphaBeta Solenoid</tspan></tspan></tspan></text>
 <text class="TextShape"><tspan class="TextParagraph" font-family="Liberation Sans, sans-serif" font-size="353px" font-weight="400"><tspan class="TextPosition" x="44647" y="11325"><tspan fill="rgb(0,0,0)" stroke="none">Other Beads </tspan></tspan></tspan></text>
 <text class="TextShape"><tspan class="TextParagraph" font-family="Liberation Sans, sans-serif" font-size="353px" font-weight="400"><tspan class="TextPosition" x="44647" y="11823"><tspan fill="rgb(0,0,0)" stroke="none">Beta Propeller</tspan></tspan></tspan></text>
 <text class="TextShape"><tspan class="TextParagraph" font-family="Liberation Sans, sans-serif" font-size="353px" font-weight="400"><tspan class="TextPosition" x="44647" y="12321"><tspan fill="rgb(0,0,0)" stroke="none">Tim Barrel</tspan></tspan></tspan></text>
 <text class="TextShape"><tspan class="TextParagraph" font-family="Liberation Sans, sans-serif" font-size="353px" font-weight="400"><tspan class="TextPosition" x="44647" y="12818"><tspan fill="rgb(0,0,0)" stroke="none">Beta Barrel</tspan></tspan></tspan></text>
 <text class="TextShape"><tspan class="TextParagraph" font-family="Liberation Sans, sans-serif" font-size="353px" font-weight="400"><tspan class="TextPosition" x="44647" y="13316"><tspan fill="rgb(0,0,0)" stroke="none">Beta Solenoid</tspan></tspan></tspan></text>
 <text class="TextShape"><tspan class="TextParagraph" font-family="Liberation Sans, sans-serif" font-size="353px" font-weight="400"><tspan class="TextPosition" x="44647" y="13814"><tspan fill="rgb(0,0,0)" stroke="none">Other elongated St</tspan></tspan></tspan></text>
 <text class="TextShape"><tspan class="TextParagraph" font-family="Liberation Sans, sans-serif" font-size="353px" font-weight="400"><tspan class="TextPosition" x="44647" y="14312"><tspan fill="rgb(0,0,0)" stroke="none">Alpha Solenoids</tspan></tspan></tspan></text>
 <text class="TextShape"><tspan class="TextParagraph" font-family="Liberation Sans, sans-serif" font-size="353px" font-weight="400"><tspan class="TextPosition" x="44647" y="14810"><tspan fill="rgb(0,0,0)" stroke="none">Other closed St</tspan></tspan></tspan></text>
 <text class="TextShape"><tspan class="TextParagraph" font-family="Liberation Sans, sans-serif" font-size="318px" font-weight="400"><tspan class="TextPosition" x="21915" y="24308"><tspan fill="rgb(0,0,0)" stroke="none">Organism</tspan></tspan></tspan></text>
 <text class="TextShape" transform="rotate(-90 837 15718)"><tspan class="TextParagraph" font-family="Liberation Sans, sans-serif" font-size="318px" font-weight="400"><tspan class="TextPosition" x="837" y="15718"><tspan fill="rgb(0,0,0)" stroke="none">Percentage of repeat region found</tspan></tspan></tspan></text>
</svg>