<?xml version="1.0" encoding="UTF-8"?>
<!DOCTYPE svg PUBLIC "-//W3C//DTD SVG 1.1//EN" "http://www.w3.org/Graphics/SVG/1.1/DTD/svg11.dtd">
<svg width="353mm" height="199mm" viewBox="0 0 35300 19900" version="1.1" xmlns="http://www.w3.org/2000/svg" xmlns:xlink="http://www.w3.org/1999/xlink" stroke-width="28.222" stroke-linejoin="round" xml:space="preserve">
 <path fill="rgb(255,255,255)" stroke="none" d="M 17646,19850 L 0,19850 0,0 35292,0 35292,19850 17646,19850 Z"/>
 <path fill="none" stroke="rgb(179,179,179)" stroke-linejoin="round" d="M 16828,14225 L 2840,14225 2840,2789 30816,2789 30816,14225 16828,14225 Z"/>
 <path fill="none" stroke="rgb(179,179,179)" stroke-linejoin="round" d="M 30816,14224 L 2840,14224"/>
 <path fill="none" stroke="rgb(179,179,179)" stroke-linejoin="round" d="M 30816,13080 L 2840,13080"/>
 <path fill="none" stroke="rgb(179,179,179)" stroke-linejoin="round" d="M 30816,11936 L 2840,11936"/>
 <path fill="none" stroke="rgb(179,179,179)" stroke-linejoin="round" d="M 30816,10792 L 2840,10792"/>
 <path fill="none" stroke="rgb(179,179,179)" stroke-linejoin="round" d="M 30816,9650 L 2840,9650"/>
 <path fill="none" stroke="rgb(179,179,179)" stroke-linejoin="round" d="M 30816,8506 L 2840,8506"/>
 <path fill="none" stroke="rgb(179,179,179)" stroke-linejoin="round" d="M 30816,7362 L 2840,7362"/>
 <path fill="none" stroke="rgb(179,179,179)" stroke-linejoin="round" d="M 30816,6219 L 2840,6219"/>
 <path fill="none" stroke="rgb(179,179,179)" stroke-linejoin="round" d="M 30816,5075 L 2840,5075"/>
 <path fill="none" stroke="rgb(179,179,179)" stroke-linejoin="round" d="M 30816,3931 L 2840,3931"/>
 <path fill="none" stroke="rgb(179,179,179)" stroke-linejoin="round" d="M 30816,2788 L 2840,2788"/>
 <path fill="none" stroke="rgb(179,179,179)" stroke-linejoin="round" d="M 2840,14374 L 2840,14224"/>
 <path fill="none" stroke="rgb(179,179,179)" stroke-linejoin="round" d="M 2840,14374 L 2840,14224"/>
 <path fill="none" stroke="rgb(179,179,179)" stroke-linejoin="round" d="M 6836,14374 L 6836,14224"/>
 <path fill="none" stroke="rgb(179,179,179)" stroke-linejoin="round" d="M 6836,14374 L 6836,14224"/>
 <path fill="none" stroke="rgb(179,179,179)" stroke-linejoin="round" d="M 10833,14374 L 10833,14224"/>
 <path fill="none" stroke="rgb(179,179,179)" stroke-linejoin="round" d="M 10833,14374 L 10833,14224"/>
 <path fill="none" stroke="rgb(179,179,179)" stroke-linejoin="round" d="M 14830,14374 L 14830,14224"/>
 <path fill="none" stroke="rgb(179,179,179)" stroke-linejoin="round" d="M 14830,14374 L 14830,14224"/>
 <path fill="none" stroke="rgb(179,179,179)" stroke-linejoin="round" d="M 18825,14374 L 18825,14224"/>
 <path fill="none" stroke="rgb(179,179,179)" stroke-linejoin="round" d="M 18825,14374 L 18825,14224"/>
 <path fill="none" stroke="rgb(179,179,179)" stroke-linejoin="round" d="M 22822,14374 L 22822,14224"/>
 <path fill="none" stroke="rgb(179,179,179)" stroke-linejoin="round" d="M 22822,14374 L 22822,14224"/>
 <path fill="none" stroke="rgb(179,179,179)" stroke-linejoin="round" d="M 26819,14374 L 26819,14224"/>
 <path fill="none" stroke="rgb(179,179,179)" stroke-linejoin="round" d="M 26819,14374 L 26819,14224"/>
 <path fill="none" stroke="rgb(179,179,179)" stroke-linejoin="round" d="M 30816,14374 L 30816,14224"/>
 <path fill="none" stroke="rgb(179,179,179)" stroke-linejoin="round" d="M 30816,14374 L 30816,14224"/>
 <path fill="none" stroke="rgb(179,179,179)" stroke-linejoin="round" d="M 2840,14224 L 30816,14224"/>
 <path fill="none" stroke="rgb(179,179,179)" stroke-linejoin="round" d="M 2690,14224 L 2840,14224"/>
 <path fill="none" stroke="rgb(179,179,179)" stroke-linejoin="round" d="M 2690,14224 L 2840,14224"/>
 <path fill="none" stroke="rgb(179,179,179)" stroke-linejoin="round" d="M 2690,13080 L 2840,13080"/>
 <path fill="none" stroke="rgb(179,179,179)" stroke-linejoin="round" d="M 2690,13080 L 2840,13080"/>
 <path fill="none" stroke="rgb(179,179,179)" stroke-linejoin="round" d="M 2690,11936 L 2840,11936"/>
 <path fill="none" stroke="rgb(179,179,179)" stroke-linejoin="round" d="M 2690,11936 L 2840,11936"/>
 <path fill="none" stroke="rgb(179,179,179)" stroke-linejoin="round" d="M 2690,10792 L 2840,10792"/>
 <path fill="none" stroke="rgb(179,179,179)" stroke-linejoin="round" d="M 2690,10792 L 2840,10792"/>
 <path fill="none" stroke="rgb(179,179,179)" stroke-linejoin="round" d="M 2690,9650 L 2840,9650"/>
 <path fill="none" stroke="rgb(179,179,179)" stroke-linejoin="round" d="M 2690,9650 L 2840,9650"/>
 <path fill="none" stroke="rgb(179,179,179)" stroke-linejoin="round" d="M 2690,8506 L 2840,8506"/>
 <path fill="none" stroke="rgb(179,179,179)" stroke-linejoin="round" d="M 2690,8506 L 2840,8506"/>
 <path fill="none" stroke="rgb(179,179,179)" stroke-linejoin="round" d="M 2690,7362 L 2840,7362"/>
 <path fill="none" stroke="rgb(179,179,179)" stroke-linejoin="round" d="M 2690,7362 L 2840,7362"/>
 <path fill="none" stroke="rgb(179,179,179)" stroke-linejoin="round" d="M 2690,6219 L 2840,6219"/>
 <path fill="none" stroke="rgb(179,179,179)" stroke-linejoin="round" d="M 2690,6219 L 2840,6219"/>
 <path fill="none" stroke="rgb(179,179,179)" stroke-linejoin="round" d="M 2690,5075 L 2840,5075"/>
 <path fill="none" stroke="rgb(179,179,179)" stroke-linejoin="round" d="M 2690,5075 L 2840,5075"/>
 <path fill="none" stroke="rgb(179,179,179)" stroke-linejoin="round" d="M 2690,3931 L 2840,3931"/>
 <path fill="none" stroke="rgb(179,179,179)" stroke-linejoin="round" d="M 2690,3931 L 2840,3931"/>
 <path fill="none" stroke="rgb(179,179,179)" stroke-linejoin="round" d="M 2690,2788 L 2840,2788"/>
 <path fill="none" stroke="rgb(179,179,179)" stroke-linejoin="round" d="M 2690,2788 L 2840,2788"/>
 <path fill="none" stroke="rgb(179,179,179)" stroke-linejoin="round" d="M 2840,14224 L 2840,2788"/>
 <path fill="rgb(0,69,134)" stroke="none" d="M 27818,14224 L 29816,14224 29816,12664 27818,12664 27818,14224 Z"/>
 <path fill="rgb(0,69,134)" stroke="none" d="M 23821,14224 L 25820,14224 25820,13020 23821,13020 23821,14224 Z"/>
 <path fill="rgb(0,69,134)" stroke="none" d="M 19825,14224 L 21823,14224 21823,13296 19825,13296 19825,14224 Z"/>
 <path fill="rgb(0,69,134)" stroke="none" d="M 15829,14224 L 17826,14224 17826,13486 15829,13486 15829,14224 Z"/>
 <path fill="rgb(0,69,134)" stroke="none" d="M 11832,14224 L 13830,14224 13830,11773 11832,11773 11832,14224 Z"/>
 <path fill="rgb(0,69,134)" stroke="none" d="M 7835,14224 L 9834,14224 9834,13588 7835,13588 7835,14224 Z"/>
 <path fill="rgb(0,69,134)" stroke="none" d="M 3839,14224 L 5837,14224 5837,13270 3839,13270 3839,14224 Z"/>
 <path fill="rgb(255,66,14)" stroke="none" d="M 27818,12664 L 29816,12664 29816,11104 27818,11104 27818,12664 Z"/>
 <path fill="rgb(255,66,14)" stroke="none" d="M 23821,13020 L 25820,13020 25820,8807 23821,8807 23821,13020 Z"/>
 <path fill="rgb(255,66,14)" stroke="none" d="M 19825,13296 L 21823,13296 21823,12987 19825,12987 19825,13296 Z"/>
 <path fill="rgb(255,66,14)" stroke="none" d="M 15829,13486 L 17826,13486 17826,10165 15829,10165 15829,13486 Z"/>
 <path fill="rgb(255,66,14)" stroke="none" d="M 7835,13588 L 9834,13588 9834,12953 7835,12953 7835,13588 Z"/>
 <path fill="rgb(255,66,14)" stroke="none" d="M 3839,13270 L 5837,13270 5837,12794 3839,12794 3839,13270 Z"/>
 <path fill="rgb(255,211,32)" stroke="none" d="M 27818,11104 L 29816,11104 29816,10065 27818,10065 27818,11104 Z"/>
 <path fill="rgb(255,211,32)" stroke="none" d="M 23821,8807 L 25820,8807 25820,7001 23821,7001 23821,8807 Z"/>
 <path fill="rgb(255,211,32)" stroke="none" d="M 19825,12987 L 21823,12987 21823,12369 19825,12369 19825,12987 Z"/>
 <path fill="rgb(255,211,32)" stroke="none" d="M 15829,10165 L 17826,10165 17826,9797 15829,9797 15829,10165 Z"/>
 <path fill="rgb(255,211,32)" stroke="none" d="M 11832,11773 L 13830,11773 13830,10956 11832,10956 11832,11773 Z"/>
 <path fill="rgb(255,211,32)" stroke="none" d="M 7835,12953 L 9834,12953 9834,11682 7835,11682 7835,12953 Z"/>
 <path fill="rgb(255,211,32)" stroke="none" d="M 3839,12794 L 5837,12794 5837,12317 3839,12317 3839,12794 Z"/>
 <path fill="rgb(87,157,28)" stroke="none" d="M 27818,10065 L 29816,10065 29816,9546 27818,9546 27818,10065 Z"/>
 <path fill="rgb(87,157,28)" stroke="none" d="M 19825,12369 L 21823,12369 21823,11132 19825,11132 19825,12369 Z"/>
 <path fill="rgb(87,157,28)" stroke="none" d="M 15829,9797 L 17826,9797 17826,9428 15829,9428 15829,9797 Z"/>
 <path fill="rgb(87,157,28)" stroke="none" d="M 11832,10956 L 13830,10956 13830,7689 11832,7689 11832,10956 Z"/>
 <path fill="rgb(87,157,28)" stroke="none" d="M 7835,11682 L 9834,11682 9834,11047 7835,11047 7835,11682 Z"/>
 <path fill="rgb(87,157,28)" stroke="none" d="M 3839,12317 L 5837,12317 5837,11841 3839,11841 3839,12317 Z"/>
 <path fill="rgb(131,202,255)" stroke="none" d="M 27818,9546 L 29816,9546 29816,4347 27818,4347 27818,9546 Z"/>
 <path fill="rgb(131,202,255)" stroke="none" d="M 23821,7001 L 25820,7001 25820,3991 23821,3991 23821,7001 Z"/>
 <path fill="rgb(131,202,255)" stroke="none" d="M 19825,11132 L 21823,11132 21823,5569 19825,5569 19825,11132 Z"/>
 <path fill="rgb(131,202,255)" stroke="none" d="M 15829,9428 L 17826,9428 17826,3156 15829,3156 15829,9428 Z"/>
 <path fill="rgb(131,202,255)" stroke="none" d="M 11832,7689 L 13830,7689 13830,3604 11832,3604 11832,7689 Z"/>
 <path fill="rgb(131,202,255)" stroke="none" d="M 7835,11047 L 9834,11047 9834,5329 7835,5329 7835,11047 Z"/>
 <path fill="rgb(131,202,255)" stroke="none" d="M 3839,11841 L 5837,11841 5837,3741 3839,3741 3839,11841 Z"/>
 <path fill="rgb(49,64,4)" stroke="none" d="M 27818,4347 L 29816,4347 29816,2788 27818,2788 27818,4347 Z"/>
 <path fill="rgb(49,64,4)" stroke="none" d="M 23821,3991 L 25820,3991 25820,2788 23821,2788 23821,3991 Z"/>
 <path fill="rgb(49,64,4)" stroke="none" d="M 19825,5569 L 21823,5569 21823,2788 19825,2788 19825,5569 Z"/>
 <path fill="rgb(49,64,4)" stroke="none" d="M 15829,3156 L 17826,3156 17826,2788 15829,2788 15829,3156 Z"/>
 <path fill="rgb(49,64,4)" stroke="none" d="M 11832,3604 L 13830,3604 13830,2788 11832,2788 11832,3604 Z"/>
 <path fill="rgb(49,64,4)" stroke="none" d="M 7835,5329 L 9834,5329 9834,2788 7835,2788 7835,5329 Z"/>
 <path fill="rgb(49,64,4)" stroke="none" d="M 3839,3741 L 5837,3741 5837,2788 3839,2788 3839,3741 Z"/>
 <text class="TextShape" transform="rotate(-44.9 2339 17281)"><tspan class="TextParagraph" font-family="Liberation Sans, sans-serif" font-size="353px" font-weight="400"><tspan class="TextPosition" x="2339" y="17281"><tspan fill="rgb(0,0,0)" stroke="none">Archaeoglobus_fulgidus</tspan></tspan></tspan></text>
 <text class="TextShape" transform="rotate(-44.9 6186 17431)"><tspan class="TextParagraph" font-family="Liberation Sans, sans-serif" font-size="353px" font-weight="400"><tspan class="TextPosition" x="6186" y="17431"><tspan fill="rgb(0,0,0)" stroke="none">Halobacterium_salinarum</tspan></tspan></tspan></text>
 <text class="TextShape" transform="rotate(-44.9 10145 17469)"><tspan class="TextParagraph" font-family="Liberation Sans, sans-serif" font-size="353px" font-weight="400"><tspan class="TextPosition" x="10145" y="17469"><tspan fill="rgb(0,0,0)" stroke="none">Korarchaeum_cryptofilum</tspan></tspan></tspan></text>
 <text class="TextShape" transform="rotate(-44.9 13394 18217)"><tspan class="TextParagraph" font-family="Liberation Sans, sans-serif" font-size="353px" font-weight="400"><tspan class="TextPosition" x="13394" y="18217"><tspan fill="rgb(0,0,0)" stroke="none">Methanocaldococcus_jannaschii</tspan></tspan></tspan></text>
 <text class="TextShape" transform="rotate(-44.9 17802 17805)"><tspan class="TextParagraph" font-family="Liberation Sans, sans-serif" font-size="353px" font-weight="400"><tspan class="TextPosition" x="17802" y="17805"><tspan fill="rgb(0,0,0)" stroke="none">Methanosarcina_acetivorans</tspan></tspan></tspan></text>
 <text class="TextShape" transform="rotate(-44.9 21910 17693)"><tspan class="TextParagraph" font-family="Liberation Sans, sans-serif" font-size="353px" font-weight="400"><tspan class="TextPosition" x="21910" y="17693"><tspan fill="rgb(0,0,0)" stroke="none">Saccharolobus_solfataricus</tspan></tspan></tspan></text>
 <text class="TextShape" transform="rotate(-44.9 25720 17879)"><tspan class="TextParagraph" font-family="Liberation Sans, sans-serif" font-size="353px" font-weight="400"><tspan class="TextPosition" x="25720" y="17879"><tspan fill="rgb(0,0,0)" stroke="none">Thermococcus_kodakarensis</tspan></tspan></tspan></text>
 <text class="TextShape"><tspan class="TextParagraph" font-family="Liberation Sans, sans-serif" font-size="353px" font-weight="400"><tspan class="TextPosition" x="2087" y="14345"><tspan fill="rgb(0,0,0)" stroke="none">0%</tspan></tspan></tspan></text>
 <text class="TextShape"><tspan class="TextParagraph" font-family="Liberation Sans, sans-serif" font-size="353px" font-weight="400"><tspan class="TextPosition" x="1902" y="13201"><tspan fill="rgb(0,0,0)" stroke="none">10%</tspan></tspan></tspan></text>
 <text class="TextShape"><tspan class="TextParagraph" font-family="Liberation Sans, sans-serif" font-size="353px" font-weight="400"><tspan class="TextPosition" x="1902" y="12057"><tspan fill="rgb(0,0,0)" stroke="none">20%</tspan></tspan></tspan></text>
 <text class="TextShape"><tspan class="TextParagraph" font-family="Liberation Sans, sans-serif" font-size="353px" font-weight="400"><tspan class="TextPosition" x="1902" y="10913"><tspan fill="rgb(0,0,0)" stroke="none">30%</tspan></tspan></tspan></text>
 <text class="TextShape"><tspan class="TextParagraph" font-family="Liberation Sans, sans-serif" font-size="353px" font-weight="400"><tspan class="TextPosition" x="1902" y="9770"><tspan fill="rgb(0,0,0)" stroke="none">40%</tspan></tspan></tspan></text>
 <text class="TextShape"><tspan class="TextParagraph" font-family="Liberation Sans, sans-serif" font-size="353px" font-weight="400"><tspan class="TextPosition" x="1902" y="8626"><tspan fill="rgb(0,0,0)" stroke="none">50%</tspan></tspan></tspan></text>
 <text class="TextShape"><tspan class="TextParagraph" font-family="Liberation Sans, sans-serif" font-size="353px" font-weight="400"><tspan class="TextPosition" x="1902" y="7482"><tspan fill="rgb(0,0,0)" stroke="none">60%</tspan></tspan></tspan></text>
 <text class="TextShape"><tspan class="TextParagraph" font-family="Liberation Sans, sans-serif" font-size="353px" font-weight="400"><tspan class="TextPosition" x="1902" y="6339"><tspan fill="rgb(0,0,0)" stroke="none">70%</tspan></tspan></tspan></text>
 <text class="TextShape"><tspan class="TextParagraph" font-family="Liberation Sans, sans-serif" font-size="353px" font-weight="400"><tspan class="TextPosition" x="1902" y="5195"><tspan fill="rgb(0,0,0)" stroke="none">80%</tspan></tspan></tspan></text>
 <text class="TextShape"><tspan class="TextParagraph" font-family="Liberation Sans, sans-serif" font-size="353px" font-weight="400"><tspan class="TextPosition" x="1902" y="4051"><tspan fill="rgb(0,0,0)" stroke="none">90%</tspan></tspan></tspan></text>
 <text class="TextShape"><tspan class="TextParagraph" font-family="Liberation Sans, sans-serif" font-size="353px" font-weight="400"><tspan class="TextPosition" x="1717" y="2908"><tspan fill="rgb(0,0,0)" stroke="none">100%</tspan></tspan></tspan></text>
 <text class="TextShape"><tspan class="TextParagraph" font-family="Liberation Sans, sans-serif" font-size="459px" font-weight="400"><tspan class="TextPosition" x="11600" y="1068"><tspan fill="rgb(0,0,0)" stroke="none">Archea Reference Structural Repeat Distribution in Organism</tspan></tspan></tspan></text>
 <text class="TextShape"><tspan class="TextParagraph" font-family="Liberation Sans, sans-serif" font-size="388px" font-weight="400"><tspan class="TextPosition" x="15503" y="2195"><tspan fill="rgb(0,0,0)" stroke="none">(total 165 repeat regions)</tspan></tspan></tspan></text>
 <path fill="rgb(0,69,134)" stroke="none" d="M 31743,12270 L 31637,12270 31637,12059 31848,12059 31848,12270 31743,12270 Z"/>
 <path fill="rgb(255,66,14)" stroke="none" d="M 31743,11772 L 31637,11772 31637,11561 31848,11561 31848,11772 31743,11772 Z"/>
 <path fill="rgb(255,211,32)" stroke="none" d="M 31743,11274 L 31637,11274 31637,11063 31848,11063 31848,11274 31743,11274 Z"/>
 <path fill="rgb(87,157,28)" stroke="none" d="M 31743,10776 L 31637,10776 31637,10565 31848,10565 31848,10776 31743,10776 Z"/>
 <path fill="rgb(126,0,33)" stroke="none" d="M 31743,10278 L 31637,10278 31637,10067 31848,10067 31848,10278 31743,10278 Z"/>
 <path fill="rgb(131,202,255)" stroke="none" d="M 31743,9781 L 31637,9781 31637,9570 31848,9570 31848,9781 31743,9781 Z"/>
 <path fill="rgb(49,64,4)" stroke="none" d="M 31743,9283 L 31637,9283 31637,9072 31848,9072 31848,9283 31743,9283 Z"/>
 <path fill="rgb(174,207,0)" stroke="none" d="M 31743,8785 L 31637,8785 31637,8574 31848,8574 31848,8785 31743,8785 Z"/>
 <path fill="rgb(75,31,111)" stroke="none" d="M 31743,8287 L 31637,8287 31637,8076 31848,8076 31848,8287 31743,8287 Z"/>
 <path fill="rgb(255,149,14)" stroke="none" d="M 31743,7789 L 31637,7789 31637,7578 31848,7578 31848,7789 31743,7789 Z"/>
 <text class="TextShape"><tspan class="TextParagraph" font-family="Liberation Sans, sans-serif" font-size="353px" font-weight="400"><tspan class="TextPosition" x="31948" y="7803"><tspan fill="rgb(0,0,0)" stroke="none">Fab, light chain</tspan></tspan></tspan></text>
 <text class="TextShape"><tspan class="TextParagraph" font-family="Liberation Sans, sans-serif" font-size="353px" font-weight="400"><tspan class="TextPosition" x="31948" y="8301"><tspan fill="rgb(0,0,0)" stroke="none">AlphaBeta Solenoid</tspan></tspan></tspan></text>
 <text class="TextShape"><tspan class="TextParagraph" font-family="Liberation Sans, sans-serif" font-size="353px" font-weight="400"><tspan class="TextPosition" x="31948" y="8799"><tspan fill="rgb(0,0,0)" stroke="none">Other Beads </tspan></tspan></tspan></text>
 <text class="TextShape"><tspan class="TextParagraph" font-family="Liberation Sans, sans-serif" font-size="353px" font-weight="400"><tspan class="TextPosition" x="31948" y="9297"><tspan fill="rgb(0,0,0)" stroke="none">Beta Propeller</tspan></tspan></tspan></text>
 <text class="TextShape"><tspan class="TextParagraph" font-family="Liberation Sans, sans-serif" font-size="353px" font-weight="400"><tspan class="TextPosition" x="31948" y="9795"><tspan fill="rgb(0,0,0)" stroke="none">Tim Barrel</tspan></tspan></tspan></text>
 <text class="TextShape"><tspan class="TextParagraph" font-family="Liberation Sans, sans-serif" font-size="353px" font-weight="400"><tspan class="TextPosition" x="31948" y="10292"><tspan fill="rgb(0,0,0)" stroke="none">Beta Barrel</tspan></tspan></tspan></text>
 <text class="TextShape"><tspan class="TextParagraph" font-family="Liberation Sans, sans-serif" font-size="353px" font-weight="400"><tspan class="TextPosition" x="31948" y="10790"><tspan fill="rgb(0,0,0)" stroke="none">Beta Solenoid</tspan></tspan></tspan></text>
 <text class="TextShape"><tspan class="TextParagraph" font-family="Liberation Sans, sans-serif" font-size="353px" font-weight="400"><tspan class="TextPosition" x="31948" y="11288"><tspan fill="rgb(0,0,0)" stroke="none">Other elongated St</tspan></tspan></tspan></text>
 <text class="TextShape"><tspan class="TextParagraph" font-family="Liberation Sans, sans-serif" font-size="353px" font-weight="400"><tspan class="TextPosition" x="31948" y="11786"><tspan fill="rgb(0,0,0)" stroke="none">Alpha Solenoids</tspan></tspan></tspan></text>
 <text class="TextShape"><tspan class="TextParagraph" font-family="Liberation Sans, sans-serif" font-size="353px" font-weight="400"><tspan class="TextPosition" x="31948" y="12284"><tspan fill="rgb(0,0,0)" stroke="none">Other closed St</tspan></tspan></tspan></text>
 <text class="TextShape"><tspan class="TextParagraph" font-family="Liberation Sans, sans-serif" font-size="318px" font-weight="400"><tspan class="TextPosition" x="15565" y="19256"><tspan fill="rgb(0,0,0)" stroke="none">Organism</tspan></tspan></tspan></text>
 <text class="TextShape" transform="rotate(-90 837 13183)"><tspan class="TextParagraph" font-family="Liberation Sans, sans-serif" font-size="318px" font-weight="400"><tspan class="TextPosition" x="837" y="13183"><tspan fill="rgb(0,0,0)" stroke="none">Percentange of repeat region found</tspan></tspan></tspan></text>
</svg>