<?xml version="1.0" encoding="UTF-8"?>
<!DOCTYPE svg PUBLIC "-//W3C//DTD SVG 1.1//EN" "http://www.w3.org/Graphics/SVG/1.1/DTD/svg11.dtd">
<svg width="374mm" height="186mm" viewBox="0 0 37400 18600" version="1.1" xmlns="http://www.w3.org/2000/svg" xmlns:xlink="http://www.w3.org/1999/xlink" stroke-width="28.222" stroke-linejoin="round" xml:space="preserve">
 <path fill="rgb(255,255,255)" stroke="none" d="M 18709,18620 L 0,18620 0,0 37418,0 37418,18620 18709,18620 Z"/>
 <path fill="none" stroke="rgb(179,179,179)" stroke-linejoin="round" d="M 17891,13020 L 2883,13020 2883,2714 32899,2714 32899,13020 17891,13020 Z"/>
 <path fill="none" stroke="rgb(179,179,179)" stroke-linejoin="round" d="M 32899,13019 L 2883,13019"/>
 <path fill="none" stroke="rgb(179,179,179)" stroke-linejoin="round" d="M 32899,11988 L 2883,11988"/>
 <path fill="none" stroke="rgb(179,179,179)" stroke-linejoin="round" d="M 32899,10957 L 2883,10957"/>
 <path fill="none" stroke="rgb(179,179,179)" stroke-linejoin="round" d="M 32899,9926 L 2883,9926"/>
 <path fill="none" stroke="rgb(179,179,179)" stroke-linejoin="round" d="M 32899,8897 L 2883,8897"/>
 <path fill="none" stroke="rgb(179,179,179)" stroke-linejoin="round" d="M 32899,7866 L 2883,7866"/>
 <path fill="none" stroke="rgb(179,179,179)" stroke-linejoin="round" d="M 32899,6835 L 2883,6835"/>
 <path fill="none" stroke="rgb(179,179,179)" stroke-linejoin="round" d="M 32899,5805 L 2883,5805"/>
 <path fill="none" stroke="rgb(179,179,179)" stroke-linejoin="round" d="M 32899,4774 L 2883,4774"/>
 <path fill="none" stroke="rgb(179,179,179)" stroke-linejoin="round" d="M 32899,3743 L 2883,3743"/>
 <path fill="none" stroke="rgb(179,179,179)" stroke-linejoin="round" d="M 32899,2713 L 2883,2713"/>
 <path fill="none" stroke="rgb(179,179,179)" stroke-linejoin="round" d="M 2883,13169 L 2883,13019"/>
 <path fill="none" stroke="rgb(179,179,179)" stroke-linejoin="round" d="M 2883,13169 L 2883,13019"/>
 <path fill="none" stroke="rgb(179,179,179)" stroke-linejoin="round" d="M 7171,13169 L 7171,13019"/>
 <path fill="none" stroke="rgb(179,179,179)" stroke-linejoin="round" d="M 7171,13169 L 7171,13019"/>
 <path fill="none" stroke="rgb(179,179,179)" stroke-linejoin="round" d="M 11459,13169 L 11459,13019"/>
 <path fill="none" stroke="rgb(179,179,179)" stroke-linejoin="round" d="M 11459,13169 L 11459,13019"/>
 <path fill="none" stroke="rgb(179,179,179)" stroke-linejoin="round" d="M 15747,13169 L 15747,13019"/>
 <path fill="none" stroke="rgb(179,179,179)" stroke-linejoin="round" d="M 15747,13169 L 15747,13019"/>
 <path fill="none" stroke="rgb(179,179,179)" stroke-linejoin="round" d="M 20034,13169 L 20034,13019"/>
 <path fill="none" stroke="rgb(179,179,179)" stroke-linejoin="round" d="M 20034,13169 L 20034,13019"/>
 <path fill="none" stroke="rgb(179,179,179)" stroke-linejoin="round" d="M 24322,13169 L 24322,13019"/>
 <path fill="none" stroke="rgb(179,179,179)" stroke-linejoin="round" d="M 24322,13169 L 24322,13019"/>
 <path fill="none" stroke="rgb(179,179,179)" stroke-linejoin="round" d="M 28610,13169 L 28610,13019"/>
 <path fill="none" stroke="rgb(179,179,179)" stroke-linejoin="round" d="M 28610,13169 L 28610,13019"/>
 <path fill="none" stroke="rgb(179,179,179)" stroke-linejoin="round" d="M 32899,13169 L 32899,13019"/>
 <path fill="none" stroke="rgb(179,179,179)" stroke-linejoin="round" d="M 32899,13169 L 32899,13019"/>
 <path fill="none" stroke="rgb(179,179,179)" stroke-linejoin="round" d="M 2883,13019 L 32899,13019"/>
 <path fill="none" stroke="rgb(179,179,179)" stroke-linejoin="round" d="M 2733,13019 L 2883,13019"/>
 <path fill="none" stroke="rgb(179,179,179)" stroke-linejoin="round" d="M 2733,13019 L 2883,13019"/>
 <path fill="none" stroke="rgb(179,179,179)" stroke-linejoin="round" d="M 2733,11988 L 2883,11988"/>
 <path fill="none" stroke="rgb(179,179,179)" stroke-linejoin="round" d="M 2733,11988 L 2883,11988"/>
 <path fill="none" stroke="rgb(179,179,179)" stroke-linejoin="round" d="M 2733,10957 L 2883,10957"/>
 <path fill="none" stroke="rgb(179,179,179)" stroke-linejoin="round" d="M 2733,10957 L 2883,10957"/>
 <path fill="none" stroke="rgb(179,179,179)" stroke-linejoin="round" d="M 2733,9926 L 2883,9926"/>
 <path fill="none" stroke="rgb(179,179,179)" stroke-linejoin="round" d="M 2733,9926 L 2883,9926"/>
 <path fill="none" stroke="rgb(179,179,179)" stroke-linejoin="round" d="M 2733,8897 L 2883,8897"/>
 <path fill="none" stroke="rgb(179,179,179)" stroke-linejoin="round" d="M 2733,8897 L 2883,8897"/>
 <path fill="none" stroke="rgb(179,179,179)" stroke-linejoin="round" d="M 2733,7866 L 2883,7866"/>
 <path fill="none" stroke="rgb(179,179,179)" stroke-linejoin="round" d="M 2733,7866 L 2883,7866"/>
 <path fill="none" stroke="rgb(179,179,179)" stroke-linejoin="round" d="M 2733,6835 L 2883,6835"/>
 <path fill="none" stroke="rgb(179,179,179)" stroke-linejoin="round" d="M 2733,6835 L 2883,6835"/>
 <path fill="none" stroke="rgb(179,179,179)" stroke-linejoin="round" d="M 2733,5805 L 2883,5805"/>
 <path fill="none" stroke="rgb(179,179,179)" stroke-linejoin="round" d="M 2733,5805 L 2883,5805"/>
 <path fill="none" stroke="rgb(179,179,179)" stroke-linejoin="round" d="M 2733,4774 L 2883,4774"/>
 <path fill="none" stroke="rgb(179,179,179)" stroke-linejoin="round" d="M 2733,4774 L 2883,4774"/>
 <path fill="none" stroke="rgb(179,179,179)" stroke-linejoin="round" d="M 2733,3743 L 2883,3743"/>
 <path fill="none" stroke="rgb(179,179,179)" stroke-linejoin="round" d="M 2733,3743 L 2883,3743"/>
 <path fill="none" stroke="rgb(179,179,179)" stroke-linejoin="round" d="M 2733,2713 L 2883,2713"/>
 <path fill="none" stroke="rgb(179,179,179)" stroke-linejoin="round" d="M 2733,2713 L 2883,2713"/>
 <path fill="none" stroke="rgb(179,179,179)" stroke-linejoin="round" d="M 2883,13019 L 2883,2713"/>
 <path fill="rgb(0,69,134)" stroke="none" d="M 29682,13019 L 31826,13019 31826,13019 29682,13019 Z"/>
 <path fill="rgb(0,69,134)" stroke="none" d="M 25394,13019 L 27538,13019 27538,13019 25394,13019 Z"/>
 <path fill="rgb(0,69,134)" stroke="none" d="M 21106,13019 L 23250,13019 23250,13019 21106,13019 Z"/>
 <path fill="rgb(0,69,134)" stroke="none" d="M 16819,13019 L 18962,13019 18962,13019 16819,13019 Z"/>
 <path fill="rgb(0,69,134)" stroke="none" d="M 12531,13019 L 14675,13019 14675,13019 12531,13019 Z"/>
 <path fill="rgb(0,69,134)" stroke="none" d="M 8243,13019 L 10387,13019 10387,13019 8243,13019 Z"/>
 <path fill="rgb(0,69,134)" stroke="none" d="M 3955,13019 L 6099,13019 6099,13019 3955,13019 Z"/>
 <path fill="rgb(255,66,14)" stroke="none" d="M 29682,13019 L 31826,13019 31826,13019 29682,13019 Z"/>
 <path fill="rgb(255,66,14)" stroke="none" d="M 25394,13019 L 27538,13019 27538,13019 25394,13019 Z"/>
 <path fill="rgb(255,66,14)" stroke="none" d="M 21106,13019 L 23250,13019 23250,13019 21106,13019 Z"/>
 <path fill="rgb(255,66,14)" stroke="none" d="M 16819,13019 L 18962,13019 18962,13019 16819,13019 Z"/>
 <path fill="rgb(255,66,14)" stroke="none" d="M 12531,13019 L 14675,13019 14675,13019 12531,13019 Z"/>
 <path fill="rgb(255,66,14)" stroke="none" d="M 8243,13019 L 10387,13019 10387,13019 8243,13019 Z"/>
 <path fill="rgb(255,66,14)" stroke="none" d="M 3955,13019 L 6099,13019 6099,13019 3955,13019 Z"/>
 <path fill="rgb(255,211,32)" stroke="none" d="M 29682,13019 L 31826,13019 31826,13019 29682,13019 Z"/>
 <path fill="rgb(255,211,32)" stroke="none" d="M 25394,13019 L 27538,13019 27538,13019 25394,13019 Z"/>
 <path fill="rgb(255,211,32)" stroke="none" d="M 21106,13019 L 23250,13019 23250,13019 21106,13019 Z"/>
 <path fill="rgb(255,211,32)" stroke="none" d="M 16819,13019 L 18962,13019 18962,13019 16819,13019 Z"/>
 <path fill="rgb(255,211,32)" stroke="none" d="M 12531,13019 L 14675,13019 14675,13019 12531,13019 Z"/>
 <path fill="rgb(255,211,32)" stroke="none" d="M 8243,13019 L 10387,13019 10387,12226 8243,12226 8243,13019 Z"/>
 <path fill="rgb(255,211,32)" stroke="none" d="M 3955,13019 L 6099,13019 6099,13019 3955,13019 Z"/>
 <path fill="rgb(87,157,28)" stroke="none" d="M 29682,13019 L 31826,13019 31826,13019 29682,13019 Z"/>
 <path fill="rgb(87,157,28)" stroke="none" d="M 25394,13019 L 27538,13019 27538,13019 25394,13019 Z"/>
 <path fill="rgb(87,157,28)" stroke="none" d="M 21106,13019 L 23250,13019 23250,13019 21106,13019 Z"/>
 <path fill="rgb(87,157,28)" stroke="none" d="M 16819,13019 L 18962,13019 18962,13019 16819,13019 Z"/>
 <path fill="rgb(87,157,28)" stroke="none" d="M 12531,13019 L 14675,13019 14675,13019 12531,13019 Z"/>
 <path fill="rgb(87,157,28)" stroke="none" d="M 3955,13019 L 6099,13019 6099,13019 3955,13019 Z"/>
 <path fill="rgb(126,0,33)" stroke="none" d="M 29682,13019 L 31826,13019 31826,13019 29682,13019 Z"/>
 <path fill="rgb(126,0,33)" stroke="none" d="M 25394,13019 L 27538,13019 27538,13019 25394,13019 Z"/>
 <path fill="rgb(126,0,33)" stroke="none" d="M 21106,13019 L 23250,13019 23250,13019 21106,13019 Z"/>
 <path fill="rgb(126,0,33)" stroke="none" d="M 16819,13019 L 18962,13019 18962,13019 16819,13019 Z"/>
 <path fill="rgb(126,0,33)" stroke="none" d="M 12531,13019 L 14675,13019 14675,13019 12531,13019 Z"/>
 <path fill="rgb(126,0,33)" stroke="none" d="M 3955,13019 L 6099,13019 6099,13019 3955,13019 Z"/>
 <path fill="rgb(131,202,255)" stroke="none" d="M 29682,13019 L 31826,13019 31826,13019 29682,13019 Z"/>
 <path fill="rgb(131,202,255)" stroke="none" d="M 25394,13019 L 27538,13019 27538,13019 25394,13019 Z"/>
 <path fill="rgb(131,202,255)" stroke="none" d="M 21106,13019 L 23250,13019 23250,13019 21106,13019 Z"/>
 <path fill="rgb(131,202,255)" stroke="none" d="M 16819,13019 L 18962,13019 18962,13019 16819,13019 Z"/>
 <path fill="rgb(131,202,255)" stroke="none" d="M 12531,13019 L 14675,13019 14675,13019 12531,13019 Z"/>
 <path fill="rgb(131,202,255)" stroke="none" d="M 3955,13019 L 6099,13019 6099,13019 3955,13019 Z"/>
 <path fill="rgb(49,64,4)" stroke="none" d="M 29682,13019 L 31826,13019 31826,13019 29682,13019 Z"/>
 <path fill="rgb(49,64,4)" stroke="none" d="M 25394,13019 L 27538,13019 27538,13019 25394,13019 Z"/>
 <path fill="rgb(49,64,4)" stroke="none" d="M 21106,13019 L 23250,13019 23250,13019 21106,13019 Z"/>
 <path fill="rgb(49,64,4)" stroke="none" d="M 16819,13019 L 18962,13019 18962,13019 16819,13019 Z"/>
 <path fill="rgb(49,64,4)" stroke="none" d="M 12531,13019 L 14675,13019 14675,13019 12531,13019 Z"/>
 <path fill="rgb(49,64,4)" stroke="none" d="M 3955,13019 L 6099,13019 6099,13019 3955,13019 Z"/>
 <path fill="rgb(174,207,0)" stroke="none" d="M 29682,13019 L 31826,13019 31826,13019 29682,13019 Z"/>
 <path fill="rgb(174,207,0)" stroke="none" d="M 25394,13019 L 27538,13019 27538,13019 25394,13019 Z"/>
 <path fill="rgb(174,207,0)" stroke="none" d="M 21106,13019 L 23250,13019 23250,13019 21106,13019 Z"/>
 <path fill="rgb(174,207,0)" stroke="none" d="M 16819,13019 L 18962,13019 18962,13019 16819,13019 Z"/>
 <path fill="rgb(174,207,0)" stroke="none" d="M 12531,13019 L 14675,13019 14675,13019 12531,13019 Z"/>
 <path fill="rgb(174,207,0)" stroke="none" d="M 8243,12226 L 10387,12226 10387,5091 8243,5091 8243,12226 Z"/>
 <path fill="rgb(174,207,0)" stroke="none" d="M 3955,13019 L 6099,13019 6099,13019 3955,13019 Z"/>
 <path fill="rgb(75,31,111)" stroke="none" d="M 29682,13019 L 31826,13019 31826,13019 29682,13019 Z"/>
 <path fill="rgb(75,31,111)" stroke="none" d="M 25394,13019 L 27538,13019 27538,13019 25394,13019 Z"/>
 <path fill="rgb(75,31,111)" stroke="none" d="M 21106,13019 L 23250,13019 23250,13019 21106,13019 Z"/>
 <path fill="rgb(75,31,111)" stroke="none" d="M 16819,13019 L 18962,13019 18962,13019 16819,13019 Z"/>
 <path fill="rgb(75,31,111)" stroke="none" d="M 12531,13019 L 14675,13019 14675,13019 12531,13019 Z"/>
 <path fill="rgb(75,31,111)" stroke="none" d="M 3955,13019 L 6099,13019 6099,13019 3955,13019 Z"/>
 <path fill="rgb(255,149,14)" stroke="none" d="M 29682,13019 L 31826,13019 31826,13019 29682,13019 Z"/>
 <path fill="rgb(255,149,14)" stroke="none" d="M 25394,13019 L 27538,13019 27538,13019 25394,13019 Z"/>
 <path fill="rgb(255,149,14)" stroke="none" d="M 21106,13019 L 23250,13019 23250,13019 21106,13019 Z"/>
 <path fill="rgb(255,149,14)" stroke="none" d="M 16819,13019 L 18962,13019 18962,13019 16819,13019 Z"/>
 <path fill="rgb(255,149,14)" stroke="none" d="M 12531,13019 L 14675,13019 14675,13019 12531,13019 Z"/>
 <path fill="rgb(255,149,14)" stroke="none" d="M 8243,5091 L 10387,5091 10387,2713 8243,2713 8243,5091 Z"/>
 <path fill="rgb(255,149,14)" stroke="none" d="M 3955,13019 L 6099,13019 6099,13019 3955,13019 Z"/>
 <text class="TextShape" transform="rotate(-44.9 2528 16076)"><tspan class="TextParagraph" font-family="Liberation Sans, sans-serif" font-size="353px" font-weight="400"><tspan class="TextPosition" x="2528" y="16076"><tspan fill="rgb(0,0,0)" stroke="none">Archaeoglobus_fulgidus</tspan></tspan></tspan></text>
 <text class="TextShape" transform="rotate(-44.9 6666 16226)"><tspan class="TextParagraph" font-family="Liberation Sans, sans-serif" font-size="353px" font-weight="400"><tspan class="TextPosition" x="6666" y="16226"><tspan fill="rgb(0,0,0)" stroke="none">Halobacterium_salinarum</tspan></tspan></tspan></text>
 <text class="TextShape" transform="rotate(-44.9 10917 16264)"><tspan class="TextParagraph" font-family="Liberation Sans, sans-serif" font-size="353px" font-weight="400"><tspan class="TextPosition" x="10917" y="16264"><tspan fill="rgb(0,0,0)" stroke="none">Korarchaeum_cryptofilum</tspan></tspan></tspan></text>
 <text class="TextShape" transform="rotate(-44.9 14457 17012)"><tspan class="TextParagraph" font-family="Liberation Sans, sans-serif" font-size="353px" font-weight="400"><tspan class="TextPosition" x="14457" y="17012"><tspan fill="rgb(0,0,0)" stroke="none">Methanocaldococcus_jannaschii</tspan></tspan></tspan></text>
 <text class="TextShape" transform="rotate(-44.9 19156 16600)"><tspan class="TextParagraph" font-family="Liberation Sans, sans-serif" font-size="353px" font-weight="400"><tspan class="TextPosition" x="19156" y="16600"><tspan fill="rgb(0,0,0)" stroke="none">Methanosarcina_acetivorans</tspan></tspan></tspan></text>
 <text class="TextShape" transform="rotate(-44.9 23556 16488)"><tspan class="TextParagraph" font-family="Liberation Sans, sans-serif" font-size="353px" font-weight="400"><tspan class="TextPosition" x="23556" y="16488"><tspan fill="rgb(0,0,0)" stroke="none">Saccharolobus_solfataricus</tspan></tspan></tspan></text>
 <text class="TextShape" transform="rotate(-44.9 27657 16674)"><tspan class="TextParagraph" font-family="Liberation Sans, sans-serif" font-size="353px" font-weight="400"><tspan class="TextPosition" x="27657" y="16674"><tspan fill="rgb(0,0,0)" stroke="none">Thermococcus_kodakarensis</tspan></tspan></tspan></text>
 <text class="TextShape"><tspan class="TextParagraph" font-family="Liberation Sans, sans-serif" font-size="353px" font-weight="400"><tspan class="TextPosition" x="2130" y="13140"><tspan fill="rgb(0,0,0)" stroke="none">0%</tspan></tspan></tspan></text>
 <text class="TextShape"><tspan class="TextParagraph" font-family="Liberation Sans, sans-serif" font-size="353px" font-weight="400"><tspan class="TextPosition" x="1945" y="12109"><tspan fill="rgb(0,0,0)" stroke="none">10%</tspan></tspan></tspan></text>
 <text class="TextShape"><tspan class="TextParagraph" font-family="Liberation Sans, sans-serif" font-size="353px" font-weight="400"><tspan class="TextPosition" x="1945" y="11078"><tspan fill="rgb(0,0,0)" stroke="none">20%</tspan></tspan></tspan></text>
 <text class="TextShape"><tspan class="TextParagraph" font-family="Liberation Sans, sans-serif" font-size="353px" font-weight="400"><tspan class="TextPosition" x="1945" y="10047"><tspan fill="rgb(0,0,0)" stroke="none">30%</tspan></tspan></tspan></text>
 <text class="TextShape"><tspan class="TextParagraph" font-family="Liberation Sans, sans-serif" font-size="353px" font-weight="400"><tspan class="TextPosition" x="1945" y="9017"><tspan fill="rgb(0,0,0)" stroke="none">40%</tspan></tspan></tspan></text>
 <text class="TextShape"><tspan class="TextParagraph" font-family="Liberation Sans, sans-serif" font-size="353px" font-weight="400"><tspan class="TextPosition" x="1945" y="7986"><tspan fill="rgb(0,0,0)" stroke="none">50%</tspan></tspan></tspan></text>
 <text class="TextShape"><tspan class="TextParagraph" font-family="Liberation Sans, sans-serif" font-size="353px" font-weight="400"><tspan class="TextPosition" x="1945" y="6955"><tspan fill="rgb(0,0,0)" stroke="none">60%</tspan></tspan></tspan></text>
 <text class="TextShape"><tspan class="TextParagraph" font-family="Liberation Sans, sans-serif" font-size="353px" font-weight="400"><tspan class="TextPosition" x="1945" y="5925"><tspan fill="rgb(0,0,0)" stroke="none">70%</tspan></tspan></tspan></text>
 <text class="TextShape"><tspan class="TextParagraph" font-family="Liberation Sans, sans-serif" font-size="353px" font-weight="400"><tspan class="TextPosition" x="1945" y="4894"><tspan fill="rgb(0,0,0)" stroke="none">80%</tspan></tspan></tspan></text>
 <text class="TextShape"><tspan class="TextParagraph" font-family="Liberation Sans, sans-serif" font-size="353px" font-weight="400"><tspan class="TextPosition" x="1945" y="3863"><tspan fill="rgb(0,0,0)" stroke="none">90%</tspan></tspan></tspan></text>
 <text class="TextShape"><tspan class="TextParagraph" font-family="Liberation Sans, sans-serif" font-size="353px" font-weight="400"><tspan class="TextPosition" x="1760" y="2833"><tspan fill="rgb(0,0,0)" stroke="none">100%</tspan></tspan></tspan></text>
 <text class="TextShape"><tspan class="TextParagraph" font-family="Liberation Sans, sans-serif" font-size="459px" font-weight="400"><tspan class="TextPosition" x="12597" y="1043"><tspan fill="rgb(0,0,0)" stroke="none">Archea FrameShift Structural Repeat Distribution in Organism</tspan></tspan></tspan></text>
 <text class="TextShape"><tspan class="TextParagraph" font-family="Liberation Sans, sans-serif" font-size="388px" font-weight="400"><tspan class="TextPosition" x="16605" y="2145"><tspan fill="rgb(0,0,0)" stroke="none">(Total 13 repeat regions)</tspan></tspan></tspan></text>
 <path fill="rgb(0,69,134)" stroke="none" d="M 33869,11655 L 33763,11655 33763,11444 33974,11444 33974,11655 33869,11655 Z"/>
 <path fill="rgb(255,66,14)" stroke="none" d="M 33869,11157 L 33763,11157 33763,10946 33974,10946 33974,11157 33869,11157 Z"/>
 <path fill="rgb(255,211,32)" stroke="none" d="M 33869,10659 L 33763,10659 33763,10448 33974,10448 33974,10659 33869,10659 Z"/>
 <path fill="rgb(87,157,28)" stroke="none" d="M 33869,10161 L 33763,10161 33763,9950 33974,9950 33974,10161 33869,10161 Z"/>
 <path fill="rgb(126,0,33)" stroke="none" d="M 33869,9663 L 33763,9663 33763,9452 33974,9452 33974,9663 33869,9663 Z"/>
 <path fill="rgb(131,202,255)" stroke="none" d="M 33869,9166 L 33763,9166 33763,8955 33974,8955 33974,9166 33869,9166 Z"/>
 <path fill="rgb(49,64,4)" stroke="none" d="M 33869,8668 L 33763,8668 33763,8457 33974,8457 33974,8668 33869,8668 Z"/>
 <path fill="rgb(174,207,0)" stroke="none" d="M 33869,8170 L 33763,8170 33763,7959 33974,7959 33974,8170 33869,8170 Z"/>
 <path fill="rgb(75,31,111)" stroke="none" d="M 33869,7672 L 33763,7672 33763,7461 33974,7461 33974,7672 33869,7672 Z"/>
 <path fill="rgb(255,149,14)" stroke="none" d="M 33869,7174 L 33763,7174 33763,6963 33974,6963 33974,7174 33869,7174 Z"/>
 <text class="TextShape"><tspan class="TextParagraph" font-family="Liberation Sans, sans-serif" font-size="353px" font-weight="400"><tspan class="TextPosition" x="34074" y="7188"><tspan fill="rgb(0,0,0)" stroke="none">Fab, light chain</tspan></tspan></tspan></text>
 <text class="TextShape"><tspan class="TextParagraph" font-family="Liberation Sans, sans-serif" font-size="353px" font-weight="400"><tspan class="TextPosition" x="34074" y="7686"><tspan fill="rgb(0,0,0)" stroke="none">AlphaBeta Solenoid</tspan></tspan></tspan></text>
 <text class="TextShape"><tspan class="TextParagraph" font-family="Liberation Sans, sans-serif" font-size="353px" font-weight="400"><tspan class="TextPosition" x="34074" y="8184"><tspan fill="rgb(0,0,0)" stroke="none">Other Beads </tspan></tspan></tspan></text>
 <text class="TextShape"><tspan class="TextParagraph" font-family="Liberation Sans, sans-serif" font-size="353px" font-weight="400"><tspan class="TextPosition" x="34074" y="8682"><tspan fill="rgb(0,0,0)" stroke="none">Beta Propeller</tspan></tspan></tspan></text>
 <text class="TextShape"><tspan class="TextParagraph" font-family="Liberation Sans, sans-serif" font-size="353px" font-weight="400"><tspan class="TextPosition" x="34074" y="9180"><tspan fill="rgb(0,0,0)" stroke="none">Tim Barrel</tspan></tspan></tspan></text>
 <text class="TextShape"><tspan class="TextParagraph" font-family="Liberation Sans, sans-serif" font-size="353px" font-weight="400"><tspan class="TextPosition" x="34074" y="9677"><tspan fill="rgb(0,0,0)" stroke="none">Beta Barrel</tspan></tspan></tspan></text>
 <text class="TextShape"><tspan class="TextParagraph" font-family="Liberation Sans, sans-serif" font-size="353px" font-weight="400"><tspan class="TextPosition" x="34074" y="10175"><tspan fill="rgb(0,0,0)" stroke="none">Beta Solenoid</tspan></tspan></tspan></text>
 <text class="TextShape"><tspan class="TextParagraph" font-family="Liberation Sans, sans-serif" font-size="353px" font-weight="400"><tspan class="TextPosition" x="34074" y="10673"><tspan fill="rgb(0,0,0)" stroke="none">Other elongated St</tspan></tspan></tspan></text>
 <text class="TextShape"><tspan class="TextParagraph" font-family="Liberation Sans, sans-serif" font-size="353px" font-weight="400"><tspan class="TextPosition" x="34074" y="11171"><tspan fill="rgb(0,0,0)" stroke="none">Alpha Solenoids</tspan></tspan></tspan></text>
 <text class="TextShape"><tspan class="TextParagraph" font-family="Liberation Sans, sans-serif" font-size="353px" font-weight="400"><tspan class="TextPosition" x="34074" y="11669"><tspan fill="rgb(0,0,0)" stroke="none">Other closed St</tspan></tspan></tspan></text>
 <text class="TextShape"><tspan class="TextParagraph" font-family="Liberation Sans, sans-serif" font-size="318px" font-weight="400"><tspan class="TextPosition" x="16628" y="18026"><tspan fill="rgb(0,0,0)" stroke="none">Organism</tspan></tspan></tspan></text>
 <text class="TextShape" transform="rotate(-90 837 12451)"><tspan class="TextParagraph" font-family="Liberation Sans, sans-serif" font-size="318px" font-weight="400"><tspan class="TextPosition" x="837" y="12451"><tspan fill="rgb(0,0,0)" stroke="none">Percentage of repeat region found</tspan></tspan></tspan></text>
</svg>