<?xml version="1.0" encoding="UTF-8"?>
<!DOCTYPE svg PUBLIC "-//W3C//DTD SVG 1.1//EN" "http://www.w3.org/Graphics/SVG/1.1/DTD/svg11.dtd">
<svg width="400mm" height="174mm" viewBox="0 0 40000 17400" version="1.1" xmlns="http://www.w3.org/2000/svg" xmlns:xlink="http://www.w3.org/1999/xlink" stroke-width="28.222" stroke-linejoin="round" xml:space="preserve">
 <path fill="rgb(255,255,255)" stroke="none" d="M 19995,17424 L 0,17424 0,0 39990,0 39990,17424 19995,17424 Z"/>
 <path fill="none" stroke="rgb(179,179,179)" stroke-linejoin="round" d="M 19177,11792 L 2934,11792 2934,2642 35420,2642 35420,11792 19177,11792 Z"/>
 <path fill="none" stroke="rgb(179,179,179)" stroke-linejoin="round" d="M 35420,11791 L 2934,11791"/>
 <path fill="none" stroke="rgb(179,179,179)" stroke-linejoin="round" d="M 35420,10875 L 2934,10875"/>
 <path fill="none" stroke="rgb(179,179,179)" stroke-linejoin="round" d="M 35420,9960 L 2934,9960"/>
 <path fill="none" stroke="rgb(179,179,179)" stroke-linejoin="round" d="M 35420,9045 L 2934,9045"/>
 <path fill="none" stroke="rgb(179,179,179)" stroke-linejoin="round" d="M 35420,8131 L 2934,8131"/>
 <path fill="none" stroke="rgb(179,179,179)" stroke-linejoin="round" d="M 35420,7216 L 2934,7216"/>
 <path fill="none" stroke="rgb(179,179,179)" stroke-linejoin="round" d="M 35420,6301 L 2934,6301"/>
 <path fill="none" stroke="rgb(179,179,179)" stroke-linejoin="round" d="M 35420,5386 L 2934,5386"/>
 <path fill="none" stroke="rgb(179,179,179)" stroke-linejoin="round" d="M 35420,4471 L 2934,4471"/>
 <path fill="none" stroke="rgb(179,179,179)" stroke-linejoin="round" d="M 35420,3556 L 2934,3556"/>
 <path fill="none" stroke="rgb(179,179,179)" stroke-linejoin="round" d="M 35420,2641 L 2934,2641"/>
 <path fill="none" stroke="rgb(179,179,179)" stroke-linejoin="round" d="M 2934,11941 L 2934,11791"/>
 <path fill="none" stroke="rgb(179,179,179)" stroke-linejoin="round" d="M 2934,11941 L 2934,11791"/>
 <path fill="none" stroke="rgb(179,179,179)" stroke-linejoin="round" d="M 4964,11941 L 4964,11791"/>
 <path fill="none" stroke="rgb(179,179,179)" stroke-linejoin="round" d="M 4964,11941 L 4964,11791"/>
 <path fill="none" stroke="rgb(179,179,179)" stroke-linejoin="round" d="M 6994,11941 L 6994,11791"/>
 <path fill="none" stroke="rgb(179,179,179)" stroke-linejoin="round" d="M 6994,11941 L 6994,11791"/>
 <path fill="none" stroke="rgb(179,179,179)" stroke-linejoin="round" d="M 9025,11941 L 9025,11791"/>
 <path fill="none" stroke="rgb(179,179,179)" stroke-linejoin="round" d="M 9025,11941 L 9025,11791"/>
 <path fill="none" stroke="rgb(179,179,179)" stroke-linejoin="round" d="M 11055,11941 L 11055,11791"/>
 <path fill="none" stroke="rgb(179,179,179)" stroke-linejoin="round" d="M 11055,11941 L 11055,11791"/>
 <path fill="none" stroke="rgb(179,179,179)" stroke-linejoin="round" d="M 13086,11941 L 13086,11791"/>
 <path fill="none" stroke="rgb(179,179,179)" stroke-linejoin="round" d="M 13086,11941 L 13086,11791"/>
 <path fill="none" stroke="rgb(179,179,179)" stroke-linejoin="round" d="M 15116,11941 L 15116,11791"/>
 <path fill="none" stroke="rgb(179,179,179)" stroke-linejoin="round" d="M 15116,11941 L 15116,11791"/>
 <path fill="none" stroke="rgb(179,179,179)" stroke-linejoin="round" d="M 17147,11941 L 17147,11791"/>
 <path fill="none" stroke="rgb(179,179,179)" stroke-linejoin="round" d="M 17147,11941 L 17147,11791"/>
 <path fill="none" stroke="rgb(179,179,179)" stroke-linejoin="round" d="M 19177,11941 L 19177,11791"/>
 <path fill="none" stroke="rgb(179,179,179)" stroke-linejoin="round" d="M 19177,11941 L 19177,11791"/>
 <path fill="none" stroke="rgb(179,179,179)" stroke-linejoin="round" d="M 21206,11941 L 21206,11791"/>
 <path fill="none" stroke="rgb(179,179,179)" stroke-linejoin="round" d="M 21206,11941 L 21206,11791"/>
 <path fill="none" stroke="rgb(179,179,179)" stroke-linejoin="round" d="M 23237,11941 L 23237,11791"/>
 <path fill="none" stroke="rgb(179,179,179)" stroke-linejoin="round" d="M 23237,11941 L 23237,11791"/>
 <path fill="none" stroke="rgb(179,179,179)" stroke-linejoin="round" d="M 25267,11941 L 25267,11791"/>
 <path fill="none" stroke="rgb(179,179,179)" stroke-linejoin="round" d="M 25267,11941 L 25267,11791"/>
 <path fill="none" stroke="rgb(179,179,179)" stroke-linejoin="round" d="M 27298,11941 L 27298,11791"/>
 <path fill="none" stroke="rgb(179,179,179)" stroke-linejoin="round" d="M 27298,11941 L 27298,11791"/>
 <path fill="none" stroke="rgb(179,179,179)" stroke-linejoin="round" d="M 29328,11941 L 29328,11791"/>
 <path fill="none" stroke="rgb(179,179,179)" stroke-linejoin="round" d="M 29328,11941 L 29328,11791"/>
 <path fill="none" stroke="rgb(179,179,179)" stroke-linejoin="round" d="M 31359,11941 L 31359,11791"/>
 <path fill="none" stroke="rgb(179,179,179)" stroke-linejoin="round" d="M 31359,11941 L 31359,11791"/>
 <path fill="none" stroke="rgb(179,179,179)" stroke-linejoin="round" d="M 33389,11941 L 33389,11791"/>
 <path fill="none" stroke="rgb(179,179,179)" stroke-linejoin="round" d="M 33389,11941 L 33389,11791"/>
 <path fill="none" stroke="rgb(179,179,179)" stroke-linejoin="round" d="M 35420,11941 L 35420,11791"/>
 <path fill="none" stroke="rgb(179,179,179)" stroke-linejoin="round" d="M 35420,11941 L 35420,11791"/>
 <path fill="none" stroke="rgb(179,179,179)" stroke-linejoin="round" d="M 2934,11791 L 35420,11791"/>
 <path fill="none" stroke="rgb(179,179,179)" stroke-linejoin="round" d="M 2784,11791 L 2934,11791"/>
 <path fill="none" stroke="rgb(179,179,179)" stroke-linejoin="round" d="M 2784,11791 L 2934,11791"/>
 <path fill="none" stroke="rgb(179,179,179)" stroke-linejoin="round" d="M 2784,10875 L 2934,10875"/>
 <path fill="none" stroke="rgb(179,179,179)" stroke-linejoin="round" d="M 2784,10875 L 2934,10875"/>
 <path fill="none" stroke="rgb(179,179,179)" stroke-linejoin="round" d="M 2784,9960 L 2934,9960"/>
 <path fill="none" stroke="rgb(179,179,179)" stroke-linejoin="round" d="M 2784,9960 L 2934,9960"/>
 <path fill="none" stroke="rgb(179,179,179)" stroke-linejoin="round" d="M 2784,9045 L 2934,9045"/>
 <path fill="none" stroke="rgb(179,179,179)" stroke-linejoin="round" d="M 2784,9045 L 2934,9045"/>
 <path fill="none" stroke="rgb(179,179,179)" stroke-linejoin="round" d="M 2784,8131 L 2934,8131"/>
 <path fill="none" stroke="rgb(179,179,179)" stroke-linejoin="round" d="M 2784,8131 L 2934,8131"/>
 <path fill="none" stroke="rgb(179,179,179)" stroke-linejoin="round" d="M 2784,7216 L 2934,7216"/>
 <path fill="none" stroke="rgb(179,179,179)" stroke-linejoin="round" d="M 2784,7216 L 2934,7216"/>
 <path fill="none" stroke="rgb(179,179,179)" stroke-linejoin="round" d="M 2784,6301 L 2934,6301"/>
 <path fill="none" stroke="rgb(179,179,179)" stroke-linejoin="round" d="M 2784,6301 L 2934,6301"/>
 <path fill="none" stroke="rgb(179,179,179)" stroke-linejoin="round" d="M 2784,5386 L 2934,5386"/>
 <path fill="none" stroke="rgb(179,179,179)" stroke-linejoin="round" d="M 2784,5386 L 2934,5386"/>
 <path fill="none" stroke="rgb(179,179,179)" stroke-linejoin="round" d="M 2784,4471 L 2934,4471"/>
 <path fill="none" stroke="rgb(179,179,179)" stroke-linejoin="round" d="M 2784,4471 L 2934,4471"/>
 <path fill="none" stroke="rgb(179,179,179)" stroke-linejoin="round" d="M 2784,3556 L 2934,3556"/>
 <path fill="none" stroke="rgb(179,179,179)" stroke-linejoin="round" d="M 2784,3556 L 2934,3556"/>
 <path fill="none" stroke="rgb(179,179,179)" stroke-linejoin="round" d="M 2784,2641 L 2934,2641"/>
 <path fill="none" stroke="rgb(179,179,179)" stroke-linejoin="round" d="M 2784,2641 L 2934,2641"/>
 <path fill="none" stroke="rgb(179,179,179)" stroke-linejoin="round" d="M 2934,11791 L 2934,2641"/>
 <path fill="rgb(0,69,134)" stroke="none" d="M 33897,11791 L 34912,11791 34912,11200 33897,11200 33897,11791 Z"/>
 <path fill="rgb(0,69,134)" stroke="none" d="M 31866,11791 L 32881,11791 32881,11200 31866,11200 31866,11791 Z"/>
 <path fill="rgb(0,69,134)" stroke="none" d="M 29836,11791 L 30851,11791 30851,11650 29836,11650 29836,11791 Z"/>
 <path fill="rgb(0,69,134)" stroke="none" d="M 27805,11791 L 28821,11791 28821,11049 27805,11049 27805,11791 Z"/>
 <path fill="rgb(0,69,134)" stroke="none" d="M 25775,11791 L 26790,11791 26790,11578 25775,11578 25775,11791 Z"/>
 <path fill="rgb(0,69,134)" stroke="none" d="M 23744,11791 L 24760,11791 24760,11490 23744,11490 23744,11791 Z"/>
 <path fill="rgb(0,69,134)" stroke="none" d="M 21714,11791 L 22729,11791 22729,11529 21714,11529 21714,11791 Z"/>
 <path fill="rgb(0,69,134)" stroke="none" d="M 19685,11791 L 20699,11791 20699,10137 19685,10137 19685,11791 Z"/>
 <path fill="rgb(0,69,134)" stroke="none" d="M 17654,11791 L 18669,11791 18669,11393 17654,11393 17654,11791 Z"/>
 <path fill="rgb(0,69,134)" stroke="none" d="M 15624,11791 L 16639,11791 16639,10570 15624,10570 15624,11791 Z"/>
 <path fill="rgb(0,69,134)" stroke="none" d="M 13593,11791 L 14609,11791 14609,11236 13593,11236 13593,11791 Z"/>
 <path fill="rgb(0,69,134)" stroke="none" d="M 11563,11791 L 12578,11791 12578,8023 11563,8023 11563,11791 Z"/>
 <path fill="rgb(0,69,134)" stroke="none" d="M 9532,11791 L 10548,11791 10548,9503 9532,9503 9532,11791 Z"/>
 <path fill="rgb(0,69,134)" stroke="none" d="M 7502,11791 L 8517,11791 8517,11439 7502,11439 7502,11791 Z"/>
 <path fill="rgb(0,69,134)" stroke="none" d="M 5472,11791 L 6487,11791 6487,9295 5472,9295 5472,11791 Z"/>
 <path fill="rgb(0,69,134)" stroke="none" d="M 3441,11791 L 4456,11791 4456,11006 3441,11006 3441,11791 Z"/>
 <path fill="rgb(255,66,14)" stroke="none" d="M 33897,11200 L 34912,11200 34912,7364 33897,7364 33897,11200 Z"/>
 <path fill="rgb(255,66,14)" stroke="none" d="M 31866,11200 L 32881,11200 32881,5888 31866,5888 31866,11200 Z"/>
 <path fill="rgb(255,66,14)" stroke="none" d="M 29836,11650 L 30851,11650 30851,9538 29836,9538 29836,11650 Z"/>
 <path fill="rgb(255,66,14)" stroke="none" d="M 27805,11049 L 28821,11049 28821,8329 27805,8329 27805,11049 Z"/>
 <path fill="rgb(255,66,14)" stroke="none" d="M 25775,11578 L 26790,11578 26790,8174 25775,8174 25775,11578 Z"/>
 <path fill="rgb(255,66,14)" stroke="none" d="M 23744,11490 L 24760,11490 24760,11340 23744,11340 23744,11490 Z"/>
 <path fill="rgb(255,66,14)" stroke="none" d="M 21714,11529 L 22729,11529 22729,7870 21714,7870 21714,11529 Z"/>
 <path fill="rgb(255,66,14)" stroke="none" d="M 19685,10137 L 20699,10137 20699,5838 19685,5838 19685,10137 Z"/>
 <path fill="rgb(255,66,14)" stroke="none" d="M 17654,11393 L 18669,11393 18669,6619 17654,6619 17654,11393 Z"/>
 <path fill="rgb(255,66,14)" stroke="none" d="M 15624,10570 L 16639,10570 16639,8131 15624,8131 15624,10570 Z"/>
 <path fill="rgb(255,66,14)" stroke="none" d="M 13593,11236 L 14609,11236 14609,8740 13593,8740 13593,11236 Z"/>
 <path fill="rgb(255,66,14)" stroke="none" d="M 11563,8023 L 12578,8023 12578,5870 11563,5870 11563,8023 Z"/>
 <path fill="rgb(255,66,14)" stroke="none" d="M 9532,9503 L 10548,9503 10548,4928 9532,4928 9532,9503 Z"/>
 <path fill="rgb(255,66,14)" stroke="none" d="M 7502,11439 L 8517,11439 8517,9327 7502,9327 7502,11439 Z"/>
 <path fill="rgb(255,66,14)" stroke="none" d="M 5472,9295 L 6487,9295 6487,7632 5472,7632 5472,9295 Z"/>
 <path fill="rgb(255,66,14)" stroke="none" d="M 3441,11006 L 4456,11006 4456,9176 3441,9176 3441,11006 Z"/>
 <path fill="rgb(255,211,32)" stroke="none" d="M 27805,8329 L 28821,8329 28821,8082 27805,8082 27805,8329 Z"/>
 <path fill="rgb(255,211,32)" stroke="none" d="M 25775,8174 L 26790,8174 26790,7961 25775,7961 25775,8174 Z"/>
 <path fill="rgb(255,211,32)" stroke="none" d="M 21714,7870 L 22729,7870 22729,7739 21714,7739 21714,7870 Z"/>
 <path fill="rgb(255,211,32)" stroke="none" d="M 17654,6619 L 18669,6619 18669,6221 17654,6221 17654,6619 Z"/>
 <path fill="rgb(255,211,32)" stroke="none" d="M 15624,8131 L 16639,8131 16639,7521 15624,7521 15624,8131 Z"/>
 <path fill="rgb(255,211,32)" stroke="none" d="M 13593,8740 L 14609,8740 14609,8187 13593,8187 13593,8740 Z"/>
 <path fill="rgb(255,211,32)" stroke="none" d="M 11563,5870 L 12578,5870 12578,5332 11563,5332 11563,5870 Z"/>
 <path fill="rgb(255,211,32)" stroke="none" d="M 7502,9327 L 8517,9327 8517,9151 7502,9151 7502,9327 Z"/>
 <path fill="rgb(87,157,28)" stroke="none" d="M 31866,5888 L 32881,5888 32881,5592 31866,5592 31866,5888 Z"/>
 <path fill="rgb(87,157,28)" stroke="none" d="M 29836,9538 L 30851,9538 30851,8553 29836,8553 29836,9538 Z"/>
 <path fill="rgb(87,157,28)" stroke="none" d="M 27805,8082 L 28821,8082 28821,6103 27805,6103 27805,8082 Z"/>
 <path fill="rgb(87,157,28)" stroke="none" d="M 25775,7961 L 26790,7961 26790,6684 25775,6684 25775,7961 Z"/>
 <path fill="rgb(87,157,28)" stroke="none" d="M 23744,11340 L 24760,11340 24760,3691 23744,3691 23744,11340 Z"/>
 <path fill="rgb(87,157,28)" stroke="none" d="M 21714,7739 L 22729,7739 22729,7608 21714,7608 21714,7739 Z"/>
 <path fill="rgb(87,157,28)" stroke="none" d="M 19685,5838 L 20699,5838 20699,5617 19685,5617 19685,5838 Z"/>
 <path fill="rgb(87,157,28)" stroke="none" d="M 17654,6221 L 18669,6221 18669,6022 17654,6022 17654,6221 Z"/>
 <path fill="rgb(87,157,28)" stroke="none" d="M 15624,7521 L 16639,7521 16639,5081 15624,5081 15624,7521 Z"/>
 <path fill="rgb(87,157,28)" stroke="none" d="M 13593,8187 L 14609,8187 14609,6245 13593,6245 13593,8187 Z"/>
 <path fill="rgb(87,157,28)" stroke="none" d="M 7502,9151 L 8517,9151 8517,8272 7502,8272 7502,9151 Z"/>
 <path fill="rgb(87,157,28)" stroke="none" d="M 5472,7632 L 6487,7632 6487,6384 5472,6384 5472,7632 Z"/>
 <path fill="rgb(126,0,33)" stroke="none" d="M 31866,5592 L 32881,5592 32881,5297 31866,5297 31866,5592 Z"/>
 <path fill="rgb(126,0,33)" stroke="none" d="M 27805,6103 L 28821,6103 28821,5361 27805,5361 27805,6103 Z"/>
 <path fill="rgb(126,0,33)" stroke="none" d="M 25775,6684 L 26790,6684 26790,5620 25775,5620 25775,6684 Z"/>
 <path fill="rgb(126,0,33)" stroke="none" d="M 23744,3691 L 24760,3691 24760,3091 23744,3091 23744,3691 Z"/>
 <path fill="rgb(126,0,33)" stroke="none" d="M 13593,6245 L 14609,6245 14609,4859 13593,4859 13593,6245 Z"/>
 <path fill="rgb(126,0,33)" stroke="none" d="M 7502,8272 L 8517,8272 8517,8096 7502,8096 7502,8272 Z"/>
 <path fill="rgb(126,0,33)" stroke="none" d="M 3441,9176 L 4456,9176 4456,8914 3441,8914 3441,9176 Z"/>
 <path fill="rgb(131,202,255)" stroke="none" d="M 33897,7364 L 34912,7364 34912,3526 33897,3526 33897,7364 Z"/>
 <path fill="rgb(131,202,255)" stroke="none" d="M 31866,5297 L 32881,5297 32881,5002 31866,5002 31866,5297 Z"/>
 <path fill="rgb(131,202,255)" stroke="none" d="M 29836,8553 L 30851,8553 30851,8131 29836,8131 29836,8553 Z"/>
 <path fill="rgb(131,202,255)" stroke="none" d="M 27805,5361 L 28821,5361 28821,4124 27805,4124 27805,5361 Z"/>
 <path fill="rgb(131,202,255)" stroke="none" d="M 25775,5620 L 26790,5620 26790,5194 25775,5194 25775,5620 Z"/>
 <path fill="rgb(131,202,255)" stroke="none" d="M 17654,6022 L 18669,6022 18669,4033 17654,4033 17654,6022 Z"/>
 <path fill="rgb(131,202,255)" stroke="none" d="M 15624,5081 L 16639,5081 16639,3251 15624,3251 15624,5081 Z"/>
 <path fill="rgb(131,202,255)" stroke="none" d="M 13593,4859 L 14609,4859 14609,4582 13593,4582 13593,4859 Z"/>
 <path fill="rgb(131,202,255)" stroke="none" d="M 11563,5332 L 12578,5332 12578,3179 11563,3179 11563,5332 Z"/>
 <path fill="rgb(131,202,255)" stroke="none" d="M 9532,4928 L 10548,4928 10548,3784 9532,3784 9532,4928 Z"/>
 <path fill="rgb(131,202,255)" stroke="none" d="M 5472,6384 L 6487,6384 6487,3888 5472,3888 5472,6384 Z"/>
 <path fill="rgb(131,202,255)" stroke="none" d="M 3441,8914 L 4456,8914 4456,2641 3441,2641 3441,8914 Z"/>
 <path fill="rgb(49,64,4)" stroke="none" d="M 33897,3526 L 34912,3526 34912,2936 33897,2936 33897,3526 Z"/>
 <path fill="rgb(49,64,4)" stroke="none" d="M 31866,5002 L 32881,5002 32881,2641 31866,2641 31866,5002 Z"/>
 <path fill="rgb(49,64,4)" stroke="none" d="M 29836,8131 L 30851,8131 30851,3063 29836,3063 29836,8131 Z"/>
 <path fill="rgb(49,64,4)" stroke="none" d="M 27805,4124 L 28821,4124 28821,2888 27805,2888 27805,4124 Z"/>
 <path fill="rgb(49,64,4)" stroke="none" d="M 25775,5194 L 26790,5194 26790,2853 25775,2853 25775,5194 Z"/>
 <path fill="rgb(49,64,4)" stroke="none" d="M 23744,3091 L 24760,3091 24760,2641 23744,2641 23744,3091 Z"/>
 <path fill="rgb(49,64,4)" stroke="none" d="M 21714,7608 L 22729,7608 22729,5778 21714,5778 21714,7608 Z"/>
 <path fill="rgb(49,64,4)" stroke="none" d="M 19685,5617 L 20699,5617 20699,2751 19685,2751 19685,5617 Z"/>
 <path fill="rgb(49,64,4)" stroke="none" d="M 17654,4033 L 18669,4033 18669,3038 17654,3038 17654,4033 Z"/>
 <path fill="rgb(49,64,4)" stroke="none" d="M 15624,3251 L 16639,3251 16639,2641 15624,2641 15624,3251 Z"/>
 <path fill="rgb(49,64,4)" stroke="none" d="M 13593,4582 L 14609,4582 14609,2918 13593,2918 13593,4582 Z"/>
 <path fill="rgb(49,64,4)" stroke="none" d="M 11563,3179 L 12578,3179 12578,2641 11563,2641 11563,3179 Z"/>
 <path fill="rgb(49,64,4)" stroke="none" d="M 9532,3784 L 10548,3784 10548,2641 9532,2641 9532,3784 Z"/>
 <path fill="rgb(49,64,4)" stroke="none" d="M 7502,8096 L 8517,8096 8517,2992 7502,2992 7502,8096 Z"/>
 <path fill="rgb(49,64,4)" stroke="none" d="M 5472,3888 L 6487,3888 6487,2641 5472,2641 5472,3888 Z"/>
 <path fill="rgb(174,207,0)" stroke="none" d="M 21714,5778 L 22729,5778 22729,5647 21714,5647 21714,5778 Z"/>
 <path fill="rgb(174,207,0)" stroke="none" d="M 19685,2751 L 20699,2751 20699,2641 19685,2641 19685,2751 Z"/>
 <path fill="rgb(174,207,0)" stroke="none" d="M 7502,2992 L 8517,2992 8517,2816 7502,2816 7502,2992 Z"/>
 <path fill="rgb(75,31,111)" stroke="none" d="M 29836,3063 L 30851,3063 30851,2641 29836,2641 29836,3063 Z"/>
 <path fill="rgb(75,31,111)" stroke="none" d="M 25775,2853 L 26790,2853 26790,2641 25775,2641 25775,2853 Z"/>
 <path fill="rgb(75,31,111)" stroke="none" d="M 21714,5647 L 22729,5647 22729,2641 21714,2641 21714,5647 Z"/>
 <path fill="rgb(75,31,111)" stroke="none" d="M 13593,2918 L 14609,2918 14609,2641 13593,2641 13593,2918 Z"/>
 <path fill="rgb(75,31,111)" stroke="none" d="M 7502,2816 L 8517,2816 8517,2641 7502,2641 7502,2816 Z"/>
 <path fill="rgb(255,149,14)" stroke="none" d="M 33897,2936 L 34912,2936 34912,2641 33897,2641 33897,2936 Z"/>
 <path fill="rgb(255,149,14)" stroke="none" d="M 27805,2888 L 28821,2888 28821,2641 27805,2641 27805,2888 Z"/>
 <path fill="rgb(255,149,14)" stroke="none" d="M 17654,3038 L 18669,3038 18669,2641 17654,2641 17654,3038 Z"/>
 <text class="TextShape" transform="rotate(-44.9 2180 14118)"><tspan class="TextParagraph" font-family="Liberation Sans, sans-serif" font-size="353px" font-weight="400"><tspan class="TextPosition" x="2180" y="14118"><tspan fill="rgb(0,0,0)" stroke="none">Aquifex_aeolicus</tspan></tspan></tspan></text>
 <text class="TextShape" transform="rotate(-44.9 4303 14025)"><tspan class="TextParagraph" font-family="Liberation Sans, sans-serif" font-size="353px" font-weight="400"><tspan class="TextPosition" x="4303" y="14025"><tspan fill="rgb(0,0,0)" stroke="none">Bacillus_subtilis</tspan></tspan></tspan></text>
 <text class="TextShape" transform="rotate(-44.9 4875 15484)"><tspan class="TextParagraph" font-family="Liberation Sans, sans-serif" font-size="353px" font-weight="400"><tspan class="TextPosition" x="4875" y="15484"><tspan fill="rgb(0,0,0)" stroke="none">Bacteroides_thetaiotaomicron</tspan></tspan></tspan></text>
 <text class="TextShape" transform="rotate(-44.9 7579 14810)"><tspan class="TextParagraph" font-family="Liberation Sans, sans-serif" font-size="353px" font-weight="400"><tspan class="TextPosition" x="7579" y="14810"><tspan fill="rgb(0,0,0)" stroke="none">Chlamydia_trachomatis</tspan></tspan></tspan></text>
 <text class="TextShape" transform="rotate(-44.9 9609 14810)"><tspan class="TextParagraph" font-family="Liberation Sans, sans-serif" font-size="353px" font-weight="400"><tspan class="TextPosition" x="9609" y="14810"><tspan fill="rgb(0,0,0)" stroke="none">Dictyoglomus_turgidum</tspan></tspan></tspan></text>
 <text class="TextShape" transform="rotate(-44.9 12406 14044)"><tspan class="TextParagraph" font-family="Liberation Sans, sans-serif" font-size="353px" font-weight="400"><tspan class="TextPosition" x="12406" y="14044"><tspan fill="rgb(0,0,0)" stroke="none">Escherichia_coli</tspan></tspan></tspan></text>
 <text class="TextShape" transform="rotate(-44.9 13071 15410)"><tspan class="TextParagraph" font-family="Liberation Sans, sans-serif" font-size="353px" font-weight="400"><tspan class="TextPosition" x="13071" y="15410"><tspan fill="rgb(0,0,0)" stroke="none">Fusobacterium_necrophorum</tspan></tspan></tspan></text>
 <text class="TextShape" transform="rotate(-44.9 15401 15110)"><tspan class="TextParagraph" font-family="Liberation Sans, sans-serif" font-size="353px" font-weight="400"><tspan class="TextPosition" x="15401" y="15110"><tspan fill="rgb(0,0,0)" stroke="none">Geobacter_sulfurreducens</tspan></tspan></tspan></text>
 <text class="TextShape" transform="rotate(-44.9 17805 14736)"><tspan class="TextParagraph" font-family="Liberation Sans, sans-serif" font-size="353px" font-weight="400"><tspan class="TextPosition" x="17805" y="14736"><tspan fill="rgb(0,0,0)" stroke="none">Gloeobacter_violaceus</tspan></tspan></tspan></text>
 <text class="TextShape" transform="rotate(-44.9 19856 14717)"><tspan class="TextParagraph" font-family="Liberation Sans, sans-serif" font-size="353px" font-weight="400"><tspan class="TextPosition" x="19856" y="14717"><tspan fill="rgb(0,0,0)" stroke="none">Leptospira_interrogans</tspan></tspan></tspan></text>
 <text class="TextShape" transform="rotate(-44.9 21230 15372)"><tspan class="TextParagraph" font-family="Liberation Sans, sans-serif" font-size="353px" font-weight="400"><tspan class="TextPosition" x="21230" y="15372"><tspan fill="rgb(0,0,0)" stroke="none">Mycobacterium_tuberculosis</tspan></tspan></tspan></text>
 <text class="TextShape" transform="rotate(-44.9 23505 15128)"><tspan class="TextParagraph" font-family="Liberation Sans, sans-serif" font-size="353px" font-weight="400"><tspan class="TextPosition" x="23505" y="15128"><tspan fill="rgb(0,0,0)" stroke="none">Pseudomonas_aeruginosa</tspan></tspan></tspan></text>
 <text class="TextShape" transform="rotate(-44.9 25797 14867)"><tspan class="TextParagraph" font-family="Liberation Sans, sans-serif" font-size="353px" font-weight="400"><tspan class="TextPosition" x="25797" y="14867"><tspan fill="rgb(0,0,0)" stroke="none">Pseudomonas_syringae</tspan></tspan></tspan></text>
 <text class="TextShape" transform="rotate(-44.9 28069 14624)"><tspan class="TextParagraph" font-family="Liberation Sans, sans-serif" font-size="353px" font-weight="400"><tspan class="TextPosition" x="28069" y="14624"><tspan fill="rgb(0,0,0)" stroke="none">Rhodopirellula_baltica</tspan></tspan></tspan></text>
 <text class="TextShape" transform="rotate(-44.9 30455 14268)"><tspan class="TextParagraph" font-family="Liberation Sans, sans-serif" font-size="353px" font-weight="400"><tspan class="TextPosition" x="30455" y="14268"><tspan fill="rgb(0,0,0)" stroke="none">Synechocystis_sp</tspan></tspan></tspan></text>
 <text class="TextShape" transform="rotate(-44.9 30913 15840)"><tspan class="TextParagraph" font-family="Liberation Sans, sans-serif" font-size="353px" font-weight="400"><tspan class="TextPosition" x="30913" y="15840"><tspan fill="rgb(0,0,0)" stroke="none">Thermodesulfovibrio_yellowstonii</tspan></tspan></tspan></text>
 <text class="TextShape"><tspan class="TextParagraph" font-family="Liberation Sans, sans-serif" font-size="353px" font-weight="400"><tspan class="TextPosition" x="2181" y="11912"><tspan fill="rgb(0,0,0)" stroke="none">0%</tspan></tspan></tspan></text>
 <text class="TextShape"><tspan class="TextParagraph" font-family="Liberation Sans, sans-serif" font-size="353px" font-weight="400"><tspan class="TextPosition" x="1996" y="10996"><tspan fill="rgb(0,0,0)" stroke="none">10%</tspan></tspan></tspan></text>
 <text class="TextShape"><tspan class="TextParagraph" font-family="Liberation Sans, sans-serif" font-size="353px" font-weight="400"><tspan class="TextPosition" x="1996" y="10081"><tspan fill="rgb(0,0,0)" stroke="none">20%</tspan></tspan></tspan></text>
 <text class="TextShape"><tspan class="TextParagraph" font-family="Liberation Sans, sans-serif" font-size="353px" font-weight="400"><tspan class="TextPosition" x="1996" y="9166"><tspan fill="rgb(0,0,0)" stroke="none">30%</tspan></tspan></tspan></text>
 <text class="TextShape"><tspan class="TextParagraph" font-family="Liberation Sans, sans-serif" font-size="353px" font-weight="400"><tspan class="TextPosition" x="1996" y="8251"><tspan fill="rgb(0,0,0)" stroke="none">40%</tspan></tspan></tspan></text>
 <text class="TextShape"><tspan class="TextParagraph" font-family="Liberation Sans, sans-serif" font-size="353px" font-weight="400"><tspan class="TextPosition" x="1996" y="7336"><tspan fill="rgb(0,0,0)" stroke="none">50%</tspan></tspan></tspan></text>
 <text class="TextShape"><tspan class="TextParagraph" font-family="Liberation Sans, sans-serif" font-size="353px" font-weight="400"><tspan class="TextPosition" x="1996" y="6421"><tspan fill="rgb(0,0,0)" stroke="none">60%</tspan></tspan></tspan></text>
 <text class="TextShape"><tspan class="TextParagraph" font-family="Liberation Sans, sans-serif" font-size="353px" font-weight="400"><tspan class="TextPosition" x="1996" y="5506"><tspan fill="rgb(0,0,0)" stroke="none">70%</tspan></tspan></tspan></text>
 <text class="TextShape"><tspan class="TextParagraph" font-family="Liberation Sans, sans-serif" font-size="353px" font-weight="400"><tspan class="TextPosition" x="1996" y="4591"><tspan fill="rgb(0,0,0)" stroke="none">80%</tspan></tspan></tspan></text>
 <text class="TextShape"><tspan class="TextParagraph" font-family="Liberation Sans, sans-serif" font-size="353px" font-weight="400"><tspan class="TextPosition" x="1996" y="3676"><tspan fill="rgb(0,0,0)" stroke="none">90%</tspan></tspan></tspan></text>
 <text class="TextShape"><tspan class="TextParagraph" font-family="Liberation Sans, sans-serif" font-size="353px" font-weight="400"><tspan class="TextPosition" x="1811" y="2761"><tspan fill="rgb(0,0,0)" stroke="none">100%</tspan></tspan></tspan></text>
 <text class="TextShape"><tspan class="TextParagraph" font-family="Liberation Sans, sans-serif" font-size="459px" font-weight="400"><tspan class="TextPosition" x="14915" y="1019"><tspan fill="rgb(0,0,0)" stroke="none">Bacteria Structural Repeat Distribution in Organism</tspan></tspan></tspan></text>
 <text class="TextShape"><tspan class="TextParagraph" font-family="Liberation Sans, sans-serif" font-size="388px" font-weight="400"><tspan class="TextPosition" x="17785" y="2097"><tspan fill="rgb(0,0,0)" stroke="none">(Total 649 repeat regions)</tspan></tspan></tspan></text>
 <path fill="rgb(0,69,134)" stroke="none" d="M 36441,11057 L 36335,11057 36335,10846 36546,10846 36546,11057 36441,11057 Z"/>
 <path fill="rgb(255,66,14)" stroke="none" d="M 36441,10559 L 36335,10559 36335,10348 36546,10348 36546,10559 36441,10559 Z"/>
 <path fill="rgb(255,211,32)" stroke="none" d="M 36441,10061 L 36335,10061 36335,9850 36546,9850 36546,10061 36441,10061 Z"/>
 <path fill="rgb(87,157,28)" stroke="none" d="M 36441,9563 L 36335,9563 36335,9352 36546,9352 36546,9563 36441,9563 Z"/>
 <path fill="rgb(126,0,33)" stroke="none" d="M 36441,9065 L 36335,9065 36335,8854 36546,8854 36546,9065 36441,9065 Z"/>
 <path fill="rgb(131,202,255)" stroke="none" d="M 36441,8568 L 36335,8568 36335,8357 36546,8357 36546,8568 36441,8568 Z"/>
 <path fill="rgb(49,64,4)" stroke="none" d="M 36441,8070 L 36335,8070 36335,7859 36546,7859 36546,8070 36441,8070 Z"/>
 <path fill="rgb(174,207,0)" stroke="none" d="M 36441,7572 L 36335,7572 36335,7361 36546,7361 36546,7572 36441,7572 Z"/>
 <path fill="rgb(75,31,111)" stroke="none" d="M 36441,7074 L 36335,7074 36335,6863 36546,6863 36546,7074 36441,7074 Z"/>
 <path fill="rgb(255,149,14)" stroke="none" d="M 36441,6576 L 36335,6576 36335,6365 36546,6365 36546,6576 36441,6576 Z"/>
 <text class="TextShape"><tspan class="TextParagraph" font-family="Liberation Sans, sans-serif" font-size="353px" font-weight="400"><tspan class="TextPosition" x="36646" y="6590"><tspan fill="rgb(0,0,0)" stroke="none">Zinc Finger</tspan></tspan></tspan></text>
 <text class="TextShape"><tspan class="TextParagraph" font-family="Liberation Sans, sans-serif" font-size="353px" font-weight="400"><tspan class="TextPosition" x="36646" y="7088"><tspan fill="rgb(0,0,0)" stroke="none">AlphaBeta Solenoid</tspan></tspan></tspan></text>
 <text class="TextShape"><tspan class="TextParagraph" font-family="Liberation Sans, sans-serif" font-size="353px" font-weight="400"><tspan class="TextPosition" x="36646" y="7586"><tspan fill="rgb(0,0,0)" stroke="none">Other Beads </tspan></tspan></tspan></text>
 <text class="TextShape"><tspan class="TextParagraph" font-family="Liberation Sans, sans-serif" font-size="353px" font-weight="400"><tspan class="TextPosition" x="36646" y="8084"><tspan fill="rgb(0,0,0)" stroke="none">Beta Propeller</tspan></tspan></tspan></text>
 <text class="TextShape"><tspan class="TextParagraph" font-family="Liberation Sans, sans-serif" font-size="353px" font-weight="400"><tspan class="TextPosition" x="36646" y="8582"><tspan fill="rgb(0,0,0)" stroke="none">Tim Barrel</tspan></tspan></tspan></text>
 <text class="TextShape"><tspan class="TextParagraph" font-family="Liberation Sans, sans-serif" font-size="353px" font-weight="400"><tspan class="TextPosition" x="36646" y="9079"><tspan fill="rgb(0,0,0)" stroke="none">Beta Barrel</tspan></tspan></tspan></text>
 <text class="TextShape"><tspan class="TextParagraph" font-family="Liberation Sans, sans-serif" font-size="353px" font-weight="400"><tspan class="TextPosition" x="36646" y="9577"><tspan fill="rgb(0,0,0)" stroke="none">Beta Solenoid</tspan></tspan></tspan></text>
 <text class="TextShape"><tspan class="TextParagraph" font-family="Liberation Sans, sans-serif" font-size="353px" font-weight="400"><tspan class="TextPosition" x="36646" y="10075"><tspan fill="rgb(0,0,0)" stroke="none">Other elongated St</tspan></tspan></tspan></text>
 <text class="TextShape"><tspan class="TextParagraph" font-family="Liberation Sans, sans-serif" font-size="353px" font-weight="400"><tspan class="TextPosition" x="36646" y="10573"><tspan fill="rgb(0,0,0)" stroke="none">Alpha Solenoids</tspan></tspan></tspan></text>
 <text class="TextShape"><tspan class="TextParagraph" font-family="Liberation Sans, sans-serif" font-size="353px" font-weight="400"><tspan class="TextPosition" x="36646" y="11071"><tspan fill="rgb(0,0,0)" stroke="none">Other closed St</tspan></tspan></tspan></text>
 <text class="TextShape"><tspan class="TextParagraph" font-family="Liberation Sans, sans-serif" font-size="318px" font-weight="400"><tspan class="TextPosition" x="17914" y="16830"><tspan fill="rgb(0,0,0)" stroke="none">Organism</tspan></tspan></tspan></text>
 <text class="TextShape" transform="rotate(-90 837 11458)"><tspan class="TextParagraph" font-family="Liberation Sans, sans-serif" font-size="318px" font-weight="400"><tspan class="TextPosition" x="837" y="11458"><tspan fill="rgb(0,0,0)" stroke="none">Percentage of repeat regions</tspan></tspan></tspan></text>
</svg>