<?xml version="1.0" encoding="UTF-8"?>
<!DOCTYPE svg PUBLIC "-//W3C//DTD SVG 1.1//EN" "http://www.w3.org/Graphics/SVG/1.1/DTD/svg11.dtd">
<svg width="327mm" height="195mm" viewBox="0 0 32700 19500" version="1.1" xmlns="http://www.w3.org/2000/svg" xmlns:xlink="http://www.w3.org/1999/xlink" stroke-width="28.222" stroke-linejoin="round" xml:space="preserve">
 <path fill="rgb(255,255,255)" stroke="none" d="M 16369,19470 L 0,19470 0,0 32737,0 32737,19470 16369,19470 Z"/>
 <path fill="none" stroke="rgb(179,179,179)" stroke-linejoin="round" d="M 15586,13797 L 2859,13797 2859,2765 28312,2765 28312,13797 15586,13797 Z"/>
 <path fill="none" stroke="rgb(179,179,179)" stroke-linejoin="round" d="M 28312,13796 L 2859,13796"/>
 <path fill="none" stroke="rgb(179,179,179)" stroke-linejoin="round" d="M 28312,12692 L 2859,12692"/>
 <path fill="none" stroke="rgb(179,179,179)" stroke-linejoin="round" d="M 28312,11589 L 2859,11589"/>
 <path fill="none" stroke="rgb(179,179,179)" stroke-linejoin="round" d="M 28312,10486 L 2859,10486"/>
 <path fill="none" stroke="rgb(179,179,179)" stroke-linejoin="round" d="M 28312,9383 L 2859,9383"/>
 <path fill="none" stroke="rgb(179,179,179)" stroke-linejoin="round" d="M 28312,8280 L 2859,8280"/>
 <path fill="none" stroke="rgb(179,179,179)" stroke-linejoin="round" d="M 28312,7177 L 2859,7177"/>
 <path fill="none" stroke="rgb(179,179,179)" stroke-linejoin="round" d="M 28312,6073 L 2859,6073"/>
 <path fill="none" stroke="rgb(179,179,179)" stroke-linejoin="round" d="M 28312,4970 L 2859,4970"/>
 <path fill="none" stroke="rgb(179,179,179)" stroke-linejoin="round" d="M 28312,3867 L 2859,3867"/>
 <path fill="none" stroke="rgb(179,179,179)" stroke-linejoin="round" d="M 28312,2764 L 2859,2764"/>
 <path fill="none" stroke="rgb(179,179,179)" stroke-linejoin="round" d="M 2859,13946 L 2859,13796"/>
 <path fill="none" stroke="rgb(179,179,179)" stroke-linejoin="round" d="M 2859,13946 L 2859,13796"/>
 <path fill="none" stroke="rgb(179,179,179)" stroke-linejoin="round" d="M 4449,13946 L 4449,13796"/>
 <path fill="none" stroke="rgb(179,179,179)" stroke-linejoin="round" d="M 4449,13946 L 4449,13796"/>
 <path fill="none" stroke="rgb(179,179,179)" stroke-linejoin="round" d="M 6040,13946 L 6040,13796"/>
 <path fill="none" stroke="rgb(179,179,179)" stroke-linejoin="round" d="M 6040,13946 L 6040,13796"/>
 <path fill="none" stroke="rgb(179,179,179)" stroke-linejoin="round" d="M 7631,13946 L 7631,13796"/>
 <path fill="none" stroke="rgb(179,179,179)" stroke-linejoin="round" d="M 7631,13946 L 7631,13796"/>
 <path fill="none" stroke="rgb(179,179,179)" stroke-linejoin="round" d="M 9222,13946 L 9222,13796"/>
 <path fill="none" stroke="rgb(179,179,179)" stroke-linejoin="round" d="M 9222,13946 L 9222,13796"/>
 <path fill="none" stroke="rgb(179,179,179)" stroke-linejoin="round" d="M 10813,13946 L 10813,13796"/>
 <path fill="none" stroke="rgb(179,179,179)" stroke-linejoin="round" d="M 10813,13946 L 10813,13796"/>
 <path fill="none" stroke="rgb(179,179,179)" stroke-linejoin="round" d="M 12404,13946 L 12404,13796"/>
 <path fill="none" stroke="rgb(179,179,179)" stroke-linejoin="round" d="M 12404,13946 L 12404,13796"/>
 <path fill="none" stroke="rgb(179,179,179)" stroke-linejoin="round" d="M 13995,13946 L 13995,13796"/>
 <path fill="none" stroke="rgb(179,179,179)" stroke-linejoin="round" d="M 13995,13946 L 13995,13796"/>
 <path fill="none" stroke="rgb(179,179,179)" stroke-linejoin="round" d="M 15586,13946 L 15586,13796"/>
 <path fill="none" stroke="rgb(179,179,179)" stroke-linejoin="round" d="M 15586,13946 L 15586,13796"/>
 <path fill="none" stroke="rgb(179,179,179)" stroke-linejoin="round" d="M 17175,13946 L 17175,13796"/>
 <path fill="none" stroke="rgb(179,179,179)" stroke-linejoin="round" d="M 17175,13946 L 17175,13796"/>
 <path fill="none" stroke="rgb(179,179,179)" stroke-linejoin="round" d="M 18766,13946 L 18766,13796"/>
 <path fill="none" stroke="rgb(179,179,179)" stroke-linejoin="round" d="M 18766,13946 L 18766,13796"/>
 <path fill="none" stroke="rgb(179,179,179)" stroke-linejoin="round" d="M 20357,13946 L 20357,13796"/>
 <path fill="none" stroke="rgb(179,179,179)" stroke-linejoin="round" d="M 20357,13946 L 20357,13796"/>
 <path fill="none" stroke="rgb(179,179,179)" stroke-linejoin="round" d="M 21948,13946 L 21948,13796"/>
 <path fill="none" stroke="rgb(179,179,179)" stroke-linejoin="round" d="M 21948,13946 L 21948,13796"/>
 <path fill="none" stroke="rgb(179,179,179)" stroke-linejoin="round" d="M 23539,13946 L 23539,13796"/>
 <path fill="none" stroke="rgb(179,179,179)" stroke-linejoin="round" d="M 23539,13946 L 23539,13796"/>
 <path fill="none" stroke="rgb(179,179,179)" stroke-linejoin="round" d="M 25130,13946 L 25130,13796"/>
 <path fill="none" stroke="rgb(179,179,179)" stroke-linejoin="round" d="M 25130,13946 L 25130,13796"/>
 <path fill="none" stroke="rgb(179,179,179)" stroke-linejoin="round" d="M 26721,13946 L 26721,13796"/>
 <path fill="none" stroke="rgb(179,179,179)" stroke-linejoin="round" d="M 26721,13946 L 26721,13796"/>
 <path fill="none" stroke="rgb(179,179,179)" stroke-linejoin="round" d="M 28312,13946 L 28312,13796"/>
 <path fill="none" stroke="rgb(179,179,179)" stroke-linejoin="round" d="M 28312,13946 L 28312,13796"/>
 <path fill="none" stroke="rgb(179,179,179)" stroke-linejoin="round" d="M 2859,13796 L 28312,13796"/>
 <path fill="none" stroke="rgb(179,179,179)" stroke-linejoin="round" d="M 2709,13796 L 2859,13796"/>
 <path fill="none" stroke="rgb(179,179,179)" stroke-linejoin="round" d="M 2709,13796 L 2859,13796"/>
 <path fill="none" stroke="rgb(179,179,179)" stroke-linejoin="round" d="M 2709,12692 L 2859,12692"/>
 <path fill="none" stroke="rgb(179,179,179)" stroke-linejoin="round" d="M 2709,12692 L 2859,12692"/>
 <path fill="none" stroke="rgb(179,179,179)" stroke-linejoin="round" d="M 2709,11589 L 2859,11589"/>
 <path fill="none" stroke="rgb(179,179,179)" stroke-linejoin="round" d="M 2709,11589 L 2859,11589"/>
 <path fill="none" stroke="rgb(179,179,179)" stroke-linejoin="round" d="M 2709,10486 L 2859,10486"/>
 <path fill="none" stroke="rgb(179,179,179)" stroke-linejoin="round" d="M 2709,10486 L 2859,10486"/>
 <path fill="none" stroke="rgb(179,179,179)" stroke-linejoin="round" d="M 2709,9383 L 2859,9383"/>
 <path fill="none" stroke="rgb(179,179,179)" stroke-linejoin="round" d="M 2709,9383 L 2859,9383"/>
 <path fill="none" stroke="rgb(179,179,179)" stroke-linejoin="round" d="M 2709,8280 L 2859,8280"/>
 <path fill="none" stroke="rgb(179,179,179)" stroke-linejoin="round" d="M 2709,8280 L 2859,8280"/>
 <path fill="none" stroke="rgb(179,179,179)" stroke-linejoin="round" d="M 2709,7177 L 2859,7177"/>
 <path fill="none" stroke="rgb(179,179,179)" stroke-linejoin="round" d="M 2709,7177 L 2859,7177"/>
 <path fill="none" stroke="rgb(179,179,179)" stroke-linejoin="round" d="M 2709,6073 L 2859,6073"/>
 <path fill="none" stroke="rgb(179,179,179)" stroke-linejoin="round" d="M 2709,6073 L 2859,6073"/>
 <path fill="none" stroke="rgb(179,179,179)" stroke-linejoin="round" d="M 2709,4970 L 2859,4970"/>
 <path fill="none" stroke="rgb(179,179,179)" stroke-linejoin="round" d="M 2709,4970 L 2859,4970"/>
 <path fill="none" stroke="rgb(179,179,179)" stroke-linejoin="round" d="M 2709,3867 L 2859,3867"/>
 <path fill="none" stroke="rgb(179,179,179)" stroke-linejoin="round" d="M 2709,3867 L 2859,3867"/>
 <path fill="none" stroke="rgb(179,179,179)" stroke-linejoin="round" d="M 2709,2764 L 2859,2764"/>
 <path fill="none" stroke="rgb(179,179,179)" stroke-linejoin="round" d="M 2709,2764 L 2859,2764"/>
 <path fill="none" stroke="rgb(179,179,179)" stroke-linejoin="round" d="M 2859,13796 L 2859,2764"/>
 <path fill="rgb(0,69,134)" stroke="none" d="M 27118,13796 L 27914,13796 27914,13796 27118,13796 Z"/>
 <path fill="rgb(0,69,134)" stroke="none" d="M 25527,13796 L 26323,13796 26323,13796 25527,13796 Z"/>
 <path fill="rgb(0,69,134)" stroke="none" d="M 23937,13796 L 24732,13796 24732,13796 23937,13796 Z"/>
 <path fill="rgb(0,69,134)" stroke="none" d="M 22346,13796 L 23141,13796 23141,13796 22346,13796 Z"/>
 <path fill="rgb(0,69,134)" stroke="none" d="M 20755,13796 L 21550,13796 21550,13796 20755,13796 Z"/>
 <path fill="rgb(0,69,134)" stroke="none" d="M 19164,13796 L 19959,13796 19959,13796 19164,13796 Z"/>
 <path fill="rgb(0,69,134)" stroke="none" d="M 17573,13796 L 18369,13796 18369,13796 17573,13796 Z"/>
 <path fill="rgb(0,69,134)" stroke="none" d="M 15983,13796 L 16778,13796 16778,13796 15983,13796 Z"/>
 <path fill="rgb(0,69,134)" stroke="none" d="M 14392,13796 L 15188,13796 15188,13796 14392,13796 Z"/>
 <path fill="rgb(0,69,134)" stroke="none" d="M 12801,13796 L 13597,13796 13597,13796 12801,13796 Z"/>
 <path fill="rgb(0,69,134)" stroke="none" d="M 11211,13796 L 12006,13796 12006,13796 11211,13796 Z"/>
 <path fill="rgb(0,69,134)" stroke="none" d="M 9620,13796 L 10415,13796 10415,13796 9620,13796 Z"/>
 <path fill="rgb(0,69,134)" stroke="none" d="M 8029,13796 L 8824,13796 8824,13796 8029,13796 Z"/>
 <path fill="rgb(0,69,134)" stroke="none" d="M 6438,13796 L 7233,13796 7233,13796 6438,13796 Z"/>
 <path fill="rgb(0,69,134)" stroke="none" d="M 4847,13796 L 5643,13796 5643,13796 4847,13796 Z"/>
 <path fill="rgb(0,69,134)" stroke="none" d="M 3256,13796 L 4052,13796 4052,13796 3256,13796 Z"/>
 <path fill="rgb(255,66,14)" stroke="none" d="M 27118,13796 L 27914,13796 27914,13796 27118,13796 Z"/>
 <path fill="rgb(255,66,14)" stroke="none" d="M 25527,13796 L 26323,13796 26323,13796 25527,13796 Z"/>
 <path fill="rgb(255,66,14)" stroke="none" d="M 23937,13796 L 24732,13796 24732,13796 23937,13796 Z"/>
 <path fill="rgb(255,66,14)" stroke="none" d="M 22346,13796 L 23141,13796 23141,13796 22346,13796 Z"/>
 <path fill="rgb(255,66,14)" stroke="none" d="M 20755,13796 L 21550,13796 21550,12692 20755,12692 20755,13796 Z"/>
 <path fill="rgb(255,66,14)" stroke="none" d="M 19164,13796 L 19959,13796 19959,10643 19164,10643 19164,13796 Z"/>
 <path fill="rgb(255,66,14)" stroke="none" d="M 17573,13796 L 18369,13796 18369,13796 17573,13796 Z"/>
 <path fill="rgb(255,66,14)" stroke="none" d="M 15983,13796 L 16778,13796 16778,11037 15983,11037 15983,13796 Z"/>
 <path fill="rgb(255,66,14)" stroke="none" d="M 14392,13796 L 15188,13796 15188,13796 14392,13796 Z"/>
 <path fill="rgb(255,66,14)" stroke="none" d="M 12801,13796 L 13597,13796 13597,13796 12801,13796 Z"/>
 <path fill="rgb(255,66,14)" stroke="none" d="M 11211,13796 L 12006,13796 12006,13796 11211,13796 Z"/>
 <path fill="rgb(255,66,14)" stroke="none" d="M 9620,13796 L 10415,13796 10415,13796 9620,13796 Z"/>
 <path fill="rgb(255,66,14)" stroke="none" d="M 8029,13796 L 8824,13796 8824,13796 8029,13796 Z"/>
 <path fill="rgb(255,66,14)" stroke="none" d="M 6438,13796 L 7233,13796 7233,13796 6438,13796 Z"/>
 <path fill="rgb(255,66,14)" stroke="none" d="M 4847,13796 L 5643,13796 5643,13796 4847,13796 Z"/>
 <path fill="rgb(255,66,14)" stroke="none" d="M 3256,13796 L 4052,13796 4052,13796 3256,13796 Z"/>
 <path fill="rgb(255,211,32)" stroke="none" d="M 27118,13796 L 27914,13796 27914,13796 27118,13796 Z"/>
 <path fill="rgb(255,211,32)" stroke="none" d="M 25527,13796 L 26323,13796 26323,13796 25527,13796 Z"/>
 <path fill="rgb(255,211,32)" stroke="none" d="M 23937,13796 L 24732,13796 24732,13796 23937,13796 Z"/>
 <path fill="rgb(255,211,32)" stroke="none" d="M 22346,13796 L 23141,13796 23141,13796 22346,13796 Z"/>
 <path fill="rgb(255,211,32)" stroke="none" d="M 17573,13796 L 18369,13796 18369,13796 17573,13796 Z"/>
 <path fill="rgb(255,211,32)" stroke="none" d="M 14392,13796 L 15188,13796 15188,13796 14392,13796 Z"/>
 <path fill="rgb(255,211,32)" stroke="none" d="M 12801,13796 L 13597,13796 13597,13796 12801,13796 Z"/>
 <path fill="rgb(255,211,32)" stroke="none" d="M 11211,13796 L 12006,13796 12006,13796 11211,13796 Z"/>
 <path fill="rgb(255,211,32)" stroke="none" d="M 9620,13796 L 10415,13796 10415,13796 9620,13796 Z"/>
 <path fill="rgb(255,211,32)" stroke="none" d="M 8029,13796 L 8824,13796 8824,13796 8029,13796 Z"/>
 <path fill="rgb(255,211,32)" stroke="none" d="M 6438,13796 L 7233,13796 7233,13796 6438,13796 Z"/>
 <path fill="rgb(255,211,32)" stroke="none" d="M 4847,13796 L 5643,13796 5643,13796 4847,13796 Z"/>
 <path fill="rgb(255,211,32)" stroke="none" d="M 3256,13796 L 4052,13796 4052,13796 3256,13796 Z"/>
 <path fill="rgb(87,157,28)" stroke="none" d="M 27118,13796 L 27914,13796 27914,13796 27118,13796 Z"/>
 <path fill="rgb(87,157,28)" stroke="none" d="M 25527,13796 L 26323,13796 26323,2764 25527,2764 25527,13796 Z"/>
 <path fill="rgb(87,157,28)" stroke="none" d="M 23937,13796 L 24732,13796 24732,13796 23937,13796 Z"/>
 <path fill="rgb(87,157,28)" stroke="none" d="M 22346,13796 L 23141,13796 23141,13796 22346,13796 Z"/>
 <path fill="rgb(87,157,28)" stroke="none" d="M 19164,10643 L 19959,10643 19959,9068 19164,9068 19164,10643 Z"/>
 <path fill="rgb(87,157,28)" stroke="none" d="M 17573,13796 L 18369,13796 18369,13796 17573,13796 Z"/>
 <path fill="rgb(87,157,28)" stroke="none" d="M 14392,13796 L 15188,13796 15188,13796 14392,13796 Z"/>
 <path fill="rgb(87,157,28)" stroke="none" d="M 12801,13796 L 13597,13796 13597,13796 12801,13796 Z"/>
 <path fill="rgb(87,157,28)" stroke="none" d="M 11211,13796 L 12006,13796 12006,13796 11211,13796 Z"/>
 <path fill="rgb(87,157,28)" stroke="none" d="M 9620,13796 L 10415,13796 10415,13796 9620,13796 Z"/>
 <path fill="rgb(87,157,28)" stroke="none" d="M 8029,13796 L 8824,13796 8824,13796 8029,13796 Z"/>
 <path fill="rgb(87,157,28)" stroke="none" d="M 6438,13796 L 7233,13796 7233,13796 6438,13796 Z"/>
 <path fill="rgb(87,157,28)" stroke="none" d="M 4847,13796 L 5643,13796 5643,13796 4847,13796 Z"/>
 <path fill="rgb(87,157,28)" stroke="none" d="M 3256,13796 L 4052,13796 4052,13796 3256,13796 Z"/>
 <path fill="rgb(126,0,33)" stroke="none" d="M 27118,13796 L 27914,13796 27914,13796 27118,13796 Z"/>
 <path fill="rgb(126,0,33)" stroke="none" d="M 23937,13796 L 24732,13796 24732,13796 23937,13796 Z"/>
 <path fill="rgb(126,0,33)" stroke="none" d="M 22346,13796 L 23141,13796 23141,13796 22346,13796 Z"/>
 <path fill="rgb(126,0,33)" stroke="none" d="M 20755,12692 L 21550,12692 21550,11589 20755,11589 20755,12692 Z"/>
 <path fill="rgb(126,0,33)" stroke="none" d="M 19164,9068 L 19959,9068 19959,5916 19164,5916 19164,9068 Z"/>
 <path fill="rgb(126,0,33)" stroke="none" d="M 17573,13796 L 18369,13796 18369,13796 17573,13796 Z"/>
 <path fill="rgb(126,0,33)" stroke="none" d="M 14392,13796 L 15188,13796 15188,13796 14392,13796 Z"/>
 <path fill="rgb(126,0,33)" stroke="none" d="M 12801,13796 L 13597,13796 13597,13796 12801,13796 Z"/>
 <path fill="rgb(126,0,33)" stroke="none" d="M 11211,13796 L 12006,13796 12006,13796 11211,13796 Z"/>
 <path fill="rgb(126,0,33)" stroke="none" d="M 9620,13796 L 10415,13796 10415,13796 9620,13796 Z"/>
 <path fill="rgb(126,0,33)" stroke="none" d="M 8029,13796 L 8824,13796 8824,13796 8029,13796 Z"/>
 <path fill="rgb(126,0,33)" stroke="none" d="M 6438,13796 L 7233,13796 7233,13796 6438,13796 Z"/>
 <path fill="rgb(126,0,33)" stroke="none" d="M 4847,13796 L 5643,13796 5643,13796 4847,13796 Z"/>
 <path fill="rgb(126,0,33)" stroke="none" d="M 3256,13796 L 4052,13796 4052,13796 3256,13796 Z"/>
 <path fill="rgb(131,202,255)" stroke="none" d="M 27118,13796 L 27914,13796 27914,13796 27118,13796 Z"/>
 <path fill="rgb(131,202,255)" stroke="none" d="M 23937,13796 L 24732,13796 24732,13796 23937,13796 Z"/>
 <path fill="rgb(131,202,255)" stroke="none" d="M 22346,13796 L 23141,13796 23141,13796 22346,13796 Z"/>
 <path fill="rgb(131,202,255)" stroke="none" d="M 17573,13796 L 18369,13796 18369,13796 17573,13796 Z"/>
 <path fill="rgb(131,202,255)" stroke="none" d="M 14392,13796 L 15188,13796 15188,13796 14392,13796 Z"/>
 <path fill="rgb(131,202,255)" stroke="none" d="M 12801,13796 L 13597,13796 13597,13796 12801,13796 Z"/>
 <path fill="rgb(131,202,255)" stroke="none" d="M 11211,13796 L 12006,13796 12006,13796 11211,13796 Z"/>
 <path fill="rgb(131,202,255)" stroke="none" d="M 9620,13796 L 10415,13796 10415,13796 9620,13796 Z"/>
 <path fill="rgb(131,202,255)" stroke="none" d="M 8029,13796 L 8824,13796 8824,13796 8029,13796 Z"/>
 <path fill="rgb(131,202,255)" stroke="none" d="M 6438,13796 L 7233,13796 7233,13796 6438,13796 Z"/>
 <path fill="rgb(131,202,255)" stroke="none" d="M 4847,13796 L 5643,13796 5643,13796 4847,13796 Z"/>
 <path fill="rgb(131,202,255)" stroke="none" d="M 3256,13796 L 4052,13796 4052,13796 3256,13796 Z"/>
 <path fill="rgb(49,64,4)" stroke="none" d="M 27118,13796 L 27914,13796 27914,13796 27118,13796 Z"/>
 <path fill="rgb(49,64,4)" stroke="none" d="M 23937,13796 L 24732,13796 24732,13796 23937,13796 Z"/>
 <path fill="rgb(49,64,4)" stroke="none" d="M 22346,13796 L 23141,13796 23141,13796 22346,13796 Z"/>
 <path fill="rgb(49,64,4)" stroke="none" d="M 17573,13796 L 18369,13796 18369,13796 17573,13796 Z"/>
 <path fill="rgb(49,64,4)" stroke="none" d="M 14392,13796 L 15188,13796 15188,13796 14392,13796 Z"/>
 <path fill="rgb(49,64,4)" stroke="none" d="M 12801,13796 L 13597,13796 13597,13796 12801,13796 Z"/>
 <path fill="rgb(49,64,4)" stroke="none" d="M 11211,13796 L 12006,13796 12006,13796 11211,13796 Z"/>
 <path fill="rgb(49,64,4)" stroke="none" d="M 9620,13796 L 10415,13796 10415,13796 9620,13796 Z"/>
 <path fill="rgb(49,64,4)" stroke="none" d="M 8029,13796 L 8824,13796 8824,13796 8029,13796 Z"/>
 <path fill="rgb(49,64,4)" stroke="none" d="M 6438,13796 L 7233,13796 7233,13796 6438,13796 Z"/>
 <path fill="rgb(49,64,4)" stroke="none" d="M 4847,13796 L 5643,13796 5643,13796 4847,13796 Z"/>
 <path fill="rgb(49,64,4)" stroke="none" d="M 3256,13796 L 4052,13796 4052,13796 3256,13796 Z"/>
 <path fill="rgb(174,207,0)" stroke="none" d="M 27118,13796 L 27914,13796 27914,13796 27118,13796 Z"/>
 <path fill="rgb(174,207,0)" stroke="none" d="M 23937,13796 L 24732,13796 24732,13796 23937,13796 Z"/>
 <path fill="rgb(174,207,0)" stroke="none" d="M 22346,13796 L 23141,13796 23141,13796 22346,13796 Z"/>
 <path fill="rgb(174,207,0)" stroke="none" d="M 20755,11589 L 21550,11589 21550,4970 20755,4970 20755,11589 Z"/>
 <path fill="rgb(174,207,0)" stroke="none" d="M 19164,5916 L 19959,5916 19959,2764 19164,2764 19164,5916 Z"/>
 <path fill="rgb(174,207,0)" stroke="none" d="M 17573,13796 L 18369,13796 18369,13796 17573,13796 Z"/>
 <path fill="rgb(174,207,0)" stroke="none" d="M 14392,13796 L 15188,13796 15188,2764 14392,2764 14392,13796 Z"/>
 <path fill="rgb(174,207,0)" stroke="none" d="M 12801,13796 L 13597,13796 13597,13796 12801,13796 Z"/>
 <path fill="rgb(174,207,0)" stroke="none" d="M 11211,13796 L 12006,13796 12006,13796 11211,13796 Z"/>
 <path fill="rgb(174,207,0)" stroke="none" d="M 9620,13796 L 10415,13796 10415,13796 9620,13796 Z"/>
 <path fill="rgb(174,207,0)" stroke="none" d="M 8029,13796 L 8824,13796 8824,13796 8029,13796 Z"/>
 <path fill="rgb(174,207,0)" stroke="none" d="M 6438,13796 L 7233,13796 7233,13796 6438,13796 Z"/>
 <path fill="rgb(174,207,0)" stroke="none" d="M 4847,13796 L 5643,13796 5643,13796 4847,13796 Z"/>
 <path fill="rgb(174,207,0)" stroke="none" d="M 3256,13796 L 4052,13796 4052,13796 3256,13796 Z"/>
 <path fill="rgb(75,31,111)" stroke="none" d="M 27118,13796 L 27914,13796 27914,13796 27118,13796 Z"/>
 <path fill="rgb(75,31,111)" stroke="none" d="M 23937,13796 L 24732,13796 24732,13796 23937,13796 Z"/>
 <path fill="rgb(75,31,111)" stroke="none" d="M 22346,13796 L 23141,13796 23141,13796 22346,13796 Z"/>
 <path fill="rgb(75,31,111)" stroke="none" d="M 17573,13796 L 18369,13796 18369,13796 17573,13796 Z"/>
 <path fill="rgb(75,31,111)" stroke="none" d="M 12801,13796 L 13597,13796 13597,13796 12801,13796 Z"/>
 <path fill="rgb(75,31,111)" stroke="none" d="M 11211,13796 L 12006,13796 12006,13796 11211,13796 Z"/>
 <path fill="rgb(75,31,111)" stroke="none" d="M 9620,13796 L 10415,13796 10415,13796 9620,13796 Z"/>
 <path fill="rgb(75,31,111)" stroke="none" d="M 8029,13796 L 8824,13796 8824,13796 8029,13796 Z"/>
 <path fill="rgb(75,31,111)" stroke="none" d="M 6438,13796 L 7233,13796 7233,13796 6438,13796 Z"/>
 <path fill="rgb(75,31,111)" stroke="none" d="M 4847,13796 L 5643,13796 5643,13796 4847,13796 Z"/>
 <path fill="rgb(75,31,111)" stroke="none" d="M 3256,13796 L 4052,13796 4052,13796 3256,13796 Z"/>
 <path fill="rgb(255,149,14)" stroke="none" d="M 27118,13796 L 27914,13796 27914,13796 27118,13796 Z"/>
 <path fill="rgb(255,149,14)" stroke="none" d="M 23937,13796 L 24732,13796 24732,13796 23937,13796 Z"/>
 <path fill="rgb(255,149,14)" stroke="none" d="M 22346,13796 L 23141,13796 23141,13796 22346,13796 Z"/>
 <path fill="rgb(255,149,14)" stroke="none" d="M 20755,4970 L 21550,4970 21550,2764 20755,2764 20755,4970 Z"/>
 <path fill="rgb(255,149,14)" stroke="none" d="M 17573,13796 L 18369,13796 18369,13796 17573,13796 Z"/>
 <path fill="rgb(255,149,14)" stroke="none" d="M 15983,11037 L 16778,11037 16778,2764 15983,2764 15983,11037 Z"/>
 <path fill="rgb(255,149,14)" stroke="none" d="M 12801,13796 L 13597,13796 13597,13796 12801,13796 Z"/>
 <path fill="rgb(255,149,14)" stroke="none" d="M 11211,13796 L 12006,13796 12006,13796 11211,13796 Z"/>
 <path fill="rgb(255,149,14)" stroke="none" d="M 9620,13796 L 10415,13796 10415,13796 9620,13796 Z"/>
 <path fill="rgb(255,149,14)" stroke="none" d="M 8029,13796 L 8824,13796 8824,13796 8029,13796 Z"/>
 <path fill="rgb(255,149,14)" stroke="none" d="M 6438,13796 L 7233,13796 7233,13796 6438,13796 Z"/>
 <path fill="rgb(255,149,14)" stroke="none" d="M 4847,13796 L 5643,13796 5643,13796 4847,13796 Z"/>
 <path fill="rgb(255,149,14)" stroke="none" d="M 3256,13796 L 4052,13796 4052,13796 3256,13796 Z"/>
 <text class="TextShape" transform="rotate(-44.9 1885 16123)"><tspan class="TextParagraph" font-family="Liberation Sans, sans-serif" font-size="353px" font-weight="400"><tspan class="TextPosition" x="1885" y="16123"><tspan fill="rgb(0,0,0)" stroke="none">Aquifex_aeolicus</tspan></tspan></tspan></text>
 <text class="TextShape" transform="rotate(-44.9 3569 16030)"><tspan class="TextParagraph" font-family="Liberation Sans, sans-serif" font-size="353px" font-weight="400"><tspan class="TextPosition" x="3569" y="16030"><tspan fill="rgb(0,0,0)" stroke="none">Bacillus_subtilis</tspan></tspan></tspan></text>
 <text class="TextShape" transform="rotate(-44.9 3701 17489)"><tspan class="TextParagraph" font-family="Liberation Sans, sans-serif" font-size="353px" font-weight="400"><tspan class="TextPosition" x="3701" y="17489"><tspan fill="rgb(0,0,0)" stroke="none">Bacteroides_thetaiotaomicron</tspan></tspan></tspan></text>
 <text class="TextShape" transform="rotate(-44.9 5966 16815)"><tspan class="TextParagraph" font-family="Liberation Sans, sans-serif" font-size="353px" font-weight="400"><tspan class="TextPosition" x="5966" y="16815"><tspan fill="rgb(0,0,0)" stroke="none">Chlamydia_trachomatis</tspan></tspan></tspan></text>
 <text class="TextShape" transform="rotate(-44.9 7556 16815)"><tspan class="TextParagraph" font-family="Liberation Sans, sans-serif" font-size="353px" font-weight="400"><tspan class="TextPosition" x="7556" y="16815"><tspan fill="rgb(0,0,0)" stroke="none">Dictyoglomus_turgidum</tspan></tspan></tspan></text>
 <text class="TextShape" transform="rotate(-44.9 9913 16049)"><tspan class="TextParagraph" font-family="Liberation Sans, sans-serif" font-size="353px" font-weight="400"><tspan class="TextPosition" x="9913" y="16049"><tspan fill="rgb(0,0,0)" stroke="none">Escherichia_coli</tspan></tspan></tspan></text>
 <text class="TextShape" transform="rotate(-44.9 10139 17415)"><tspan class="TextParagraph" font-family="Liberation Sans, sans-serif" font-size="353px" font-weight="400"><tspan class="TextPosition" x="10139" y="17415"><tspan fill="rgb(0,0,0)" stroke="none">Fusobacterium_necrophorum</tspan></tspan></tspan></text>
 <text class="TextShape" transform="rotate(-44.9 12029 17115)"><tspan class="TextParagraph" font-family="Liberation Sans, sans-serif" font-size="353px" font-weight="400"><tspan class="TextPosition" x="12029" y="17115"><tspan fill="rgb(0,0,0)" stroke="none">Geobacter_sulfurreducens</tspan></tspan></tspan></text>
 <text class="TextShape" transform="rotate(-44.9 13994 16741)"><tspan class="TextParagraph" font-family="Liberation Sans, sans-serif" font-size="353px" font-weight="400"><tspan class="TextPosition" x="13994" y="16741"><tspan fill="rgb(0,0,0)" stroke="none">Gloeobacter_violaceus</tspan></tspan></tspan></text>
 <text class="TextShape" transform="rotate(-44.9 15605 16722)"><tspan class="TextParagraph" font-family="Liberation Sans, sans-serif" font-size="353px" font-weight="400"><tspan class="TextPosition" x="15605" y="16722"><tspan fill="rgb(0,0,0)" stroke="none">Leptospira_interrogans</tspan></tspan></tspan></text>
 <text class="TextShape" transform="rotate(-44.9 16540 17377)"><tspan class="TextParagraph" font-family="Liberation Sans, sans-serif" font-size="353px" font-weight="400"><tspan class="TextPosition" x="16540" y="17377"><tspan fill="rgb(0,0,0)" stroke="none">Mycobacterium_tuberculosis</tspan></tspan></tspan></text>
 <text class="TextShape" transform="rotate(-44.9 18375 17133)"><tspan class="TextParagraph" font-family="Liberation Sans, sans-serif" font-size="353px" font-weight="400"><tspan class="TextPosition" x="18375" y="17133"><tspan fill="rgb(0,0,0)" stroke="none">Pseudomonas_aeruginosa</tspan></tspan></tspan></text>
 <text class="TextShape" transform="rotate(-44.9 20227 16872)"><tspan class="TextParagraph" font-family="Liberation Sans, sans-serif" font-size="353px" font-weight="400"><tspan class="TextPosition" x="20227" y="16872"><tspan fill="rgb(0,0,0)" stroke="none">Pseudomonas_syringae</tspan></tspan></tspan></text>
 <text class="TextShape" transform="rotate(-44.9 22060 16629)"><tspan class="TextParagraph" font-family="Liberation Sans, sans-serif" font-size="353px" font-weight="400"><tspan class="TextPosition" x="22060" y="16629"><tspan fill="rgb(0,0,0)" stroke="none">Rhodopirellula_baltica</tspan></tspan></tspan></text>
 <text class="TextShape" transform="rotate(-44.9 24006 16273)"><tspan class="TextParagraph" font-family="Liberation Sans, sans-serif" font-size="353px" font-weight="400"><tspan class="TextPosition" x="24006" y="16273"><tspan fill="rgb(0,0,0)" stroke="none">Synechocystis_sp</tspan></tspan></tspan></text>
 <text class="TextShape" transform="rotate(-44.9 24025 17845)"><tspan class="TextParagraph" font-family="Liberation Sans, sans-serif" font-size="353px" font-weight="400"><tspan class="TextPosition" x="24025" y="17845"><tspan fill="rgb(0,0,0)" stroke="none">Thermodesulfovibrio_yellowstonii</tspan></tspan></tspan></text>
 <text class="TextShape"><tspan class="TextParagraph" font-family="Liberation Sans, sans-serif" font-size="353px" font-weight="400"><tspan class="TextPosition" x="2106" y="13917"><tspan fill="rgb(0,0,0)" stroke="none">0%</tspan></tspan></tspan></text>
 <text class="TextShape"><tspan class="TextParagraph" font-family="Liberation Sans, sans-serif" font-size="353px" font-weight="400"><tspan class="TextPosition" x="1921" y="12813"><tspan fill="rgb(0,0,0)" stroke="none">10%</tspan></tspan></tspan></text>
 <text class="TextShape"><tspan class="TextParagraph" font-family="Liberation Sans, sans-serif" font-size="353px" font-weight="400"><tspan class="TextPosition" x="1921" y="11710"><tspan fill="rgb(0,0,0)" stroke="none">20%</tspan></tspan></tspan></text>
 <text class="TextShape"><tspan class="TextParagraph" font-family="Liberation Sans, sans-serif" font-size="353px" font-weight="400"><tspan class="TextPosition" x="1921" y="10607"><tspan fill="rgb(0,0,0)" stroke="none">30%</tspan></tspan></tspan></text>
 <text class="TextShape"><tspan class="TextParagraph" font-family="Liberation Sans, sans-serif" font-size="353px" font-weight="400"><tspan class="TextPosition" x="1921" y="9503"><tspan fill="rgb(0,0,0)" stroke="none">40%</tspan></tspan></tspan></text>
 <text class="TextShape"><tspan class="TextParagraph" font-family="Liberation Sans, sans-serif" font-size="353px" font-weight="400"><tspan class="TextPosition" x="1921" y="8400"><tspan fill="rgb(0,0,0)" stroke="none">50%</tspan></tspan></tspan></text>
 <text class="TextShape"><tspan class="TextParagraph" font-family="Liberation Sans, sans-serif" font-size="353px" font-weight="400"><tspan class="TextPosition" x="1921" y="7297"><tspan fill="rgb(0,0,0)" stroke="none">60%</tspan></tspan></tspan></text>
 <text class="TextShape"><tspan class="TextParagraph" font-family="Liberation Sans, sans-serif" font-size="353px" font-weight="400"><tspan class="TextPosition" x="1921" y="6193"><tspan fill="rgb(0,0,0)" stroke="none">70%</tspan></tspan></tspan></text>
 <text class="TextShape"><tspan class="TextParagraph" font-family="Liberation Sans, sans-serif" font-size="353px" font-weight="400"><tspan class="TextPosition" x="1921" y="5090"><tspan fill="rgb(0,0,0)" stroke="none">80%</tspan></tspan></tspan></text>
 <text class="TextShape"><tspan class="TextParagraph" font-family="Liberation Sans, sans-serif" font-size="353px" font-weight="400"><tspan class="TextPosition" x="1921" y="3987"><tspan fill="rgb(0,0,0)" stroke="none">90%</tspan></tspan></tspan></text>
 <text class="TextShape"><tspan class="TextParagraph" font-family="Liberation Sans, sans-serif" font-size="353px" font-weight="400"><tspan class="TextPosition" x="1736" y="2884"><tspan fill="rgb(0,0,0)" stroke="none">100%</tspan></tspan></tspan></text>
 <text class="TextShape"><tspan class="TextParagraph" font-family="Liberation Sans, sans-serif" font-size="459px" font-weight="400"><tspan class="TextPosition" x="10138" y="1060"><tspan fill="rgb(0,0,0)" stroke="none">Bacteria FrameShift Structural Repeat Distribution in Organism</tspan></tspan></tspan></text>
 <text class="TextShape"><tspan class="TextParagraph" font-family="Liberation Sans, sans-serif" font-size="388px" font-weight="400"><tspan class="TextPosition" x="14265" y="2179"><tspan fill="rgb(0,0,0)" stroke="none">(Total 23 repeat regions)</tspan></tspan></tspan></text>
 <path fill="rgb(0,69,134)" stroke="none" d="M 29188,12080 L 29082,12080 29082,11869 29293,11869 29293,12080 29188,12080 Z"/>
 <path fill="rgb(255,66,14)" stroke="none" d="M 29188,11582 L 29082,11582 29082,11371 29293,11371 29293,11582 29188,11582 Z"/>
 <path fill="rgb(255,211,32)" stroke="none" d="M 29188,11084 L 29082,11084 29082,10873 29293,10873 29293,11084 29188,11084 Z"/>
 <path fill="rgb(87,157,28)" stroke="none" d="M 29188,10586 L 29082,10586 29082,10375 29293,10375 29293,10586 29188,10586 Z"/>
 <path fill="rgb(126,0,33)" stroke="none" d="M 29188,10088 L 29082,10088 29082,9877 29293,9877 29293,10088 29188,10088 Z"/>
 <path fill="rgb(131,202,255)" stroke="none" d="M 29188,9591 L 29082,9591 29082,9380 29293,9380 29293,9591 29188,9591 Z"/>
 <path fill="rgb(49,64,4)" stroke="none" d="M 29188,9093 L 29082,9093 29082,8882 29293,8882 29293,9093 29188,9093 Z"/>
 <path fill="rgb(174,207,0)" stroke="none" d="M 29188,8595 L 29082,8595 29082,8384 29293,8384 29293,8595 29188,8595 Z"/>
 <path fill="rgb(75,31,111)" stroke="none" d="M 29188,8097 L 29082,8097 29082,7886 29293,7886 29293,8097 29188,8097 Z"/>
 <path fill="rgb(255,149,14)" stroke="none" d="M 29188,7599 L 29082,7599 29082,7388 29293,7388 29293,7599 29188,7599 Z"/>
 <text class="TextShape"><tspan class="TextParagraph" font-family="Liberation Sans, sans-serif" font-size="353px" font-weight="400"><tspan class="TextPosition" x="29393" y="7613"><tspan fill="rgb(0,0,0)" stroke="none">Zinc Finger</tspan></tspan></tspan></text>
 <text class="TextShape"><tspan class="TextParagraph" font-family="Liberation Sans, sans-serif" font-size="353px" font-weight="400"><tspan class="TextPosition" x="29393" y="8111"><tspan fill="rgb(0,0,0)" stroke="none">AlphaBeta Solenoid</tspan></tspan></tspan></text>
 <text class="TextShape"><tspan class="TextParagraph" font-family="Liberation Sans, sans-serif" font-size="353px" font-weight="400"><tspan class="TextPosition" x="29393" y="8609"><tspan fill="rgb(0,0,0)" stroke="none">Other Beads </tspan></tspan></tspan></text>
 <text class="TextShape"><tspan class="TextParagraph" font-family="Liberation Sans, sans-serif" font-size="353px" font-weight="400"><tspan class="TextPosition" x="29393" y="9107"><tspan fill="rgb(0,0,0)" stroke="none">Beta Propeller</tspan></tspan></tspan></text>
 <text class="TextShape"><tspan class="TextParagraph" font-family="Liberation Sans, sans-serif" font-size="353px" font-weight="400"><tspan class="TextPosition" x="29393" y="9605"><tspan fill="rgb(0,0,0)" stroke="none">Tim Barrel</tspan></tspan></tspan></text>
 <text class="TextShape"><tspan class="TextParagraph" font-family="Liberation Sans, sans-serif" font-size="353px" font-weight="400"><tspan class="TextPosition" x="29393" y="10102"><tspan fill="rgb(0,0,0)" stroke="none">Beta Barrel</tspan></tspan></tspan></text>
 <text class="TextShape"><tspan class="TextParagraph" font-family="Liberation Sans, sans-serif" font-size="353px" font-weight="400"><tspan class="TextPosition" x="29393" y="10600"><tspan fill="rgb(0,0,0)" stroke="none">Beta Solenoid</tspan></tspan></tspan></text>
 <text class="TextShape"><tspan class="TextParagraph" font-family="Liberation Sans, sans-serif" font-size="353px" font-weight="400"><tspan class="TextPosition" x="29393" y="11098"><tspan fill="rgb(0,0,0)" stroke="none">Other elongated St</tspan></tspan></tspan></text>
 <text class="TextShape"><tspan class="TextParagraph" font-family="Liberation Sans, sans-serif" font-size="353px" font-weight="400"><tspan class="TextPosition" x="29393" y="11596"><tspan fill="rgb(0,0,0)" stroke="none">Alpha Solenoids</tspan></tspan></tspan></text>
 <text class="TextShape"><tspan class="TextParagraph" font-family="Liberation Sans, sans-serif" font-size="353px" font-weight="400"><tspan class="TextPosition" x="29393" y="12094"><tspan fill="rgb(0,0,0)" stroke="none">Other closed St</tspan></tspan></tspan></text>
 <text class="TextShape"><tspan class="TextParagraph" font-family="Liberation Sans, sans-serif" font-size="318px" font-weight="400"><tspan class="TextPosition" x="14288" y="18876"><tspan fill="rgb(0,0,0)" stroke="none">Organism</tspan></tspan></tspan></text>
 <text class="TextShape" transform="rotate(-90 837 12893)"><tspan class="TextParagraph" font-family="Liberation Sans, sans-serif" font-size="318px" font-weight="400"><tspan class="TextPosition" x="837" y="12893"><tspan fill="rgb(0,0,0)" stroke="none">Percentage of repeat region found</tspan></tspan></tspan></text>
</svg>