<svg xmlns="http://www.w3.org/2000/svg" xmlns:xlink="http://www.w3.org/1999/xlink" xmlns:lucid="lucid" width="1136" height="1127"><g transform="translate(-312 -31)" lucid:page-tab-id="0_0"><path d="M759.86 180.75c17.67 0 32 17.9 32 40s-14.33 40-32 40h-96c-17.68 0-32-17.9-32-40s14.32-40 32-40z" stroke="#000" stroke-opacity="0" fill="#ff741d"/><use xlink:href="#a" transform="matrix(1,0,0,1,636.857780388684,185.75000000004934) translate(57.525 38.6)"/><path d="M351.86 404.17a9.06 9.06 0 0 1 7.94-9l144.12-17.93a7.07 7.07 0 0 1 7.94 7v104a8 8 0 0 1-8 8h-144a8 8 0 0 1-8-8z" stroke="#000" stroke-opacity="0" stroke-width="2" fill="#ff8839"/><use xlink:href="#b" transform="matrix(1,0,0,1,356.85778038868386,401.2500000000165) translate(21.025 27)"/><use xlink:href="#c" transform="matrix(1,0,0,1,356.85778038868386,401.2500000000165) translate(41.025 27)"/><use xlink:href="#d" transform="matrix(1,0,0,1,356.85778038868386,401.2500000000165) translate(103.975 27)"/><use xlink:href="#e" transform="matrix(1,0,0,1,356.85778038868386,401.2500000000165) translate(13.049999999999997 48.6)"/><use xlink:href="#f" transform="matrix(1,0,0,1,356.85778038868386,401.2500000000165) translate(96.95 48.6)"/><use xlink:href="#g" transform="matrix(1,0,0,1,356.85778038868386,401.2500000000165) translate(116.95 48.6)"/><use xlink:href="#h" transform="matrix(1,0,0,1,356.85778038868386,401.2500000000165) translate(46.05 70.2)"/><path d="M699.17 540.76a10.8 10.8 0 0 1 12.85 0l85.94 63.7a5.93 5.93 0 0 1 0 9.53l-85.94 63.68a10.8 10.8 0 0 1-12.85 0l-85.94-63.7a5.93 5.93 0 0 1 0-9.52z" stroke="#fe5900" stroke-width="4" fill="#fff"/><use xlink:href="#i" transform="matrix(1,0,0,1,611.798620083342,540.9971374045899) translate(37.025 61.3)"/><use xlink:href="#j" transform="matrix(1,0,0,1,611.798620083342,540.9971374045899) translate(72.975 61.3)"/><use xlink:href="#k" transform="matrix(1,0,0,1,611.798620083342,540.9971374045899) translate(26.599999999999994 82.9)"/><use xlink:href="#l" transform="matrix(1,0,0,1,611.798620083342,540.9971374045899) translate(109.44999999999999 82.9)"/><use xlink:href="#m" transform="matrix(1,0,0,1,611.798620083342,540.9971374045899) translate(127.39999999999999 82.9)"/><use xlink:href="#n" transform="matrix(1,0,0,1,611.798620083342,540.9971374045899) translate(151.39999999999998 82.9)"/><path d="M631.86 384.25a8 8 0 0 1 8-8h144a8 8 0 0 1 8 8v104a8 8 0 0 1-8 8h-144a8 8 0 0 1-8-8z" stroke="#000" stroke-opacity="0" stroke-width="2" fill="#ff8839"/><use xlink:href="#o" transform="matrix(1,0,0,1,636.857780388684,381.2500000000165) translate(1.0749999999999886 47.8)"/><use xlink:href="#p" transform="matrix(1,0,0,1,636.857780388684,381.2500000000165) translate(21.07499999999999 47.8)"/><use xlink:href="#q" transform="matrix(1,0,0,1,636.857780388684,381.2500000000165) translate(79.975 47.8)"/><use xlink:href="#r" transform="matrix(1,0,0,1,636.857780388684,381.2500000000165) translate(63.55 69.4)"/><path d="M711.86 261.25V312a12 12 0 0 1-12 12H445.2a12 12 0 0 0-12 12v33.7" stroke="#333" fill="none"/><path d="M712.36 261.26h-1v-.5h1z" stroke="#333" stroke-width=".05" fill="#333"/><path d="M433.2 384.47l-4.64-14.26h9.28z" stroke="#333" fill="#333"/><path d="M512.3 436.25h103.22" stroke="#333" fill="none"/><path d="M512.32 436.75h-.5v-1h.5z" stroke="#333" stroke-width=".05" fill="#333"/><path d="M630.3 436.25L616 440.9v-9.3z" stroke="#333" fill="#333"/><path d="M432.5 711.63l.42 1.73.7 1.67.94 1.54 1.17 1.37 1.37 1.17 1.54.96 1.66.7 1.76.4 1.82.15 139-.07v1l-139.04.08-1.94-.14-1.9-.46-1.82-.75-1.67-1.03-1.48-1.27-1.28-1.5-1.02-1.66-.75-1.83-.46-1.92-.14-199.16 1-.02zm273.6-1.8l-.16 1.94-.46 1.9-.75 1.82-1.02 1.66-1.27 1.5-1.5 1.26-1.66 1.03-1.8.75-1.94.46-92 .06v-1l91.88-.06 1.75-.4 1.66-.7 1.55-.95 1.37-1.16 1.18-1.37.94-1.54.7-1.67.4-1.75.15-1.8v-27.5h1z" stroke="#333" stroke-width=".05" fill="#333"/><path d="M705.6 681.8l.5-.02v.54h-1v-.54z" fill="#333"/><path d="M705.6 681.8l.52-.05v.6h-1.05v-.6zm-.48.5h.95v-.5l-.48.04-.48-.03z" stroke="#333" stroke-width=".05" fill="#333"/><path d="M436.5 512.1h-9.28l4.64-14.28z" fill="#333"/><path d="M437.18 512.6h-10.65l5.33-16.4zm-9.27-1h7.9l-3.94-12.16z" stroke="#333" stroke-width=".05" fill="#333"/><use xlink:href="#s" transform="matrix(1,0,0,1,582.8761061301426,712.4776633122809) translate(0 12.444444444444446)"/><path d="M453.15 78.58a8 8 0 0 1 8-8h836.75a8 8 0 0 1 8 8v25.15a8 8 0 0 1-8 8H461.15a8 8 0 0 1-8-8z" stroke="#000" stroke-opacity="0" stroke-width="2" fill="#fff" fill-opacity="0"/><use xlink:href="#t" transform="matrix(1,0,0,1,457.14655278534315,74.57761197839864) translate(143.77543209876546 23.657777777777778)"/><use xlink:href="#u" transform="matrix(1,0,0,1,457.14655278534315,74.57761197839864) translate(257.1137037037037 23.657777777777778)"/><use xlink:href="#v" transform="matrix(1,0,0,1,457.14655278534315,74.57761197839864) translate(310.86925925925925 23.657777777777778)"/><use xlink:href="#w" transform="matrix(1,0,0,1,457.14655278534315,74.57761197839864) translate(363.24086419753087 23.657777777777778)"/><use xlink:href="#x" transform="matrix(1,0,0,1,457.14655278534315,74.57761197839864) translate(395.14456790123455 23.657777777777778)"/><use xlink:href="#y" transform="matrix(1,0,0,1,457.14655278534315,74.57761197839864) translate(497.047037037037 23.657777777777778)"/><use xlink:href="#z" transform="matrix(1,0,0,1,457.14655278534315,74.57761197839864) translate(550.8025925925925 23.657777777777778)"/><use xlink:href="#A" transform="matrix(1,0,0,1,457.14655278534315,74.57761197839864) translate(627.9396296296295 23.657777777777778)"/><path d="M734.8 110.4h300.5M734.82 110.4h-1.03M1035.28 110.4h1.03" stroke="#a9afb8" stroke-width="2" fill="none"/><path d="M453.15 119.73a8 8 0 0 1 8-8h837.7a8 8 0 0 1 8 8v2.85a8 8 0 0 1-8 8h-837.7a8 8 0 0 1-8-8z" stroke="#000" stroke-opacity="0" stroke-width="2" fill="#fff" fill-opacity="0"/><use xlink:href="#B" transform="matrix(1,0,0,1,457.1465527853436,115.73283593529744) translate(278.7857201646091 14.917037037037037)"/><use xlink:href="#C" transform="matrix(1,0,0,1,457.1465527853436,115.73283593529744) translate(319.53335390946506 14.917037037037037)"/><use xlink:href="#D" transform="matrix(1,0,0,1,457.1465527853436,115.73283593529744) translate(359.34621399176956 14.917037037037037)"/><use xlink:href="#E" transform="matrix(1,0,0,1,457.1465527853436,115.73283593529744) translate(427.24477366255144 14.917037037037037)"/><use xlink:href="#F" transform="matrix(1,0,0,1,457.1465527853436,115.73283593529744) translate(439.69425925925924 14.917037037037037)"/><use xlink:href="#G" transform="matrix(1,0,0,1,457.1465527853436,115.73283593529744) translate(514.348683127572 14.917037037037037)"/><use xlink:href="#H" transform="matrix(1,0,0,1,457.1465527853436,115.73283593529744) translate(539.8425102880658 14.917037037037037)"/><path d="M911.86 384.25a8 8 0 0 1 8-8h144a8 8 0 0 1 8 8v104a8 8 0 0 1-8 8h-144a8 8 0 0 1-8-8z" stroke="#000" stroke-opacity="0" stroke-width="2" fill="#ff8839"/><use xlink:href="#I" transform="matrix(1,0,0,1,916.8577803886843,381.2500000000165) translate(5.574999999999989 47.8)"/><use xlink:href="#J" transform="matrix(1,0,0,1,916.8577803886843,381.2500000000165) translate(25.57499999999999 47.8)"/><use xlink:href="#K" transform="matrix(1,0,0,1,916.8577803886843,381.2500000000165) translate(100.52499999999999 47.8)"/><use xlink:href="#L" transform="matrix(1,0,0,1,916.8577803886843,381.2500000000165) translate(22.075000000000003 69.4)"/><use xlink:href="#M" transform="matrix(1,0,0,1,916.8577803886843,381.2500000000165) translate(96.025 69.4)"/><path d="M792.3 436.25h103.22" stroke="#333" fill="none"/><path d="M792.32 436.75h-.5v-1h.5z" stroke="#333" stroke-width=".05" fill="#333"/><path d="M910.3 436.25L896 440.9v-9.3z" stroke="#333" fill="#333"/><path d="M991.86 496.7v7.72a12 12 0 0 1-12 12H709.43a3.83 3.83 0 0 0-3.84 3.83" stroke="#333" fill="none"/><path d="M992.36 496.7h-1v-.5h1z" stroke="#333" stroke-width=".05" fill="#333"/><path d="M705.6 535.02l-4.64-14.27h9.27z" stroke="#333" fill="#333"/><path d="M1229.35 788.17a8 8 0 0 1 8-8h144a8 8 0 0 1 8 8v104a8 8 0 0 1-8 8h-144a8 8 0 0 1-8-8z" stroke="#000" stroke-opacity="0" stroke-width="2" fill="#ff8839"/><use xlink:href="#N" transform="matrix(1,0,0,1,1234.3478493823095,785.1722328521955) translate(13.574999999999996 47.8)"/><use xlink:href="#p" transform="matrix(1,0,0,1,1234.3478493823095,785.1722328521955) translate(33.574999999999996 47.8)"/><use xlink:href="#O" transform="matrix(1,0,0,1,1234.3478493823095,785.1722328521955) translate(92.475 47.8)"/><use xlink:href="#P" transform="matrix(1,0,0,1,1234.3478493823095,785.1722328521955) translate(107.475 47.8)"/><use xlink:href="#r" transform="matrix(1,0,0,1,1234.3478493823095,785.1722328521955) translate(63.55 69.4)"/><path d="M986.5 540.76a10.8 10.8 0 0 1 12.86 0l85.94 63.7a5.93 5.93 0 0 1 0 9.53l-85.94 63.68a10.8 10.8 0 0 1-12.86 0l-85.94-63.7a5.93 5.93 0 0 1 0-9.52z" stroke="#fe5900" stroke-width="4" fill="#fff"/><use xlink:href="#Q" transform="matrix(1,0,0,1,899.1374486189002,540.9971374323106) translate(34.625 72.10000000000001)"/><use xlink:href="#R" transform="matrix(1,0,0,1,899.1374486189002,540.9971374323106) translate(89.525 72.10000000000001)"/><use xlink:href="#n" transform="matrix(1,0,0,1,899.1374486189002,540.9971374323106) translate(143.375 72.10000000000001)"/><path d="M1302.92 540.76a10.8 10.8 0 0 1 12.85 0l85.95 63.7a5.93 5.93 0 0 1 0 9.53l-85.95 63.68a10.8 10.8 0 0 1-12.85 0l-85.94-63.7a5.93 5.93 0 0 1 0-9.52z" stroke="#fe5900" stroke-width="4" fill="#fff"/><use xlink:href="#S" transform="matrix(1,0,0,1,1215.5534791533028,540.9971374323106) translate(28.700000000000003 72.10000000000001)"/><use xlink:href="#R" transform="matrix(1,0,0,1,1215.5534791533028,540.9971374323106) translate(95.45 72.10000000000001)"/><use xlink:href="#n" transform="matrix(1,0,0,1,1215.5534791533028,540.9971374323106) translate(149.3 72.10000000000001)"/><path d="M1139.66 609.72h-49.45v-1h49.46zm56.53 0h-33.6v-1h33.6z" stroke="#333" stroke-width=".05" fill="#333"/><path d="M1090.22 609.72h-.56l.05-.5-.04-.5h.56z" fill="#333"/><path d="M1090.24 609.75h-.6l.04-.53-.05-.52h.6zm-.55-1l.03.47-.04.48h.5v-.95z" stroke="#333" stroke-width=".05" fill="#333"/><path d="M1210.96 609.22l-14.27 4.64v-9.27z" fill="#333"/><path d="M1212.57 609.22l-16.38 5.33V603.9zm-15.38 3.95l12.14-3.95-12.15-3.94z" stroke="#333" stroke-width=".05" fill="#333"/><g><use xlink:href="#T" transform="matrix(1,0,0,1,1139.6648338345094,598.422805398962) translate(0.005000000000000782 14.4)"/></g><path d="M993.43 763.84h-1v-22.02h1zm0-43.62h-1v-37.9h1z" stroke="#333" stroke-width=".05" fill="#333"/><path d="M992.93 681.8l.5-.02v.54h-1v-.54z" fill="#333"/><path d="M992.93 681.8l.53-.05v.6h-1.05v-.6zm-.47.5h.95v-.5l-.47.04-.47-.03z" stroke="#333" stroke-width=".05" fill="#333"/><path d="M992.93 778.6l-4.63-14.26h9.27z" fill="#333"/><path d="M992.93 780.22l-5.32-16.38h10.66zm-3.95-15.38l3.95 12.15 3.95-12.16z" stroke="#333" stroke-width=".05" fill="#333"/><g><use xlink:href="#U" transform="matrix(1,0,0,1,978.2568187094373,720.2160469240373) translate(0.005000000000000782 14.4)"/></g><path d="M912.93 788.17a8 8 0 0 1 8-8h144a8 8 0 0 1 8 8v104a8 8 0 0 1-8 8h-144a8 8 0 0 1-8-8z" stroke="#000" stroke-opacity="0" stroke-width="2" fill="#ff8839"/><g><use xlink:href="#V" transform="matrix(1,0,0,1,917.9318188479069,785.1722328521955) translate(11.574999999999996 26.19999999999999)"/><use xlink:href="#p" transform="matrix(1,0,0,1,917.9318188479069,785.1722328521955) translate(31.574999999999996 26.19999999999999)"/><use xlink:href="#O" transform="matrix(1,0,0,1,917.9318188479069,785.1722328521955) translate(90.475 26.19999999999999)"/><use xlink:href="#W" transform="matrix(1,0,0,1,917.9318188479069,785.1722328521955) translate(105.475 26.19999999999999)"/><use xlink:href="#X" transform="matrix(1,0,0,1,917.9318188479069,785.1722328521955) translate(24.574999999999996 47.79999999999999)"/><use xlink:href="#Y" transform="matrix(1,0,0,1,917.9318188479069,785.1722328521955) translate(63.525 47.79999999999999)"/><use xlink:href="#d" transform="matrix(1,0,0,1,917.9318188479069,785.1722328521955) translate(100.42500000000001 47.79999999999999)"/><use xlink:href="#Z" transform="matrix(1,0,0,1,917.9318188479069,785.1722328521955) translate(39.525 69.39999999999999)"/><use xlink:href="#aa" transform="matrix(1,0,0,1,917.9318188479069,785.1722328521955) translate(36.075 91)"/></g><path d="M1229.35 1005.9a8 8 0 0 1 8-8h144a8 8 0 0 1 8 8v104a8 8 0 0 1-8 8h-144a8 8 0 0 1-8-8z" stroke="#000" stroke-opacity="0" stroke-width="2" fill="#ff8839"/><g><use xlink:href="#ab" transform="matrix(1,0,0,1,1234.3478493823095,1002.8959923942189) translate(2.125 47.8)"/><use xlink:href="#ac" transform="matrix(1,0,0,1,1234.3478493823095,1002.8959923942189) translate(22.125 47.8)"/><use xlink:href="#ad" transform="matrix(1,0,0,1,1234.3478493823095,1002.8959923942189) translate(60.075 47.8)"/><use xlink:href="#ae" transform="matrix(1,0,0,1,1234.3478493823095,1002.8959923942189) translate(90.075 47.8)"/><use xlink:href="#af" transform="matrix(1,0,0,1,1234.3478493823095,1002.8959923942189) translate(53.55 69.4)"/></g><path d="M1309.85 763.84h-1v-22.02h1zm0-43.62h-1v-37.9h1z" stroke="#333" stroke-width=".05" fill="#333"/><path d="M1309.35 681.8l.5-.02v.54h-1v-.54z" fill="#333"/><path d="M1309.35 681.8l.52-.05v.6h-1.05v-.6zm-.48.5h.95v-.5l-.47.04-.48-.03z" stroke="#333" stroke-width=".05" fill="#333"/><path d="M1309.35 778.6l-4.64-14.26h9.28z" fill="#333"/><path d="M1309.35 780.22l-5.33-16.38h10.65zm-3.95-15.38l3.95 12.14 3.94-12.14z" stroke="#333" stroke-width=".05" fill="#333"/><g><use xlink:href="#U" transform="matrix(1,0,0,1,1294.6728492438494,720.2160469239902) translate(0.005000000000000782 14.4)"/></g><path d="M912.93 1005.9a8 8 0 0 1 8-8h144a8 8 0 0 1 8 8v104a8 8 0 0 1-8 8h-144a8 8 0 0 1-8-8z" stroke="#000" stroke-opacity="0" stroke-width="2" fill="#ff8839"/><g><use xlink:href="#ag" transform="matrix(1,0,0,1,917.9318188479069,1002.8959923942189) translate(9.099999999999994 47.8)"/><use xlink:href="#ac" transform="matrix(1,0,0,1,917.9318188479069,1002.8959923942189) translate(29.099999999999994 47.8)"/><use xlink:href="#ad" transform="matrix(1,0,0,1,917.9318188479069,1002.8959923942189) translate(67.05 47.8)"/><use xlink:href="#ah" transform="matrix(1,0,0,1,917.9318188479069,1002.8959923942189) translate(97.05 47.8)"/><use xlink:href="#af" transform="matrix(1,0,0,1,917.9318188479069,1002.8959923942189) translate(53.55 69.4)"/></g><path d="M992.93 900.62v80.94" stroke="#333" fill="none"/><path d="M993.43 900.64h-1v-.52h1z" stroke="#333" stroke-width=".05" fill="#333"/><path d="M992.93 996.33l-4.63-14.27h9.27z" stroke="#333" fill="#333"/><path d="M834.6 609.72h-31.73v-1h31.72zm45.17 0h-15.83v-1h15.83z" stroke="#333" stroke-width=".05" fill="#333"/><path d="M802.88 609.72h-.56l.05-.5-.05-.5h.56z" fill="#333"/><path d="M802.9 609.75h-.6l.04-.53-.05-.52h.6zm-.55-1l.04.47-.05.48h.5v-.95z" stroke="#333" stroke-width=".05" fill="#333"/><path d="M894.54 609.22l-14.27 4.64v-9.27z" fill="#333"/><path d="M896.16 609.22l-16.4 5.33V603.9zm-15.4 3.95l12.16-3.95-12.15-3.94z" stroke="#333" stroke-width=".05" fill="#333"/><g><use xlink:href="#U" transform="matrix(1,0,0,1,834.5874043008262,598.4228053712413) translate(0.005000000000000782 14.4)"/></g><path d="M1309.35 900.62v80.94" stroke="#333" fill="none"/><path d="M1309.85 900.64h-1v-.52h1z" stroke="#333" stroke-width=".05" fill="#333"/><path d="M1309.35 996.33l-4.64-14.27h9.28z" stroke="#333" fill="#333"/><defs><path fill="#fff" d="M55-144c13 50 104 24 104 88C159 21 15 23 1-39l26-10c6 40 102 42 102-4-13-50-104-23-104-87 0-71 143-71 148-8l-29 4c-5-35-85-37-89 0" id="ai"/><path fill="#fff" d="M51-54c-9 22 5 41 31 30L79-1C43 14 10-4 19-52l22-115H19l5-23h22l19-43h21l-9 43h35l-4 23H73" id="aj"/><path fill="#fff" d="M165-48c-4 18 1 34 23 27l-3 20c-29 8-62 0-52-35h-2C116-14 99 4 63 4 30 4 8-16 8-49c0-68 71-67 138-67 10-26 0-56-31-54-26 1-42 9-47 31l-32-5c8-67 160-71 144 15-5 28-9 54-15 81zM42-50c3 52 80 24 89-6 7-12 7-24 11-38-47 1-103-4-100 44" id="ak"/><path fill="#fff" d="M66-151c12-25 30-51 66-40l-6 26C45-176 58-65 38 0H6l36-190h30" id="al"/><g id="a"><use transform="matrix(0.05,0,0,0.05,0,0)" xlink:href="#ai"/><use transform="matrix(0.05,0,0,0.05,9,0)" xlink:href="#aj"/><use transform="matrix(0.05,0,0,0.05,14,0)" xlink:href="#ak"/><use transform="matrix(0.05,0,0,0.05,24,0)" xlink:href="#al"/><use transform="matrix(0.05,0,0,0.05,29.950000000000003,0)" xlink:href="#aj"/></g><path fill="#fff" d="M9 0l6-27h63l36-188-63 39 6-31 66-41h29L110-27h60l-5 27H9" id="am"/><path fill="#fff" d="M14 0l8-38h34L48 0H14" id="an"/><g id="b"><use transform="matrix(0.05,0,0,0.05,0,0)" xlink:href="#am"/><use transform="matrix(0.05,0,0,0.05,10,0)" xlink:href="#an"/></g><path fill="#fff" d="M14 0l48-248h34L48 0H14" id="ao"/><path fill="#fff" d="M133-28C103 26-5 8 13-77c13-62 24-115 90-117 29-1 46 15 56 35l19-102h32L160 0h-30zM45-64c-2 27 10 43 35 43 54-1 69-50 69-103 0-29-15-46-42-46-53-1-58 58-62 106" id="ap"/><path fill="#fff" d="M111-194c62-3 86 47 72 106H45c-7 38 6 69 45 68 27-1 43-14 53-32l24 11C152-15 129 4 87 4 38 3 12-23 12-71c0-70 32-119 99-123zm44 81c14-66-71-72-95-28-4 8-8 17-11 28h106" id="aq"/><path fill="#fff" d="M67-158c22-48 132-52 116 29L158 0h-32l25-140c3-38-53-32-70-12C52-117 51-52 38 0H6l36-190h30" id="ar"/><path fill="#fff" d="M50-231l6-30h32l-6 30H50zM6 0l37-190h31L37 0H6" id="as"/><path fill="#fff" d="M76-167L44 0H12l33-167H18l4-23h27c3-47 25-81 82-69l-4 24c-35-8-44 15-46 45h37l-5 23H76" id="at"/><path fill="#fff" d="M198-190L69 30C53 58 25 83-20 72c4-11-1-27 19-22 33-1 43-29 59-52L20-190h32L79-34l84-156h35" id="au"/><g id="c"><use transform="matrix(0.05,0,0,0.05,0,0)" xlink:href="#ao"/><use transform="matrix(0.05,0,0,0.05,5,0)" xlink:href="#ap"/><use transform="matrix(0.05,0,0,0.05,15,0)" xlink:href="#aq"/><use transform="matrix(0.05,0,0,0.05,25,0)" xlink:href="#ar"/><use transform="matrix(0.05,0,0,0.05,35,0)" xlink:href="#aj"/><use transform="matrix(0.05,0,0,0.05,40,0)" xlink:href="#as"/><use transform="matrix(0.05,0,0,0.05,43.95,0)" xlink:href="#at"/><use transform="matrix(0.05,0,0,0.05,48.95,0)" xlink:href="#au"/></g><path fill="#fff" d="M67-158c15-20 31-36 64-36 94 0 33 127 27 194h-32l25-140c3-38-53-32-70-12C52-117 51-51 37 0H6l51-261h31" id="av"/><g id="d"><use transform="matrix(0.05,0,0,0.05,0,0)" xlink:href="#aj"/><use transform="matrix(0.05,0,0,0.05,5,0)" xlink:href="#av"/><use transform="matrix(0.05,0,0,0.05,15,0)" xlink:href="#aq"/></g><path fill="#fff" d="M67 3c-93-2-31-127-26-193h32L48-50c-3 39 53 32 70 12 30-34 30-101 43-152h32L157 0h-30c1-10 6-24 4-33-14 20-29 37-64 36" id="aw"/><path fill="#fff" d="M44-68c0 29 11 47 38 47 30 0 42-19 51-41l28 9C148-21 126 4 82 4 31 4 10-29 12-85c3-77 74-140 146-93 12 8 15 23 18 40l-31 5c-1-22-13-36-36-36-52 0-65 49-65 101" id="ax"/><g id="e"><use transform="matrix(0.05,0,0,0.05,0,0)" xlink:href="#ai"/><use transform="matrix(0.05,0,0,0.05,9,0)" xlink:href="#aj"/><use transform="matrix(0.05,0,0,0.05,14,0)" xlink:href="#al"/><use transform="matrix(0.05,0,0,0.05,19.95,0)" xlink:href="#aw"/><use transform="matrix(0.05,0,0,0.05,29.950000000000003,0)" xlink:href="#ax"/><use transform="matrix(0.05,0,0,0.05,38.95,0)" xlink:href="#aj"/><use transform="matrix(0.05,0,0,0.05,43.95,0)" xlink:href="#aw"/><use transform="matrix(0.05,0,0,0.05,53.95,0)" xlink:href="#al"/><use transform="matrix(0.05,0,0,0.05,59.900000000000006,0)" xlink:href="#aq"/><use transform="matrix(0.05,0,0,0.05,69.9,0)" xlink:href="#ai"/></g><path fill="#fff" d="M30-147c31-64 166-65 159 27C183-49 158 1 86 4 9 8 1-88 30-147zM88-20c53 0 68-48 68-100 0-31-11-51-44-50-52 1-68 46-68 97 0 32 13 53 44 53" id="ay"/><g id="f"><use transform="matrix(0.05,0,0,0.05,0,0)" xlink:href="#aj"/><use transform="matrix(0.05,0,0,0.05,5,0)" xlink:href="#ay"/></g><path fill="#fff" d="M68-162c25-46 127-43 121 31C183-60 169 1 98 4 69 5 53-11 43-31L36 0H5l52-261h31zm88 36c2-27-9-43-34-43-55 0-70 51-70 103 0 29 15 45 43 46 52 0 58-58 61-106" id="az"/><g id="g"><use transform="matrix(0.05,0,0,0.05,0,0)" xlink:href="#az"/><use transform="matrix(0.05,0,0,0.05,10,0)" xlink:href="#aq"/></g><path fill="#fff" d="M6 0l50-261h32L37 0H6" id="aA"/><path fill="#fff" d="M103-194c29 0 47 14 56 36 2-11 5-23 8-32h30L160-5C157 61 82 97 21 62 9 55 4 45 1 30l28-7c7 42 83 31 92-3 4-16 9-38 13-55-13 20-29 36-62 36-40 0-60-25-60-64 0-71 23-131 91-131zm4 24c-53 0-58 54-61 104-2 27 10 44 36 44 49 0 65-50 67-102 1-29-15-46-42-46" id="aB"/><g id="h"><use transform="matrix(0.05,0,0,0.05,0,0)" xlink:href="#ak"/><use transform="matrix(0.05,0,0,0.05,10,0)" xlink:href="#aA"/><use transform="matrix(0.05,0,0,0.05,13.949999999999998,0)" xlink:href="#as"/><use transform="matrix(0.05,0,0,0.05,17.9,0)" xlink:href="#aB"/><use transform="matrix(0.05,0,0,0.05,27.899999999999995,0)" xlink:href="#ar"/><use transform="matrix(0.05,0,0,0.05,37.9,0)" xlink:href="#aq"/><use transform="matrix(0.05,0,0,0.05,47.9,0)" xlink:href="#ap"/></g><path fill="#333" d="M127-220V0H93v-220H8v-28h204v28h-85" id="aC"/><path fill="#333" d="M106-169C34-169 62-67 57 0H25v-261h32l-1 103c12-21 28-36 61-36 89 0 53 116 60 194h-32v-121c2-32-8-49-39-48" id="aD"/><path fill="#333" d="M100-194c63 0 86 42 84 106H49c0 40 14 67 53 68 26 1 43-12 49-29l28 8c-11 28-37 45-77 45C44 4 14-33 15-96c1-61 26-98 85-98zm52 81c6-60-76-77-97-28-3 7-6 17-6 28h103" id="aE"/><g id="i"><use transform="matrix(0.05,0,0,0.05,0,0)" xlink:href="#aC"/><use transform="matrix(0.05,0,0,0.05,10.950000000000001,0)" xlink:href="#aD"/><use transform="matrix(0.05,0,0,0.05,20.950000000000003,0)" xlink:href="#aE"/></g><path fill="#333" d="M135-143c-3-34-86-38-87 0 15 53 115 12 119 90S17 21 10-45l28-5c4 36 97 45 98 0-10-56-113-15-118-90-4-57 82-63 122-42 12 7 21 19 24 35" id="aF"/><path fill="#333" d="M145-31C134-9 116 4 85 4 32 4 16-35 15-94c0-59 17-99 70-100 32-1 48 14 60 33 0-11-1-24 2-32h30l-1 268h-32zM93-21c41 0 51-33 51-76s-8-73-50-73c-40 0-46 35-46 75s5 74 45 74" id="aG"/><path fill="#333" d="M84 4C-5 8 30-112 23-190h32v120c0 31 7 50 39 49 72-2 45-101 50-169h31l1 190h-30c-1-10 1-25-2-33-11 22-28 36-60 37" id="aH"/><path fill="#333" d="M117-194c89-4 53 116 60 194h-32v-121c0-31-8-49-39-48C34-167 62-67 57 0H25l-1-190h30c1 10-1 24 2 32 11-22 29-35 61-36" id="aI"/><path fill="#333" d="M96-169c-40 0-48 33-48 73s9 75 48 75c24 0 41-14 43-38l32 2c-6 37-31 61-74 61-59 0-76-41-82-99-10-93 101-131 147-64 4 7 5 14 7 22l-32 3c-4-21-16-35-41-35" id="aJ"/><g id="j"><use transform="matrix(0.05,0,0,0.05,0,0)" xlink:href="#aF"/><use transform="matrix(0.05,0,0,0.05,9,0)" xlink:href="#aE"/><use transform="matrix(0.05,0,0,0.05,19,0)" xlink:href="#aG"/><use transform="matrix(0.05,0,0,0.05,29,0)" xlink:href="#aH"/><use transform="matrix(0.05,0,0,0.05,39,0)" xlink:href="#aE"/><use transform="matrix(0.05,0,0,0.05,49,0)" xlink:href="#aI"/><use transform="matrix(0.05,0,0,0.05,59,0)" xlink:href="#aJ"/><use transform="matrix(0.05,0,0,0.05,68,0)" xlink:href="#aE"/></g><path fill="#333" d="M141-36C126-15 110 5 73 4 37 3 15-17 15-53c-1-64 63-63 125-63 3-35-9-54-41-54-24 1-41 7-42 31l-33-3c5-37 33-52 76-52 45 0 72 20 72 64v82c-1 20 7 32 28 27v20c-31 9-61-2-59-35zM48-53c0 20 12 33 32 33 41-3 63-29 60-74-43 2-92-5-92 41" id="aK"/><path fill="#333" d="M24 0v-261h32V0H24" id="aL"/><path fill="#333" d="M24-231v-30h32v30H24zM24 0v-190h32V0H24" id="aM"/><path fill="#333" d="M177-190C167-65 218 103 67 71c-23-6-38-20-44-43l32-5c15 47 100 32 89-28v-30C133-14 115 1 83 1 29 1 15-40 15-95c0-56 16-97 71-98 29-1 48 16 59 35 1-10 0-23 2-32h30zM94-22c36 0 50-32 50-73 0-42-14-75-50-75-39 0-46 34-46 75s6 73 46 73" id="aN"/><path fill="#333" d="M210-169c-67 3-38 105-44 169h-31v-121c0-29-5-50-35-48C34-165 62-65 56 0H25l-1-190h30c1 10-1 24 2 32 10-44 99-50 107 0 11-21 27-35 58-36 85-2 47 119 55 194h-31v-121c0-29-5-49-35-48" id="aO"/><path fill="#333" d="M59-47c-2 24 18 29 38 22v24C64 9 27 4 27-40v-127H5v-23h24l9-43h21v43h35v23H59v120" id="aP"/><g id="k"><use transform="matrix(0.05,0,0,0.05,0,0)" xlink:href="#aK"/><use transform="matrix(0.05,0,0,0.05,10,0)" xlink:href="#aL"/><use transform="matrix(0.05,0,0,0.05,13.949999999999998,0)" xlink:href="#aM"/><use transform="matrix(0.05,0,0,0.05,17.9,0)" xlink:href="#aN"/><use transform="matrix(0.05,0,0,0.05,27.899999999999995,0)" xlink:href="#aI"/><use transform="matrix(0.05,0,0,0.05,37.9,0)" xlink:href="#aO"/><use transform="matrix(0.05,0,0,0.05,52.85,0)" xlink:href="#aE"/><use transform="matrix(0.05,0,0,0.05,62.85,0)" xlink:href="#aI"/><use transform="matrix(0.05,0,0,0.05,72.85,0)" xlink:href="#aP"/></g><g id="l"><use transform="matrix(0.05,0,0,0.05,0,0)" xlink:href="#aM"/><use transform="matrix(0.05,0,0,0.05,3.95,0)" xlink:href="#aF"/></g><path fill="#333" d="M100-194c62-1 85 37 85 99 1 63-27 99-86 99S16-35 15-95c0-66 28-99 85-99zM99-20c44 1 53-31 53-75 0-43-8-75-51-75s-53 32-53 75 10 74 51 75" id="aQ"/><path fill="#333" d="M143 0L79-87 56-68V0H24v-261h32v163l83-92h37l-77 82L181 0h-38" id="aR"/><g id="m"><use transform="matrix(0.05,0,0,0.05,0,0)" xlink:href="#aQ"/><use transform="matrix(0.05,0,0,0.05,10,0)" xlink:href="#aR"/></g><path fill="#333" d="M103-251c84 0 111 97 45 133-19 10-37 24-39 52H78c0-63 77-55 77-114 0-30-21-42-52-43-32 0-53 17-56 46l-32-2c7-45 34-72 88-72zM77 0v-35h34V0H77" id="aS"/><use transform="matrix(0.05,0,0,0.05,0,0)" xlink:href="#aS" id="n"/><path fill="#fff" d="M123-251c66 0 92 69 53 113C138-94 73-75 39-27h128l-5 27H-2c17-92 123-93 159-163 14-28-1-64-36-62-29 2-46 17-54 41l-30-6c13-36 37-61 86-61" id="aT"/><g id="o"><use transform="matrix(0.05,0,0,0.05,0,0)" xlink:href="#aT"/><use transform="matrix(0.05,0,0,0.05,10,0)" xlink:href="#an"/></g><path fill="#fff" d="M125-24c46 0 70-25 89-51l25 16C214-24 183 4 123 4 8 4-5-146 60-208c32-50 158-61 191-5 5 7 9 14 11 22l-32 10c-9-28-33-43-69-43-74 0-108 51-108 125 0 46 24 75 72 75" id="aU"/><g id="p"><use transform="matrix(0.05,0,0,0.05,0,0)" xlink:href="#aU"/><use transform="matrix(0.05,0,0,0.05,12.950000000000001,0)" xlink:href="#al"/><use transform="matrix(0.05,0,0,0.05,18.900000000000002,0)" xlink:href="#aq"/><use transform="matrix(0.05,0,0,0.05,28.900000000000002,0)" xlink:href="#ak"/><use transform="matrix(0.05,0,0,0.05,38.900000000000006,0)" xlink:href="#aj"/><use transform="matrix(0.05,0,0,0.05,43.900000000000006,0)" xlink:href="#aq"/></g><path fill="#fff" d="M222 0l43-216c-8 16-17 34-26 49L143 0h-22L81-216 41 0H11l48-248h42l38 208 116-208h45L252 0h-30" id="aV"/><g id="q"><use transform="matrix(0.05,0,0,0.05,0,0)" xlink:href="#aV"/><use transform="matrix(0.05,0,0,0.05,14.950000000000001,0)" xlink:href="#aw"/><use transform="matrix(0.05,0,0,0.05,24.950000000000003,0)" xlink:href="#ai"/><use transform="matrix(0.05,0,0,0.05,33.95,0)" xlink:href="#aj"/><use transform="matrix(0.05,0,0,0.05,38.95,0)" xlink:href="#ak"/><use transform="matrix(0.05,0,0,0.05,48.95,0)" xlink:href="#ar"/><use transform="matrix(0.05,0,0,0.05,58.95,0)" xlink:href="#aB"/></g><g id="r"><use transform="matrix(0.05,0,0,0.05,0,0)" xlink:href="#at"/><use transform="matrix(0.05,0,0,0.05,5,0)" xlink:href="#as"/><use transform="matrix(0.05,0,0,0.05,8.95,0)" xlink:href="#aA"/><use transform="matrix(0.05,0,0,0.05,12.899999999999999,0)" xlink:href="#aq"/></g><path fill="#333" d="M175 0L67-191c6 58 2 128 3 191H24v-248h59L193-55c-6-58-2-129-3-193h46V0h-61" id="aW"/><path fill="#333" d="M110-194c64 0 96 36 96 99 0 64-35 99-97 99-61 0-95-36-95-99 0-62 34-99 96-99zm-1 164c35 0 45-28 45-65 0-40-10-65-43-65-34 0-45 26-45 65 0 36 10 65 43 65" id="aX"/><g id="s"><use transform="matrix(0.04320987654320988,0,0,0.04320987654320988,0,0)" xlink:href="#aW"/><use transform="matrix(0.04320987654320988,0,0,0.04320987654320988,11.19135802469136,0)" xlink:href="#aX"/></g><path fill="#a9afb8" d="M67-125c0 53 21 87 73 88 37 1 54-22 65-47l45 17C233-25 199 4 140 4 58 4 20-42 15-125 8-235 124-281 211-232c18 10 29 29 36 50l-46 12c-8-25-30-41-62-41-52 0-71 34-72 86" id="aY"/><path fill="#a9afb8" d="M135-150c-39-12-60 13-60 57V0H25l-1-190h47c2 13-1 29 3 40 6-28 27-53 61-41v41" id="aZ"/><path fill="#a9afb8" d="M185-48c-13 30-37 53-82 52C43 2 14-33 14-96s30-98 90-98c62 0 83 45 84 108H66c0 31 8 55 39 56 18 0 30-7 34-22zm-45-69c5-46-57-63-70-21-2 6-4 13-4 21h74" id="ba"/><path fill="#a9afb8" d="M133-34C117-15 103 5 69 4 32 3 11-16 11-54c-1-60 55-63 116-61 1-26-3-47-28-47-18 1-26 9-28 27l-52-2c7-38 36-58 82-57s74 22 75 68l1 82c-1 14 12 18 25 15v27c-30 8-71 5-69-32zm-48 3c29 0 43-24 42-57-32 0-66-3-65 30 0 17 8 27 23 27" id="bb"/><path fill="#a9afb8" d="M115-3C79 11 28 4 28-45v-112H4v-33h27l15-45h31v45h36v33H77v99c-1 23 16 31 38 25v30" id="bc"/><path fill="#a9afb8" d="M25-224v-37h50v37H25zM25 0v-190h50V0H25" id="bd"/><path fill="#a9afb8" d="M110-194c64 0 96 36 96 99 0 64-35 99-97 99-61 0-95-36-95-99 0-62 34-99 96-99zm-1 164c35 0 45-28 45-65 0-40-10-65-43-65-34 0-45 26-45 65 0 36 10 65 43 65" id="be"/><path fill="#a9afb8" d="M135-194c87-1 58 113 63 194h-50c-7-57 23-157-34-157-59 0-34 97-39 157H25l-1-190h47c2 12-1 28 3 38 12-26 28-41 61-42" id="bf"/><g id="t"><use transform="matrix(0.0728395061728395,0,0,0.0728395061728395,0,0)" xlink:href="#aY"/><use transform="matrix(0.0728395061728395,0,0,0.0728395061728395,18.86543209876543,0)" xlink:href="#aZ"/><use transform="matrix(0.0728395061728395,0,0,0.0728395061728395,29.062962962962963,0)" xlink:href="#ba"/><use transform="matrix(0.0728395061728395,0,0,0.0728395061728395,43.63086419753086,0)" xlink:href="#bb"/><use transform="matrix(0.0728395061728395,0,0,0.0728395061728395,58.19876543209875,0)" xlink:href="#bc"/><use transform="matrix(0.0728395061728395,0,0,0.0728395061728395,66.86666666666666,0)" xlink:href="#bd"/><use transform="matrix(0.0728395061728395,0,0,0.0728395061728395,74.15061728395061,0)" xlink:href="#be"/><use transform="matrix(0.0728395061728395,0,0,0.0728395061728395,90.10246913580247,0)" xlink:href="#bf"/></g><path fill="#a9afb8" d="M88-194c31-1 46 15 58 34l-1-101h50l1 261h-48c-2-10 0-23-3-31C134-8 116 4 84 4 32 4 16-41 15-95c0-56 19-97 73-99zm17 164c33 0 40-30 41-66 1-37-9-64-41-64s-38 30-39 65c0 43 13 65 39 65" id="bg"/><g id="u"><use transform="matrix(0.0728395061728395,0,0,0.0728395061728395,0,0)" xlink:href="#bb"/><use transform="matrix(0.0728395061728395,0,0,0.0728395061728395,14.5679012345679,0)" xlink:href="#bf"/><use transform="matrix(0.0728395061728395,0,0,0.0728395061728395,30.51975308641975,0)" xlink:href="#bg"/></g><path fill="#a9afb8" d="M85 4C-2 5 27-109 22-190h50c7 57-23 150 33 157 60-5 35-97 40-157h50l1 190h-47c-2-12 1-28-3-38-12 25-28 42-61 42" id="bh"/><path fill="#a9afb8" d="M137-138c1-29-70-34-71-4 15 46 118 7 119 86 1 83-164 76-172 9l43-7c4 19 20 25 44 25 33 8 57-30 24-41C81-84 22-81 20-136c-2-80 154-74 161-7" id="bi"/><g id="v"><use transform="matrix(0.0728395061728395,0,0,0.0728395061728395,0,0)" xlink:href="#bh"/><use transform="matrix(0.0728395061728395,0,0,0.0728395061728395,15.95185185185185,0)" xlink:href="#bi"/><use transform="matrix(0.0728395061728395,0,0,0.0728395061728395,30.51975308641975,0)" xlink:href="#ba"/></g><path fill="#a9afb8" d="M121-226c-27-7-43 5-38 36h38v33H83V0H34v-157H6v-33h28c-9-59 32-81 87-68v32" id="bj"/><g id="w"><use transform="matrix(0.0728395061728395,0,0,0.0728395061728395,0,0)" xlink:href="#be"/><use transform="matrix(0.0728395061728395,0,0,0.0728395061728395,15.95185185185185,0)" xlink:href="#bj"/></g><path fill="#a9afb8" d="M190-63c-7 42-38 67-86 67-59 0-84-38-90-98-12-110 154-137 174-36l-49 2c-2-19-15-32-35-32-30 0-35 28-38 64-6 74 65 87 74 30" id="bk"/><path fill="#a9afb8" d="M25 0v-261h50V0H25" id="bl"/><g id="x"><use transform="matrix(0.0728395061728395,0,0,0.0728395061728395,0,0)" xlink:href="#bk"/><use transform="matrix(0.0728395061728395,0,0,0.0728395061728395,14.5679012345679,0)" xlink:href="#bd"/><use transform="matrix(0.0728395061728395,0,0,0.0728395061728395,21.85185185185185,0)" xlink:href="#aZ"/><use transform="matrix(0.0728395061728395,0,0,0.0728395061728395,32.04938271604938,0)" xlink:href="#bk"/><use transform="matrix(0.0728395061728395,0,0,0.0728395061728395,46.61728395061728,0)" xlink:href="#bh"/><use transform="matrix(0.0728395061728395,0,0,0.0728395061728395,62.56913580246913,0)" xlink:href="#bl"/><use transform="matrix(0.0728395061728395,0,0,0.0728395061728395,69.85308641975308,0)" xlink:href="#bb"/><use transform="matrix(0.0728395061728395,0,0,0.0728395061728395,84.42098765432098,0)" xlink:href="#aZ"/></g><g id="y"><use transform="matrix(0.0728395061728395,0,0,0.0728395061728395,0,0)" xlink:href="#bb"/><use transform="matrix(0.0728395061728395,0,0,0.0728395061728395,14.5679012345679,0)" xlink:href="#bf"/><use transform="matrix(0.0728395061728395,0,0,0.0728395061728395,30.51975308641975,0)" xlink:href="#bg"/></g><g id="z"><use transform="matrix(0.0728395061728395,0,0,0.0728395061728395,0,0)" xlink:href="#bl"/><use transform="matrix(0.0728395061728395,0,0,0.0728395061728395,7.28395061728395,0)" xlink:href="#bd"/><use transform="matrix(0.0728395061728395,0,0,0.0728395061728395,14.5679012345679,0)" xlink:href="#bf"/><use transform="matrix(0.0728395061728395,0,0,0.0728395061728395,30.51975308641975,0)" xlink:href="#ba"/><use transform="matrix(0.0728395061728395,0,0,0.0728395061728395,45.08765432098765,0)" xlink:href="#bb"/><use transform="matrix(0.0728395061728395,0,0,0.0728395061728395,59.65555555555555,0)" xlink:href="#aZ"/></g><path fill="#a9afb8" d="M135-194c53 0 70 44 70 98 0 56-19 98-73 100-31 1-45-17-59-34 3 33 2 69 2 105H25l-1-265h48c2 10 0 23 3 31 11-24 29-35 60-35zM114-30c33 0 39-31 40-66 0-38-9-64-40-64-56 0-55 130 0 130" id="bm"/><g id="A"><use transform="matrix(0.0728395061728395,0,0,0.0728395061728395,0,0)" xlink:href="#bm"/><use transform="matrix(0.0728395061728395,0,0,0.0728395061728395,15.95185185185185,0)" xlink:href="#aZ"/><use transform="matrix(0.0728395061728395,0,0,0.0728395061728395,26.14938271604938,0)" xlink:href="#be"/><use transform="matrix(0.0728395061728395,0,0,0.0728395061728395,42.10123456790124,0)" xlink:href="#bj"/><use transform="matrix(0.0728395061728395,0,0,0.0728395061728395,50.76913580246913,0)" xlink:href="#bd"/><use transform="matrix(0.0728395061728395,0,0,0.0728395061728395,58.05308641975308,0)" xlink:href="#bl"/><use transform="matrix(0.0728395061728395,0,0,0.0728395061728395,65.33703703703704,0)" xlink:href="#ba"/></g><path fill="#a9afb8" d="M30 0v-248h33v221h125V0H30" id="bn"/><path fill="#a9afb8" d="M141-36C126-15 110 5 73 4 37 3 15-17 15-53c-1-64 63-63 125-63 3-35-9-54-41-54-24 1-41 7-42 31l-33-3c5-37 33-52 76-52 45 0 72 20 72 64v82c-1 20 7 32 28 27v20c-31 9-61-2-59-35zM48-53c0 20 12 33 32 33 41-3 63-29 60-74-43 2-92-5-92 41" id="bo"/><path fill="#a9afb8" d="M179-190L93 31C79 59 56 82 12 73V49c39 6 53-20 64-50L1-190h34L92-34l54-156h33" id="bp"/><path fill="#a9afb8" d="M24 0v-261h32V0H24" id="bq"/><g id="B"><use transform="matrix(0.04248971193415638,0,0,0.04248971193415638,0,0)" xlink:href="#bn"/><use transform="matrix(0.04248971193415638,0,0,0.04248971193415638,8.497942386831275,0)" xlink:href="#bo"/><use transform="matrix(0.04248971193415638,0,0,0.04248971193415638,16.99588477366255,0)" xlink:href="#bp"/><use transform="matrix(0.04248971193415638,0,0,0.04248971193415638,24.644032921810698,0)" xlink:href="#bq"/><use transform="matrix(0.04248971193415638,0,0,0.04248971193415638,28.000720164609053,0)" xlink:href="#bo"/></g><path fill="#a9afb8" d="M197 0v-115H63V0H30v-248h33v105h134v-105h34V0h-34" id="br"/><path fill="#a9afb8" d="M24-231v-30h32v30H24zM24 0v-190h32V0H24" id="bs"/><path fill="#a9afb8" d="M114-163C36-179 61-72 57 0H25l-1-190h30c1 12-1 29 2 39 6-27 23-49 58-41v29" id="bt"/><path fill="#a9afb8" d="M135-143c-3-34-86-38-87 0 15 53 115 12 119 90S17 21 10-45l28-5c4 36 97 45 98 0-10-56-113-15-118-90-4-57 82-63 122-42 12 7 21 19 24 35" id="bu"/><path fill="#a9afb8" d="M106-169C34-169 62-67 57 0H25v-261h32l-1 103c12-21 28-36 61-36 89 0 53 116 60 194h-32v-121c2-32-8-49-39-48" id="bv"/><g id="C"><use transform="matrix(0.04248971193415638,0,0,0.04248971193415638,0,0)" xlink:href="#br"/><use transform="matrix(0.04248971193415638,0,0,0.04248971193415638,11.004835390946502,0)" xlink:href="#bs"/><use transform="matrix(0.04248971193415638,0,0,0.04248971193415638,14.361522633744855,0)" xlink:href="#bt"/><use transform="matrix(0.04248971193415638,0,0,0.04248971193415638,19.417798353909465,0)" xlink:href="#bu"/><use transform="matrix(0.04248971193415638,0,0,0.04248971193415638,27.065946502057614,0)" xlink:href="#bv"/></g><path fill="#a9afb8" d="M240 0l2-218c-23 76-54 145-80 218h-23L58-218 59 0H30v-248h44l77 211c21-75 51-140 76-211h43V0h-30" id="bw"/><path fill="#a9afb8" d="M59-47c-2 24 18 29 38 22v24C64 9 27 4 27-40v-127H5v-23h24l9-43h21v43h35v23H59v120" id="bx"/><path fill="#a9afb8" d="M34 0v-190h32V0H34zM24-211c8-23 27-35 38-54h36v5l-58 49H24" id="by"/><path fill="#a9afb8" d="M117-194c89-4 53 116 60 194h-32v-121c0-31-8-49-39-48C34-167 62-67 57 0H25l-1-190h30c1 10-1 24 2 32 11-22 29-35 61-36" id="bz"/><path fill="#a9afb8" d="M100-194c63 0 86 42 84 106H49c0 40 14 67 53 68 26 1 43-12 49-29l28 8c-11 28-37 45-77 45C44 4 14-33 15-96c1-61 26-98 85-98zm52 81c6-60-76-77-97-28-3 7-6 17-6 28h103" id="bA"/><path fill="#a9afb8" d="M9 0v-24l116-142H16v-24h144v24L44-24h123V0H9" id="bB"/><g id="D"><use transform="matrix(0.04248971193415638,0,0,0.04248971193415638,0,0)" xlink:href="#bw"/><use transform="matrix(0.04248971193415638,0,0,0.04248971193415638,12.704423868312757,0)" xlink:href="#bo"/><use transform="matrix(0.04248971193415638,0,0,0.04248971193415638,21.20236625514403,0)" xlink:href="#bt"/><use transform="matrix(0.04248971193415638,0,0,0.04248971193415638,26.25864197530864,0)" xlink:href="#bx"/><use transform="matrix(0.04248971193415638,0,0,0.04248971193415638,30.50761316872428,0)" xlink:href="#by"/><use transform="matrix(0.04248971193415638,0,0,0.04248971193415638,34.75658436213992,0)" xlink:href="#bz"/><use transform="matrix(0.04248971193415638,0,0,0.04248971193415638,43.254526748971195,0)" xlink:href="#bA"/><use transform="matrix(0.04248971193415638,0,0,0.04248971193415638,51.752469135802464,0)" xlink:href="#bB"/></g><path fill="#a9afb8" d="M32 76v-337h29V76H32" id="bC"/><use transform="matrix(0.04248971193415638,0,0,0.04248971193415638,0,0)" xlink:href="#bC" id="E"/><path fill="#a9afb8" d="M190 0L58-211 59 0H30v-248h39L202-35l-2-213h31V0h-41" id="bD"/><path fill="#a9afb8" d="M100-194c62-1 85 37 85 99 1 63-27 99-86 99S16-35 15-95c0-66 28-99 85-99zM99-20c44 1 53-31 53-75 0-43-8-75-51-75s-53 32-53 75 10 74 51 75" id="bE"/><path fill="#a9afb8" d="M108 0H70L1-190h34L89-25l56-165h34" id="bF"/><path fill="#a9afb8" d="M210-169c-67 3-38 105-44 169h-31v-121c0-29-5-50-35-48C34-165 62-65 56 0H25l-1-190h30c1 10-1 24 2 32 10-44 99-50 107 0 11-21 27-35 58-36 85-2 47 119 55 194h-31v-121c0-29-5-49-35-48" id="bG"/><path fill="#a9afb8" d="M115-194c53 0 69 39 70 98 0 66-23 100-70 100C84 3 66-7 56-30L54 0H23l1-261h32v101c10-23 28-34 59-34zm-8 174c40 0 45-34 45-75 0-40-5-75-45-74-42 0-51 32-51 76 0 43 10 73 51 73" id="bH"/><g id="F"><use transform="matrix(0.04248971193415638,0,0,0.04248971193415638,0,0)" xlink:href="#bD"/><use transform="matrix(0.04248971193415638,0,0,0.04248971193415638,11.004835390946502,0)" xlink:href="#bE"/><use transform="matrix(0.04248971193415638,0,0,0.04248971193415638,19.502777777777776,0)" xlink:href="#bF"/><use transform="matrix(0.04248971193415638,0,0,0.04248971193415638,27.150925925925925,0)" xlink:href="#bA"/><use transform="matrix(0.04248971193415638,0,0,0.04248971193415638,35.6488683127572,0)" xlink:href="#bG"/><use transform="matrix(0.04248971193415638,0,0,0.04248971193415638,48.35329218106995,0)" xlink:href="#bH"/><use transform="matrix(0.04248971193415638,0,0,0.04248971193415638,56.851234567901244,0)" xlink:href="#bA"/><use transform="matrix(0.04248971193415638,0,0,0.04248971193415638,65.34917695473251,0)" xlink:href="#bt"/></g><path fill="#a9afb8" d="M101-251c82-7 93 87 43 132L82-64C71-53 59-42 53-27h129V0H18c2-99 128-94 128-182 0-28-16-43-45-43s-46 15-49 41l-32-3c6-41 34-60 81-64" id="bI"/><path fill="#a9afb8" d="M54-142c48-35 137-8 131 61C196 18 31 33 14-55l32-4c7 23 22 37 52 37 35-1 51-22 54-58 4-55-73-65-99-34H22l8-134h141v27H59" id="bJ"/><path fill="#a9afb8" d="M68-38c1 34 0 65-14 84H32c9-13 17-26 17-46H33v-38h35" id="bK"/><g id="G"><use transform="matrix(0.04248971193415638,0,0,0.04248971193415638,0,0)" xlink:href="#bI"/><use transform="matrix(0.04248971193415638,0,0,0.04248971193415638,8.497942386831275,0)" xlink:href="#bJ"/><use transform="matrix(0.04248971193415638,0,0,0.04248971193415638,16.99588477366255,0)" xlink:href="#bK"/></g><path fill="#a9afb8" d="M101-251c68 0 85 55 85 127S166 4 100 4C33 4 14-52 14-124c0-73 17-127 87-127zm-1 229c47 0 54-49 54-102s-4-102-53-102c-51 0-55 48-55 102 0 53 5 102 54 102" id="bL"/><g id="H"><use transform="matrix(0.04248971193415638,0,0,0.04248971193415638,0,0)" xlink:href="#bI"/><use transform="matrix(0.04248971193415638,0,0,0.04248971193415638,8.497942386831275,0)" xlink:href="#bL"/><use transform="matrix(0.04248971193415638,0,0,0.04248971193415638,16.99588477366255,0)" xlink:href="#bI"/><use transform="matrix(0.04248971193415638,0,0,0.04248971193415638,25.493827160493822,0)" xlink:href="#bI"/></g><path fill="#fff" d="M148-71c0-36-31-44-71-41l5-28c46 3 81-6 81-50 0-23-15-35-39-35-30 0-49 17-56 41l-32-3c12-39 42-63 90-64 43 0 69 19 71 60 1 43-30 58-65 66 27 5 49 22 49 53 0 85-133 99-164 35-4-7-7-15-9-22l29-9c8 25 25 45 58 45 34 1 53-17 53-48" id="bM"/><g id="I"><use transform="matrix(0.05,0,0,0.05,0,0)" xlink:href="#bM"/><use transform="matrix(0.05,0,0,0.05,10,0)" xlink:href="#an"/></g><path fill="#fff" d="M11 0l48-248h184l-5 28H87l-15 79h140l-5 27H67L50-27h158l-5 27H11" id="bN"/><path fill="#fff" d="M89 0H52L20-190h33L74-25l89-165h34" id="bO"/><g id="J"><use transform="matrix(0.05,0,0,0.05,0,0)" xlink:href="#bN"/><use transform="matrix(0.05,0,0,0.05,12,0)" xlink:href="#bO"/><use transform="matrix(0.05,0,0,0.05,21,0)" xlink:href="#ak"/><use transform="matrix(0.05,0,0,0.05,31,0)" xlink:href="#aA"/><use transform="matrix(0.05,0,0,0.05,34.95,0)" xlink:href="#aw"/><use transform="matrix(0.05,0,0,0.05,44.95,0)" xlink:href="#ak"/><use transform="matrix(0.05,0,0,0.05,54.95,0)" xlink:href="#aj"/><use transform="matrix(0.05,0,0,0.05,59.95,0)" xlink:href="#aq"/></g><g id="K"><use transform="matrix(0.05,0,0,0.05,0,0)" xlink:href="#al"/><use transform="matrix(0.05,0,0,0.05,5.95,0)" xlink:href="#aq"/><use transform="matrix(0.05,0,0,0.05,15.949999999999998,0)" xlink:href="#ai"/><use transform="matrix(0.05,0,0,0.05,24.95,0)" xlink:href="#aw"/><use transform="matrix(0.05,0,0,0.05,34.95,0)" xlink:href="#aA"/><use transform="matrix(0.05,0,0,0.05,38.900000000000006,0)" xlink:href="#aj"/></g><g id="L"><use transform="matrix(0.05,0,0,0.05,0,0)" xlink:href="#aV"/><use transform="matrix(0.05,0,0,0.05,14.950000000000001,0)" xlink:href="#aw"/><use transform="matrix(0.05,0,0,0.05,24.950000000000003,0)" xlink:href="#ai"/><use transform="matrix(0.05,0,0,0.05,33.95,0)" xlink:href="#aj"/><use transform="matrix(0.05,0,0,0.05,38.95,0)" xlink:href="#ak"/><use transform="matrix(0.05,0,0,0.05,48.95,0)" xlink:href="#ar"/><use transform="matrix(0.05,0,0,0.05,58.95,0)" xlink:href="#aB"/></g><g id="M"><use transform="matrix(0.05,0,0,0.05,0,0)" xlink:href="#at"/><use transform="matrix(0.05,0,0,0.05,5,0)" xlink:href="#as"/><use transform="matrix(0.05,0,0,0.05,8.95,0)" xlink:href="#aA"/><use transform="matrix(0.05,0,0,0.05,12.899999999999999,0)" xlink:href="#aq"/><use transform="matrix(0.05,0,0,0.05,22.9,0)" xlink:href="#ai"/></g><path fill="#fff" d="M184-94c-4 58-33 98-90 98-50 0-74-35-74-86 0-94 36-181 136-167 24 3 39 21 44 47l-29 6c-8-40-68-34-87-5-13 20-24 43-30 73 28-51 135-39 130 34zm-73-42c-35 2-61 22-60 62 1 30 14 52 44 52 38 0 55-31 56-70 1-26-14-46-40-44" id="bP"/><g id="N"><use transform="matrix(0.05,0,0,0.05,0,0)" xlink:href="#bP"/><use transform="matrix(0.05,0,0,0.05,10,0)" xlink:href="#an"/></g><use transform="matrix(0.05,0,0,0.05,0,0)" xlink:href="#ak" id="O"/><path fill="#fff" d="M248-111c6-24 9-61-24-58-72 9-57 108-77 169h-31l26-142c3-37-50-30-64-10C52-115 50-51 37 0H6l36-190h30c-1 10-6 24-4 32 13-43 101-52 105 5 13-22 29-41 61-41 90 0 28 129 23 194h-31" id="bQ"/><g id="P"><use transform="matrix(0.05,0,0,0.05,0,0)" xlink:href="#bQ"/><use transform="matrix(0.05,0,0,0.05,14.950000000000001,0)" xlink:href="#ai"/><use transform="matrix(0.05,0,0,0.05,23.950000000000003,0)" xlink:href="#at"/></g><path fill="#333" d="M30 0v-248h33v221h125V0H30" id="bR"/><path fill="#333" d="M114-163C36-179 61-72 57 0H25l-1-190h30c1 12-1 29 2 39 6-27 23-49 58-41v29" id="bS"/><g id="Q"><use transform="matrix(0.05,0,0,0.05,0,0)" xlink:href="#bR"/><use transform="matrix(0.05,0,0,0.05,10,0)" xlink:href="#aM"/><use transform="matrix(0.05,0,0,0.05,13.949999999999998,0)" xlink:href="#aI"/><use transform="matrix(0.05,0,0,0.05,23.95,0)" xlink:href="#aE"/><use transform="matrix(0.05,0,0,0.05,33.95,0)" xlink:href="#aK"/><use transform="matrix(0.05,0,0,0.05,43.95,0)" xlink:href="#bS"/></g><path fill="#333" d="M115-194c55 1 70 41 70 98S169 2 115 4C84 4 66-9 55-30l1 105H24l-1-265h31l2 30c10-21 28-34 59-34zm-8 174c40 0 45-34 45-75s-6-73-45-74c-42 0-51 32-51 76 0 43 10 73 51 73" id="bT"/><path fill="#333" d="M101-234c-31-9-42 10-38 44h38v23H63V0H32v-167H5v-23h27c-7-52 17-82 69-68v24" id="bU"/><g id="R"><use transform="matrix(0.05,0,0,0.05,0,0)" xlink:href="#bT"/><use transform="matrix(0.05,0,0,0.05,10,0)" xlink:href="#bS"/><use transform="matrix(0.05,0,0,0.05,15.949999999999998,0)" xlink:href="#aQ"/><use transform="matrix(0.05,0,0,0.05,25.950000000000003,0)" xlink:href="#bU"/><use transform="matrix(0.05,0,0,0.05,30.950000000000003,0)" xlink:href="#aM"/><use transform="matrix(0.05,0,0,0.05,34.9,0)" xlink:href="#aL"/><use transform="matrix(0.05,0,0,0.05,38.85,0)" xlink:href="#aE"/></g><path fill="#333" d="M212-179c-10-28-35-45-73-45-59 0-87 40-87 99 0 60 29 101 89 101 43 0 62-24 78-52l27 14C228-24 195 4 139 4 59 4 22-46 18-125c-6-104 99-153 187-111 19 9 31 26 39 46" id="bV"/><g id="S"><use transform="matrix(0.05,0,0,0.05,0,0)" xlink:href="#bV"/><use transform="matrix(0.05,0,0,0.05,12.950000000000001,0)" xlink:href="#aM"/><use transform="matrix(0.05,0,0,0.05,16.900000000000002,0)" xlink:href="#bS"/><use transform="matrix(0.05,0,0,0.05,22.85,0)" xlink:href="#aJ"/><use transform="matrix(0.05,0,0,0.05,31.85,0)" xlink:href="#aH"/><use transform="matrix(0.05,0,0,0.05,41.85,0)" xlink:href="#aL"/><use transform="matrix(0.05,0,0,0.05,45.800000000000004,0)" xlink:href="#aK"/><use transform="matrix(0.05,0,0,0.05,55.800000000000004,0)" xlink:href="#bS"/></g><path fill="#333" d="M190 0L58-211 59 0H30v-248h39L202-35l-2-213h31V0h-41" id="bW"/><g id="T"><use transform="matrix(0.05,0,0,0.05,0,0)" xlink:href="#bW"/><use transform="matrix(0.05,0,0,0.05,12.950000000000001,0)" xlink:href="#aQ"/></g><path fill="#333" d="M137-103V0h-34v-103L8-248h37l75 118 75-118h37" id="bX"/><g id="U"><use transform="matrix(0.05,0,0,0.05,0,0)" xlink:href="#bX"/><use transform="matrix(0.05,0,0,0.05,10.35,0)" xlink:href="#aE"/><use transform="matrix(0.05,0,0,0.05,20.35,0)" xlink:href="#aF"/></g><path fill="#fff" d="M149-56L138 0h-32l11-56H2l5-25 144-167h35L154-81h33l-5 25h-33zm-4-147L40-81h82" id="bY"/><g id="V"><use transform="matrix(0.05,0,0,0.05,0,0)" xlink:href="#bY"/><use transform="matrix(0.05,0,0,0.05,10,0)" xlink:href="#an"/></g><path fill="#fff" d="M188 0h-37l-8-164L71 0H34L18-190h31l8 164 75-164h34l8 164 74-164h31" id="bZ"/><g id="W"><use transform="matrix(0.05,0,0,0.05,0,0)" xlink:href="#ar"/><use transform="matrix(0.05,0,0,0.05,10,0)" xlink:href="#aq"/><use transform="matrix(0.05,0,0,0.05,20,0)" xlink:href="#bZ"/></g><g id="X"><use transform="matrix(0.05,0,0,0.05,0,0)" xlink:href="#bQ"/><use transform="matrix(0.05,0,0,0.05,14.950000000000001,0)" xlink:href="#ai"/><use transform="matrix(0.05,0,0,0.05,23.950000000000003,0)" xlink:href="#at"/></g><g id="Y"><use transform="matrix(0.05,0,0,0.05,0,0)" xlink:href="#bZ"/><use transform="matrix(0.05,0,0,0.05,12.950000000000001,0)" xlink:href="#as"/><use transform="matrix(0.05,0,0,0.05,16.900000000000002,0)" xlink:href="#aj"/><use transform="matrix(0.05,0,0,0.05,21.900000000000002,0)" xlink:href="#av"/></g><path fill="#fff" d="M67-162c32-53 139-36 121 50C175-51 163 2 97 4 68 4 52-11 42-31 38 6 28 39 22 75H-9l50-265h29c-1 10 0 20-3 28zm89 36c0-26-10-43-35-43-54 0-67 50-69 103-1 29 14 45 42 46 53 0 62-58 62-106" id="ca"/><g id="Z"><use transform="matrix(0.05,0,0,0.05,0,0)" xlink:href="#al"/><use transform="matrix(0.05,0,0,0.05,5.95,0)" xlink:href="#aq"/><use transform="matrix(0.05,0,0,0.05,15.949999999999998,0)" xlink:href="#ca"/><use transform="matrix(0.05,0,0,0.05,25.950000000000003,0)" xlink:href="#aq"/><use transform="matrix(0.05,0,0,0.05,35.95,0)" xlink:href="#ak"/><use transform="matrix(0.05,0,0,0.05,45.95,0)" xlink:href="#aj"/><use transform="matrix(0.05,0,0,0.05,50.95,0)" xlink:href="#aq"/><use transform="matrix(0.05,0,0,0.05,60.95,0)" xlink:href="#ap"/></g><g id="aa"><use transform="matrix(0.05,0,0,0.05,0,0)" xlink:href="#ak"/><use transform="matrix(0.05,0,0,0.05,10,0)" xlink:href="#aA"/><use transform="matrix(0.05,0,0,0.05,13.949999999999998,0)" xlink:href="#as"/><use transform="matrix(0.05,0,0,0.05,17.9,0)" xlink:href="#aB"/><use transform="matrix(0.05,0,0,0.05,27.899999999999995,0)" xlink:href="#ar"/><use transform="matrix(0.05,0,0,0.05,37.9,0)" xlink:href="#bQ"/><use transform="matrix(0.05,0,0,0.05,52.85,0)" xlink:href="#aq"/><use transform="matrix(0.05,0,0,0.05,62.85,0)" xlink:href="#ar"/><use transform="matrix(0.05,0,0,0.05,72.85,0)" xlink:href="#aj"/></g><path fill="#fff" d="M206-222l-58 71C115-108 89-62 76 0H43c20-96 77-159 130-221H37l5-27h169" id="cb"/><g id="ab"><use transform="matrix(0.05,0,0,0.05,0,0)" xlink:href="#cb"/><use transform="matrix(0.05,0,0,0.05,10,0)" xlink:href="#an"/></g><path fill="#fff" d="M249-183c0 48-29 72-75 77L221 0h-36l-43-103H65L45 0H11l48-248c83 2 190-17 190 65zm-34 3c0-55-74-39-127-41l-18 92c63-1 145 13 145-51" id="cc"/><g id="ac"><use transform="matrix(0.05,0,0,0.05,0,0)" xlink:href="#cc"/><use transform="matrix(0.05,0,0,0.05,12.950000000000001,0)" xlink:href="#aw"/><use transform="matrix(0.05,0,0,0.05,22.950000000000003,0)" xlink:href="#ar"/></g><g id="ad"><use transform="matrix(0.05,0,0,0.05,0,0)" xlink:href="#aj"/><use transform="matrix(0.05,0,0,0.05,5,0)" xlink:href="#av"/><use transform="matrix(0.05,0,0,0.05,15,0)" xlink:href="#aq"/></g><g id="ae"><use transform="matrix(0.05,0,0,0.05,0,0)" xlink:href="#ax"/><use transform="matrix(0.05,0,0,0.05,9,0)" xlink:href="#as"/><use transform="matrix(0.05,0,0,0.05,12.949999999999998,0)" xlink:href="#al"/><use transform="matrix(0.05,0,0,0.05,18.9,0)" xlink:href="#ax"/><use transform="matrix(0.05,0,0,0.05,27.899999999999995,0)" xlink:href="#aw"/><use transform="matrix(0.05,0,0,0.05,37.9,0)" xlink:href="#aA"/><use transform="matrix(0.05,0,0,0.05,41.85,0)" xlink:href="#ak"/><use transform="matrix(0.05,0,0,0.05,51.85,0)" xlink:href="#al"/></g><g id="af"><use transform="matrix(0.05,0,0,0.05,0,0)" xlink:href="#ai"/><use transform="matrix(0.05,0,0,0.05,9,0)" xlink:href="#ax"/><use transform="matrix(0.05,0,0,0.05,18,0)" xlink:href="#al"/><use transform="matrix(0.05,0,0,0.05,23.95,0)" xlink:href="#as"/><use transform="matrix(0.05,0,0,0.05,27.899999999999995,0)" xlink:href="#ca"/><use transform="matrix(0.05,0,0,0.05,37.9,0)" xlink:href="#aj"/></g><path fill="#fff" d="M151-85c6-55-69-56-94-29H26l34-134h141l-5 27H84l-20 79c41-34 127-11 121 53C199 13 30 38 8-54l29-8C52 0 159-13 151-85" id="cd"/><g id="ag"><use transform="matrix(0.05,0,0,0.05,0,0)" xlink:href="#cd"/><use transform="matrix(0.05,0,0,0.05,10,0)" xlink:href="#an"/></g><g id="ah"><use transform="matrix(0.05,0,0,0.05,0,0)" xlink:href="#aA"/><use transform="matrix(0.05,0,0,0.05,3.95,0)" xlink:href="#as"/><use transform="matrix(0.05,0,0,0.05,7.9,0)" xlink:href="#ar"/><use transform="matrix(0.05,0,0,0.05,17.9,0)" xlink:href="#aq"/><use transform="matrix(0.05,0,0,0.05,27.899999999999995,0)" xlink:href="#ak"/><use transform="matrix(0.05,0,0,0.05,37.9,0)" xlink:href="#al"/></g></defs></g></svg>